SplineFontDB: 3.2
FontName: SeriousShannsLightItalic
FullName: Serious Shanns Light Italic
FamilyName: Serious Shanns Light Italic
Weight: Light
Copyright: https://github.com/kaBeech/serious-sans/blob/main/LICENSE
Version: 6.0.0
ItalicAngle: -11.8
UnderlinePosition: 0
UnderlineWidth: 0
Ascent: 800
Descent: 200
InvalidEm: 0
sfntRevision: 0x00001999
LayerCount: 2
Layer: 0 0 "Back" 1
Layer: 1 0 "Fore" 0
XUID: [1021 329 -1817886000 6804199]
StyleMap: 0x0040
FSType: 0
OS2Version: 3
OS2_WeightWidthSlopeOnly: 0
OS2_UseTypoMetrics: 0
CreationTime: 1532631502
ModificationTime: 315532800
PfmFamily: 49
TTFWeight: 300
TTFWidth: 5
LineGap: 0
VLineGap: 0
Panose: 0 0 0 0 0 0 0 0 0 0
OS2TypoAscent: 613
OS2TypoAOffset: 0
OS2TypoDescent: -188
OS2TypoDOffset: 0
OS2TypoLinegap: 98
OS2WinAscent: 778
OS2WinAOffset: 0
OS2WinDescent: 308
OS2WinDOffset: 0
HheadAscent: 796
HheadAOffset: 0
HheadDescent: -317
HheadDOffset: 0
OS2SubXSize: 317
OS2SubYSize: 293
OS2SubXOff: 0
OS2SubYOff: 37
OS2SupXSize: 317
OS2SupYSize: 293
OS2SupXOff: 0
OS2SupYOff: 171
OS2StrikeYSize: 0
OS2StrikeYPos: 132
OS2CapHeight: 576
OS2XHeight: 485
OS2Vendor: 'NONE'
OS2CodePages: 00000001.00000000
OS2UnicodeRanges: 00000001.00000000.00000000.00000000
MarkAttachClasses: 1
DEI: 91125
LangName: 1033 "" "" "Normal" "FontForge 2.0 : Serious Shanns Light Italic : 11-6-2024" "" "Version 0.1.2"
Encoding: UnicodeBmp
UnicodeInterp: none
NameList: AGL For New Fonts
DisplaySize: -48
AntiAlias: 1
FitToEm: 0
WinInfo: 32 16 4
BeginPrivate: 8
BlueValues 32 [-39 -6 490 521 685 718 765 769]
OtherBlues 11 [-304 -292]
BlueScale 9 0.0291667
BlueShift 1 3
StdHW 4 [67]
StdVW 4 [65]
StemSnapH 23 [61 62 63 65 67 94 130]
StemSnapV 14 [40 58 65 125]
EndPrivate
BeginChars: 65537 122

StartChar: .notdef
Encoding: 65536 -1 0
Width: 509
GlyphClass: 1
Flags: MW
HStem: 688 20G<201 524 201 201>
LayerCount: 2
Fore
SplineSet
183 737 m 1
 556 737 l 1
 327 -255 l 1
 -46 -255 l 1
 183 737 l 1
524 708 m 1
 201 708 l 1
 -15 -226 l 1
 309 -226 l 1
 524 708 l 1
EndSplineSet
Validated: 1
EndChar

StartChar: exclam
Encoding: 33 33 11
Width: 509
GlyphClass: 2
Flags: MW
HStem: -13 130<154.5 217.5>
VStem: 121 131<27.5 80.5>
LayerCount: 2
Fore
SplineSet
272 274 m 0
 268 262 262 253 253 247 c 0
 244 241 236 237 227 237 c 2
 224 237 l 2
 215 237 209 240 206 245 c 0
 204 247 203 250 203 254 c 0
 203 258 204 264 206 272 c 0
 209 281 212 290 216 300 c 0
 220 310 223 318 225 325 c 0
 227 332 230 347 236 371 c 0
 242 395 248 423 254 454 c 0
 260 485 266 515 273 544 c 0
 280 573 285 593 287 603 c 0
 289 613 295 634 304 668 c 0
 313 702 318 724 320 732 c 0
 324 747 331 759 339 766 c 0
 347 773 357 777 367 777 c 2
 370 777 l 2
 378 777 384 775 387 771 c 0
 389 769 390 764 390 759 c 0
 390 754 388 748 387 742 c 0
 386 736 374 691 353 609 c 0
 332 527 316 462 305 411 c 0
 294 360 287 330 284 320 c 0
 281 310 276 295 272 274 c 0
252 75 m 0
 252 70 251 64 250 57 c 0
 246 39 238 24 223 11 c 0
 208 -2 190 -10 169 -12 c 0
 167 -12 164 -13 162 -13 c 0
 147 -13 136 -7 129 3 c 0
 123 12 121 22 121 33 c 0
 121 38 122 44 123 51 c 0
 128 68 137 83 154 96 c 0
 173 110 191 117 210 117 c 0
 225 117 238 112 245 102 c 0
 250 95 252 86 252 75 c 0
EndSplineSet
Validated: 1
EndChar

StartChar: quotedbl
Encoding: 34 34 12
Width: 509
GlyphClass: 2
Flags: MW
HStem: 448 323<134.5 223 139 223 217 288 217 289>
LayerCount: 2
Fore
SplineSet
223 771 m 2
 231 771 238 769 244 765 c 0
 245 763 247 760 248 756 c 0
 249 752 249 748 248 741 c 0
 242 714 231 669 215 607 c 0
 199 545 188 502 180 479 c 0
 176 468 170 461 162 456 c 0
 154 451 147 448 140 448 c 2
 139 448 l 2
 130 448 122 452 116 457 c 0
 114 459 112 462 112 466 c 0
 112 470 113 474 114 478 c 0
 125 512 136 556 147 609 c 0
 158 662 167 706 174 741 c 0
 175 748 178 753 181 757 c 0
 184 762 188 765 192 766 c 0
 201 769 210 771 217 771 c 2
 223 771 l 2
365 607 m 0
 350 545 338 502 330 479 c 0
 326 468 320 461 312 456 c 0
 304 451 296 448 289 448 c 2
 288 448 l 2
 279 448 271 452 265 457 c 0
 263 459 262 463 262 466 c 0
 262 469 263 473 264 478 c 0
 274 512 285 556 296 609 c 0
 307 662 316 706 323 741 c 0
 324 748 327 753 331 757 c 0
 335 761 338 765 342 766 c 0
 351 769 359 771 366 771 c 2
 372 771 l 2
 377 771 381 771 384 770 c 0
 387 769 391 767 394 765 c 0
 397 763 398 758 398 751 c 0
 398 743 387 695 365 607 c 0
EndSplineSet
Validated: 1
EndChar

StartChar: numbersign
Encoding: 35 35 13
Width: 509
GlyphClass: 2
Flags: MW
HStem: 205 57<357 395 334 414> 457 60<258 368 234 392 258 476 258 433>
LayerCount: 2
Fore
SplineSet
138 203 m 1
 129 203 l 1
 97 126 75 74 63 47 c 0
 56 36 47 26 34 18 c 0
 25 13 17 10 11 10 c 0
 9 10 5 11 3 12 c 0
 -1 12 -3 14 -4 16 c 0
 -6 20 -8 26 -8 34 c 0
 -8 44 -6 55 0 67 c 0
 9 86 31 131 62 202 c 1
 15 202 l 2
 3 202 -5 204 -9 208 c 0
 -11 210 -14 214 -14 217 c 0
 -14 218 -13 221 -13 223 c 0
 -11 232 -6 241 1 247 c 0
 8 253 20 257 33 257 c 0
 38 257 45 258 55 258 c 0
 65 258 74 260 85 260 c 1
 167 456 l 1
 148 456 l 1
 110 455 l 1
 106 455 l 2
 96 455 89 457 86 461 c 0
 84 464 83 468 83 473 c 2
 83 480 l 2
 84 489 89 497 97 503 c 0
 105 509 115 514 128 514 c 2
 129 514 l 2
 141 514 160 515 184 515 c 2
 191 515 l 1
 257 677 l 2
 264 692 274 702 283 707 c 0
 290 710 295 712 300 712 c 0
 302 712 307 711 309 711 c 0
 318 709 324 705 326 698 c 0
 327 696 328 692 328 689 c 0
 328 683 325 675 321 666 c 2
 258 517 l 1
 392 517 l 1
 453 670 l 2
 460 685 468 695 478 700 c 0
 484 703 490 705 496 705 c 0
 498 705 501 704 504 704 c 0
 513 702 520 698 522 691 c 0
 522 689 523 686 523 684 c 0
 523 677 522 669 517 659 c 0
 504 633 484 586 458 519 c 1
 477 519 l 1
 487 519 l 2
 498 519 508 515 513 509 c 0
 518 504 520 500 520 495 c 0
 520 494 519 492 519 491 c 0
 517 482 511 473 504 467 c 0
 497 461 488 457 476 457 c 2
 433 457 l 1
 357 262 l 1
 414 262 l 2
 424 262 430 260 431 258 c 0
 433 254 434 248 433 239 c 0
 431 228 425 219 420 214 c 0
 414 208 406 205 395 205 c 2
 334 205 l 1
 303 124 282 70 270 43 c 0
 263 31 253 22 241 16 c 0
 233 12 226 10 220 10 c 0
 218 10 213 11 210 12 c 0
 204 13 201 18 200 25 c 0
 200 28 199 32 199 34 c 0
 199 43 202 52 207 63 c 0
 220 90 240 137 267 204 c 1
 248 204 l 1
 138 203 l 1
368 457 m 1
 234 457 l 1
 152 261 l 1
 190 262 234 263 282 263 c 2
 290 263 l 1
 315 323 341 387 368 457 c 1
EndSplineSet
Validated: 1
EndChar

StartChar: dollar
Encoding: 36 36 14
Width: 509
GlyphClass: 2
Flags: MW
HStem: -17 60<136 170 146 170 150 170>
VStem: 115 63 381 69<235 287>
LayerCount: 2
Fore
SplineSet
92 -8 m 0
 75 -2 62 4 51 13 c 0
 30 31 16 52 9 76 c 0
 8 82 7 89 7 95 c 0
 7 101 9 107 11 112 c 0
 15 121 21 127 30 131 c 0
 37 134 43 137 46 137 c 0
 49 137 53 138 54 138 c 2
 59 138 l 2
 60 138 62 135 64 133 c 0
 66 131 70 125 73 118 c 0
 82 96 93 77 108 64 c 0
 123 50 143 43 168 43 c 2
 170 43 l 1
 178 43 l 1
 205 161 228 268 248 365 c 1
 237 366 228 368 222 369 c 0
 216 370 210 371 206 371 c 0
 188 373 173 378 160 387 c 0
 147 396 137 406 130 419 c 0
 120 438 115 458 115 480 c 0
 115 487 116 494 118 503 c 0
 123 526 131 548 142 569 c 0
 152 590 165 610 181 628 c 0
 197 646 217 661 239 674 c 0
 261 687 286 697 313 702 c 2
 320 704 l 1
 325 725 331 747 336 769 c 0
 339 784 344 795 350 803 c 0
 356 811 362 815 371 815 c 2
 373 815 l 2
 380 815 385 814 387 811 c 0
 389 808 390 803 390 797 c 0
 390 791 388 785 387 778 c 2
 373 711 l 1
 386 710 l 2
 399 710 417 706 439 700 c 0
 461 694 477 689 488 684 c 0
 495 681 500 676 502 670 c 0
 502 668 503 664 503 660 c 0
 503 656 501 651 499 644 c 0
 498 639 496 634 492 631 c 0
 488 628 484 626 481 626 c 2
 472 626 l 2
 466 626 460 627 454 629 c 0
 449 630 443 634 436 638 c 0
 429 642 420 646 409 649 c 0
 398 652 384 655 369 655 c 2
 360 656 l 1
 347 596 329 518 308 421 c 1
 320 419 l 2
 344 415 364 408 381 399 c 0
 399 389 412 378 422 366 c 0
 432 354 439 341 443 326 c 0
 447 311 450 295 450 279 c 0
 450 263 448 247 443 227 c 0
 436 198 426 170 410 144 c 0
 394 118 377 96 357 76 c 0
 337 56 316 40 293 26 c 0
 270 12 246 1 221 -6 c 2
 215 -8 l 1
 206 -52 200 -82 198 -96 c 0
 194 -107 188 -117 180 -123 c 0
 172 -129 164 -132 155 -132 c 2
 154 -132 l 2
 152 -132 149 -131 147 -131 c 0
 144 -129 142 -125 142 -118 c 0
 142 -113 143 -106 145 -97 c 0
 150 -81 156 -54 164 -17 c 1
 150 -17 l 1
 146 -17 l 2
 126 -17 109 -14 92 -8 c 0
192 468 m 0
 205 450 224 437 250 429 c 2
 261 426 l 1
 273 480 289 555 309 651 c 1
 291 645 l 2
 263 636 239 623 219 603 c 0
 199 583 186 560 181 533 c 0
 179 526 178 520 178 513 c 0
 178 496 183 481 192 468 c 0
381 241 m 0
 381 253 379 266 374 281 c 0
 370 294 362 306 350 317 c 0
 338 328 323 338 304 346 c 2
 292 352 l 1
 289 338 l 1
 289 338 278 287 257 188 c 0
 245 133 235 88 227 53 c 1
 247 62 l 2
 279 76 307 95 331 120 c 0
 355 145 370 173 377 205 c 0
 379 217 381 229 381 241 c 0
EndSplineSet
Validated: 1
EndChar

StartChar: percent
Encoding: 37 37 15
Width: 509
GlyphClass: 2
Flags: MW
HStem: -16 52<289.5 325 298 325> 184 49<352.5 353.5> 444 51<157.5 192 166 192> 645 48<221.5 226>
VStem: 101 41<522.5 546.5> 233 41<63.5 86.5> 264 41<589.5 628> 395 35<99 143> 395 45<129.5 169>
LayerCount: 2
Fore
SplineSet
124 461 m 0xfa
 113 472 105 486 103 503 c 0
 102 510 101 518 101 527 c 0
 101 536 102 548 105 561 c 0
 114 600 130 631 153 656 c 0
 176 681 205 693 238 693 c 0
 264 693 283 683 295 664 c 0
 302 653 305 638 305 618 c 0
 305 601 302 581 296 559 c 0
 287 521 271 493 250 473 c 0
 229 453 202 444 167 444 c 2
 166 444 l 2
 149 444 135 450 124 461 c 0xfa
1 12 m 0
 23 44 67 104 132 192 c 2
 327 470 l 2
 393 563 439 629 465 670 c 0
 473 680 482 686 492 688 c 0
 495 688 499 689 501 689 c 0
 506 689 510 687 515 684 c 0
 518 683 520 681 521 680 c 0
 522 679 523 675 523 673 c 0
 523 665 519 654 508 641 c 0
 475 600 399 497 281 330 c 0
 166 163 87 51 45 -9 c 0
 36 -21 28 -29 21 -34 c 0
 16 -37 11 -39 7 -39 c 0
 3 -39 0 -38 -3 -36 c 0
 -6 -34 -10 -31 -11 -29 c 0
 -12 -27 -13 -24 -13 -21 c 0
 -13 -12 -8 -1 1 12 c 0
190 495 m 2
 192 495 l 2
 209 495 223 501 234 514 c 0
 245 527 254 543 260 563 c 0
 262 574 264 585 264 594 c 0
 264 605 263 615 258 623 c 0
 249 638 236 645 216 645 c 0
 199 645 184 638 172 623 c 0
 161 610 152 592 146 570 c 0
 144 560 142 551 142 542 c 0
 142 533 143 526 146 519 c 0
 153 505 168 497 190 495 c 2
256 1 m 0
 245 12 238 26 235 43 c 0
 234 50 233 59 233 68 c 0xfc80
 233 77 235 88 237 101 c 0
 245 140 262 171 285 196 c 0
 308 221 336 233 369 233 c 0
 382 233 394 231 403 226 c 0
 413 221 422 214 429 204 c 0
 436 194 440 179 440 159 c 0
 440 142 437 122 430 100 c 1xfd
 430 99 l 1
 419 61 403 32 382 12 c 0
 361 -7 334 -16 301 -16 c 2
 298 -16 l 2
 281 -16 267 -10 256 1 c 0
322 36 m 2
 325 36 l 2
 341 36 355 42 366 55 c 0
 377 68 386 83 391 103 c 0
 393 114 395 125 395 134 c 0
 395 152 391 165 380 174 c 0
 371 181 360 184 347 184 c 0
 330 184 316 176 304 162 c 0
 292 149 283 131 278 110 c 0
 276 100 274 91 274 82 c 0
 274 73 276 66 279 59 c 0
 286 45 300 37 322 36 c 2
EndSplineSet
Validated: 1
EndChar

StartChar: ampersand
Encoding: 38 38 16
Width: 509
GlyphClass: 2
Flags: MW
HStem: -29 69 657 55
VStem: 9 71<105.001 142.501> 187 64<541.001 542.001> 354 71<8.00098 34>
LayerCount: 2
Fore
SplineSet
421 5 m 0
 416 -11 409 -20.9990234375 401 -23.9990234375 c 0
 396 -25.9990234375 392 -27.9990234375 388 -27.9990234375 c 0
 383 -27.9990234375 379 -25.9990234375 375 -23.9990234375 c 0
 366 -17.9990234375 359 -6.9990234375 354 8.0009765625 c 0
 354 12.0009765625 352 22.0009765625 350 38.0009765625 c 0
 348 54.0009765625 346 65.0009765625 344 73.0009765625 c 2
 339 97.0009765625 l 1
 323 79.0009765625 l 2
 321 77.0009765625 316 70.0009765625 308 62.0009765625 c 2
 290 44.0009765625 l 2
 271 25.0009765625 258 13.0009765625 250 8.0009765625 c 0
 244 4.0009765625 236 0.0009765625 227 -5.9990234375 c 0
 218 -11.9990234375 209 -16.9990234375 201 -18.9990234375 c 0
 193 -20.9990234375 184 -23.9990234375 173 -25.9990234375 c 0
 162 -27.9990234375 152 -28.9990234375 142 -28.9990234375 c 0
 110 -28.9990234375 83 -19.9990234375 61 -2.9990234375 c 0
 39 14.0009765625 23 37.0009765625 15 66.0009765625 c 0
 11 81.0009765625 9 97.0009765625 9 113.000976562 c 0
 9 129.000976562 11 145.000976562 15 162.000976562 c 0
 43 284.000976562 108 367.000976562 212 411.000976562 c 2
 223 416.000976562 l 1
 207 460.000976562 198 486.000976562 196 491.000976562 c 0
 194 497.000976562 192 505.000976562 190 513.000976562 c 0
 188 521.000976562 187 528.000976562 187 533.000976562 c 0
 187 551.000976562 189 569.000976562 193 587.000976562 c 0
 198 609.000976562 209 632.000976562 227 653.000976562 c 0
 236 664.000976562 247 675.000976562 259 683.000976562 c 0
 271 691.000976562 286 698.000976562 304 704.000976562 c 0
 322 710.000976562 340 712.000976562 361 712.000976562 c 0
 378 712.000976562 394 710.000976562 408 704.000976562 c 0
 422 698.000976562 434 690.000976562 444 680.000976562 c 0
 454 670.000976562 460 657.000976562 464 640.000976562 c 0
 465.888671875 631.974609375 466.885742188 623.279296875 466.885742188 614.020507812 c 0
 466.885742188 603.668945312 465.639648438 592.61328125 463 581 c 0
 458 561 451 542 442 525 c 0
 433 508 424 493 414 481 c 0
 404 469 392 458 378 447 c 0
 364 436 351 427 340 421 c 0
 329 415 317 409 302 402 c 2
 293 397 l 1
 296 387 l 2
 303 366 315 335 332 294 c 0
 349 253 360 227 365 214 c 2
 373 191 l 1
 388 213 400 232 408 244 c 0
 416 256 423 266 428 273 c 0
 433 280 437 286 439 289 c 0
 453 305 464 315 473 318 c 0
 475 319 479 320 481 320 c 0
 485 320 489 318 494 316 c 0
 499 313 501 307 501 300 c 0
 501 287 494 272 483 255 c 0
 479 249 467 236 447 215 c 0
 427 194 408 174 391 153 c 1
 396 137 403 116 410 93 c 0
 417 70 421 55 422 50 c 0
 423 45 425 38 425 30 c 0
 425 22 423 14 421 5 c 0
340 657.000976562 m 0
 315 657.000976562 295 648.000976562 280 631.000976562 c 0
 268 617.000976562 259 598.000976562 254 575.000976562 c 0
 252 566.000976562 251 556.000976562 251 546.000976562 c 0
 251 536.000976562 252 526.000976562 254 515.000976562 c 0
 257 493.000976562 264 474.000976562 273 458.000976562 c 2
 278 450.000976562 l 1
 288 453.000976562 l 2
 303 458.000976562 317 463.000976562 328 468.000976562 c 0
 339 473.000976562 350 480.000976562 361 489.000976562 c 0
 372 498.000976562 382 508.000976562 389 521.000976562 c 0
 396 534.000976562 402 550.000976562 406 567.000976562 c 0
 408 576.000976562 410 585.000976562 410 593.000976562 c 0
 410 610.000976562 405 623.000976562 396 634.000976562 c 0
 382 649.000976562 363 657.000976562 340 657.000976562 c 0
93 82.0009765625 m 0
 108 54.0009765625 133 40.0009765625 166 40.0009765625 c 0
 181 40.0009765625 198 43.0009765625 218 49.0009765625 c 0
 225 51.0009765625 233 56.0009765625 241 61.0009765625 c 0
 249 66.0009765625 254 69.0009765625 259 72.0009765625 c 0
 264 75.0009765625 269 80.0009765625 276 87.0009765625 c 0
 283 94.0009765625 289 99.0009765625 291 102.000976562 c 0
 293 105.000976562 298 109.000976562 304 116.000976562 c 0
 310 123.000976562 314 127.000976562 315 128.000976562 c 2
 320 133.000976562 l 1
 314 163.000976562 309 186.000976562 305 201.000976562 c 0
 300 217.000976562 290 242.000976562 276 277.000976562 c 0
 262 312.000976562 252 337.000976562 246 354.000976562 c 2
 241 366.000976562 l 1
 229 361.000976562 l 2
 208 352.000976562 189 341.000976562 172 327.000976562 c 0
 155 313.000976562 141 298.000976562 130 282.000976562 c 0
 119 266.000976562 110 249.000976562 103 232.000976562 c 0
 96 215.000976562 91 197.000976562 86 177.000976562 c 0
 82 162.000976562 80 149.000976562 80 136.000976562 c 0
 80 115.000976562 84 97.0009765625 93 82.0009765625 c 0
EndSplineSet
Validated: 1
EndChar

StartChar: quotesingle
Encoding: 39 39 17
Width: 509
GlyphClass: 2
Flags: MW
HStem: 458 302<215 294 215 294>
LayerCount: 2
Fore
SplineSet
295 760 m 2
 303 760 310 758 316 754 c 0
 317 753 319 750 320 746 c 0
 321 742 320 737 319 730 c 0
 313 704 304 663 290 608 c 0
 276 553 265 513 257 490 c 0
 253 479 247 470 239 465 c 0
 231 460 224 458 217 458 c 2
 215 458 l 2
 205 459 197 463 192 468 c 0
 190 470 189 473 189 477 c 0
 189 481 190 484 191 489 c 0
 201 524 211 563 221 609 c 0
 231 655 240 696 247 731 c 0
 247 737 249 743 253 747 c 0
 257 751 261 754 265 755 c 0
 274 758 282 760 289 760 c 2
 294 760 l 1
 295 760 l 2
EndSplineSet
Validated: 1
EndChar

StartChar: parenleft
Encoding: 40 40 18
Width: 509
GlyphClass: 2
Flags: MW
HStem: -119 60<190.5 233> 745 57<398.5 431.5>
VStem: 63 71<140.5 147.5>
LayerCount: 2
Fore
SplineSet
229 -59 m 0
 237 -59 242 -61 244 -64 c 0
 245 -65 247 -67 247 -71 c 0
 247 -75 245 -81 244 -90 c 0
 242 -98 238 -104 230 -110 c 0
 222 -116 215 -119 209 -119 c 0
 172 -119 141 -105 117 -76 c 0
 92 -45 76 -3 68 52 c 0
 65 77 63 103 63 130 c 0
 63 165 65 203 71 244 c 0
 78 293 94 356 118 433 c 0
 142 510 168 574 197 623 c 0
 210 644 225 666 243 687 c 0
 261 708 280 727 301 744 c 0
 322 761 344 775 366 786 c 0
 388 797 408 802 428 802 c 0
 435 802 440 801 442 799 c 0
 444 797 446 793 446 788 c 0
 446 785 446 781 445 776 c 0
 443 765 438 757 431 752 c 0
 424 747 417 745 408 745 c 0
 389 745 372 740 354 729 c 0
 336 718 319 703 304 685 c 0
 275 651 250 609 228 558 c 0
 211 523 194 475 177 414 c 0
 160 353 149 304 143 268 c 0
 137 232 134 197 134 164 c 0
 134 117 139 76 148 41 c 0
 155 12 166 -11 179 -29 c 0
 194 -49 210 -59 229 -59 c 0
EndSplineSet
Validated: 1
EndChar

StartChar: parenright
Encoding: 41 41 19
Width: 509
GlyphClass: 2
Flags: MW
HStem: -119 60<96.5 100.5> 745 57<278.5 308.5>
VStem: 381 65<551.5 571>
LayerCount: 2
Fore
SplineSet
446 571 m 0
 446 532 442 488 435 438 c 0
 424 361 410 298 394 250 c 0
 371 177 343 113 309 57 c 0
 275 1 239 -42 199 -73 c 0
 159 -104 120 -119 81 -119 c 0
 76 -119 71 -117 67 -112 c 0
 65 -110 64 -106 64 -102 c 2
 64 -96 l 2
 67 -81 72 -71 78 -66 c 0
 84 -61 92 -59 101 -59 c 0
 118 -59 138 -50 160 -31 c 0
 181 -14 201 10 222 38 c 0
 243 66 262 99 282 139 c 0
 302 179 317 218 330 259 c 0
 342 297 354 348 365 410 c 0
 376 472 381 522 381 560 c 0
 381 582 380 603 377 624 c 0
 374 645 369 663 362 682 c 0
 355 701 345 716 331 728 c 0
 317 740 301 745 282 745 c 0
 275 745 269 747 265 751 c 0
 263 753 262 755 262 759 c 0
 262 763 263 768 264 773 c 0
 265 778 268 784 271 788 c 0
 274 792 277 795 279 796 c 0
 286 800 292 802 299 802 c 0
 318 802 336 797 353 787 c 0
 370 777 384 764 396 747 c 0
 408 730 419 711 427 690 c 0
 435 669 441 648 443 627 c 0
 445 610 446 592 446 571 c 0
EndSplineSet
Validated: 1
EndChar

StartChar: asterisk
Encoding: 42 42 20
Width: 509
GlyphClass: 2
Flags: MW
HStem: 305 80<54.5 77> 313 71<443 463.5> 319 52<346.5 356.5 305 374>
VStem: 173 62 273 66<145 173>
LayerCount: 2
Fore
SplineSet
299 129 m 0x98
 292 129 286 131 281 134 c 0
 279 135 276 137 275 139 c 0
 274 141 273 144 273 146 c 0
 272 173 265 213 252 264 c 2
 245 290 l 1
 230 268 l 2
 186 206 158 165 147 145 c 0
 144 139 139 134 134 131 c 0
 129 129 123 126 118 126 c 2
 112 126 l 2
 110 126 106 126 102 127 c 0
 98 128 93 130 91 132 c 0
 89 134 86 137 85 141 c 0
 84 145 83 148 83 151 c 2
 83 159 l 2
 83 166 87 173 93 182 c 2
 197 312 l 1
 170 311 l 2
 119 307 81 305 57 305 c 0
 52 305 47 307 44 308 c 0
 41 309 38 312 36 315 c 0
 33 320 31 325 31 331 c 2
 33 341 l 2
 33 346 35 351 37 356 c 0
 44 369 51 378 60 382 c 0
 65 384 69 385 74 385 c 2
 77 385 l 2
 105 383 152 379 219 374 c 1
 213 391 l 2
 198 440 184 477 173 503 c 0
 171 509 170 515 170 521 c 0
 170 527 171 534 173 540 c 0
 177 551 183 559 191 562 c 0
 197 566 203 568 209 568 c 0
 214 568 220 566 225 562 c 0
 230 558 234 552 235 545 c 0
 238 529 249 483 269 406 c 1
 285 426 l 2
 320 471 348 509 368 540 c 0
 373 549 380 556 387 560 c 0
 394 564 401 566 406 566 c 0
 411 566 416 564 419 561 c 2
 420 561 l 2
 422 560 425 557 426 552 c 0
 426 550 427 546 427 543 c 0
 427 530 423 518 413 507 c 0
 386 476 354 437 319 390 c 2
 305 371 l 1x38
 329 371 l 2
 384 371 425 375 451 382 c 0
 455 383 459 384 461 384 c 0x58
 466 384 470 381 472 378 c 0
 476 373 479 367 479 362 c 0
 479 357 477 350 473 341 c 0
 466 328 459 319 451 315 c 0
 449 314 446 313 444 313 c 0
 442 313 440 314 439 314 c 0
 423 317 395 319 353 319 c 0x38
 340 319 321 318 296 318 c 1
 337 187 l 2
 338 182 339 176 339 170 c 0
 339 164 338 159 336 154 c 0
 333 145 328 138 322 134 c 0
 316 130 308 129 299 129 c 0x98
EndSplineSet
Validated: 1
EndChar

StartChar: plus
Encoding: 43 43 21
Width: 509
GlyphClass: 2
Flags: MW
HStem: 370 59<206 235 206 235>
LayerCount: 2
Fore
SplineSet
112 369 m 2
 101 369 93 371 91 376 c 0
 89 379 87 383 87 388 c 0
 87 390 88 394 88 397 c 0
 90 407 95 415 102 422 c 0
 109 428 117 431 128 431 c 2
 131 431 l 2
 174 430 205 429 225 429 c 2
 235 429 l 1
 244 469 253 508 260 547 c 0
 261 557 265 565 270 570 c 0
 277 577 286 580 298 580 c 2
 301 580 l 2
 308 580 314 578 318 575 c 0
 319 574 320 571 320 567 c 0
 320 563 319 559 317 553 c 0
 306 514 296 472 285 427 c 1
 403 427 l 2
 413 427 419 425 420 423 c 0
 421 421 423 418 423 413 c 0
 423 406 421 398 418 391 c 0
 416 387 413 383 410 379 c 0
 405 373 398 370 389 370 c 2
 389 370 387 371 385 371 c 0
 375 371 361 372 341 372 c 0
 321 372 298 371 271 371 c 1
 266 347 260 323 255 298 c 0
 250 273 246 258 245 253 c 0
 242 240 237 232 232 227 c 0
 226 223 219 220 211 220 c 0
 204 220 199 221 196 223 c 0
 193 225 192 229 192 235 c 0
 192 239 192 243 193 248 c 2
 221 370 l 1
 206 370 l 1
 112 369 l 2
EndSplineSet
Validated: 1
EndChar

StartChar: comma
Encoding: 44 44 22
Width: 509
GlyphClass: 2
Flags: MW
VStem: 138 234
LayerCount: 2
Fore
SplineSet
138 -185 m 2
 138 -182 l 2
 138 -176 141 -169 148 -161 c 0
 166 -140 195 -95 234 -27 c 0
 273 41 298 89 309 116 c 0
 311 123 317 129 323 133 c 0
 329 137 335 139 340 139 c 2
 341 139 l 2
 347 139 353 138 358 137 c 0
 363 135 368 131 370 125 c 0
 371 123 372 120 372 117 c 0
 372 114 370 108 368 101 c 0
 355 68 330 19 294 -48 c 0
 258 -115 233 -157 219 -172 c 0
 207 -185 194 -195 179 -200 c 0
 171 -202 164 -204 158 -204 c 0
 155 -204 151 -203 149 -202 c 0
 146 -201 143 -198 141 -196 c 0
 139 -193 138 -189 138 -185 c 2
EndSplineSet
Validated: 1
EndChar

StartChar: hyphen
Encoding: 45 45 23
Width: 509
GlyphClass: 2
Flags: MW
HStem: 255 62<137.5 177.5> 264 56<347 374.5>
LayerCount: 2
Fore
SplineSet
160 317 m 0x80
 195 317 237 317 286 318 c 0
 335 319 363 320 370 320 c 0x40
 379 320 385 318 387 316 c 0
 389 312 390 306 389 298 c 0
 387 287 381 278 376 273 c 0
 370 267 362 264 351 264 c 0
 343 264 311 262 256 259 c 0
 201 256 162 255 141 255 c 0
 134 255 128 256 125 258 c 0
 122 260 121 264 121 270 c 0
 121 274 122 278 123 283 c 0
 124 294 128 303 133 308 c 0
 140 314 149 317 160 317 c 0x80
EndSplineSet
Validated: 1
EndChar

StartChar: period
Encoding: 46 46 24
Width: 509
GlyphClass: 2
Flags: MW
HStem: -2 130<221.5 285.5 229 285.5>
VStem: 189 131<37.5 90.5>
LayerCount: 2
Fore
SplineSet
320 85 m 0
 320 80 319 74 318 68 c 0
 314 49 306 34 291 21 c 0
 276 8 258 0 237 -2 c 2
 229 -2 l 2
 214 -2 204 3 197 13 c 0
 192 22 189 32 189 43 c 0
 189 49 190 55 191 61 c 0
 195 79 206 94 223 107 c 0
 242 121 259 128 278 128 c 0
 293 128 305 123 312 113 c 0
 317 105 320 96 320 85 c 0
EndSplineSet
Validated: 1
EndChar

StartChar: slash
Encoding: 47 47 25
Width: 509
GlyphClass: 2
Flags: W
LayerCount: 2
Fore
SplineSet
-50 -31 m 0
 -50 -28 -49 -24 -49 -20 c 0
 -47 -3 -39 12 -28 27 c 0
 100 187 210 329 303 454 c 0
 362 530 425 617 492 714 c 0
 499 723 505 730 513 734 c 0
 521 738 528 741 534 741 c 0
 540 741 545 739 551 737 c 0
 557 733 561 727 561 719 c 0
 561 710 554 698 545 683 c 0
 521 649 457 566 352 433 c 0
 247 300 183 218 160 185 c 0
 145 164 121 129 87 80 c 0
 53 31 32 1 24 -10 c 0
 11 -27 -4 -38 -19 -45 c 0
 -26 -47 -31 -49 -35 -49 c 0
 -39 -49 -43 -48 -45 -46 c 2
 -46 -46 l 2
 -48 -44 -50 -38 -50 -31 c 0
EndSplineSet
Validated: 1
EndChar

StartChar: zero
Encoding: 48 48 26
Width: 509
GlyphClass: 2
Flags: MW
HStem: -12 60<171 171.5> 649 57<330 331>
VStem: 23 77<133.5 211>
LayerCount: 2
Fore
SplineSet
34 211 m 0
 35 218 38 235 44 261 c 0
 50 287 55 308 59 324 c 0
 63 340 69 361 76 388 c 0
 83 415 90 438 96 458 c 0
 102 478 110 500 120 522 c 0
 130 544 139 565 148 582 c 0
 170 623 198 653 233 674 c 0
 268 695 308 706 352 706 c 0
 374 706 395 702 413 693 c 0
 431 684 446 671 458 655 c 0
 470 639 478 618 483 591 c 0
 485 578 486 564 486 548 c 0
 486 532 484 516 482 496 c 0
 477 463 469 425 460 383 c 0
 451 341 440 298 428 256 c 0
 416 214 405 181 394 159 c 0
 374 117 354 82 334 57 c 0
 325 45 317 34 306 26 c 0
 295 18 285 11 275 6 c 0
 265 1 254 -3 242 -5 c 0
 230 -7 218 -10 206 -11 c 0
 194 -12 180 -12 163 -12 c 0
 138 -12 115 -7 94 3 c 0
 73 13 58 27 46 46 c 0
 34 65 26 88 24 116 c 0
 24 123 23 130 23 137 c 0
 23 159 27 184 34 211 c 0
236 616 m 0
 213 594 192 559 172 511 c 0
 165 494 158 473 152 451 c 0
 146 429 139 402 132 370 c 0
 125 338 120 315 118 302 c 2
 104 232 l 2
 104 230 102 226 102 221 c 0
 102 216 100 212 100 210 c 2
 85 160 l 1
 121 198 l 1
 223 321 318 447 409 576 c 1
 414 581 l 1
 411 588 l 2
 402 608 390 622 374 633 c 0
 359 644 341 649 321 649 c 0
 288 649 259 638 236 616 c 0
224 53 m 0
 237 56 251 61 264 70 c 0
 291 86 314 117 335 162 c 0
 339 171 346 194 356 230 c 0
 367 266 379 307 391 354 c 0
 403 401 411 446 418 489 c 2
 426 542 l 1
 396 498 l 1
 303 352 206 230 102 131 c 1
 97 127 l 1
 98 120 l 2
 103 93 114 74 131 62 c 0
 144 53 161 48 181 48 c 0
 197 48 211 50 224 53 c 0
EndSplineSet
Validated: 1
EndChar

StartChar: one
Encoding: 49 49 27
Width: 509
GlyphClass: 2
Flags: MW
HStem: 3 67
LayerCount: 2
Fore
SplineSet
458 47 m 2
 458 40 l 2
 456 29 451 21 444 14 c 0
 437 7 426 3 411 3 c 0
 208 5 93 7 71 7 c 0
 62 7 57 9 55 13 c 0
 53 16 51 19 51 23 c 0
 51 27 53 31 53 35 c 0
 55 46 58 55 65 62 c 0
 72 69 81 72 92 72 c 0
 120 72 168 71 235 70 c 1
 242 103 248 129 250 146 c 0
 250 151 253 168 259 197 c 2
 273 262 l 2
 275 275 282 300 290 336 c 0
 298 372 305 399 309 417 c 0
 324 481 339 549 359 620 c 1
 332 598 l 2
 285 558 251 534 231 525 c 0
 229 524 227 523 225 523 c 0
 221 523 216 527 212 532 c 0
 207 539 206 545 206 551 c 0
 206 553 207 555 207 557 c 0
 208 566 211 574 216 581 c 0
 221 588 228 595 239 604 c 0
 258 619 277 636 298 653 c 2
 345 692 l 2
 356 699 366 705 375 710 c 0
 384 715 391 718 396 718 c 0
 405 718 414 713 423 704 c 0
 430 697 435 691 435 686 c 2
 435 685 l 1
 435 685 421 633 394 529 c 0
 367 430 352 373 349 357 c 0
 335 290 323 234 314 190 c 0
 309 165 301 124 292 67 c 1
 317 67 351 66 391 65 c 0
 413 65 428 64 434 64 c 0
 440 64 446 63 449 62 c 0
 452 61 455 59 455 58 c 0
 457 56 458 52 458 47 c 2
EndSplineSet
Validated: 1
EndChar

StartChar: two
Encoding: 50 50 28
Width: 509
GlyphClass: 2
Flags: MW
HStem: -5 59 0 64<360 366> 650 60<339.5 351.5>
VStem: 432 68<578.5 582>
LayerCount: 2
Fore
SplineSet
182 -5 m 0xb0
 155 -6 126 -7 95 -7 c 0
 64 -7 40 -6 23 -4 c 0
 19 -4 17 -1 15 1 c 0
 12 5 9 12 9 23 c 0
 9 38 14 57 19 81 c 0
 26 108 37 137 55 167 c 0
 73 197 96 227 125 256 c 0
 152 284 179 307 208 324 c 0
 277 365 324 393 345 409 c 0
 374 431 396 456 409 482 c 0
 416 496 423 514 428 536 c 0
 430 549 432 560 432 571 c 0
 432 593 426 610 414 623 c 0
 397 641 369 650 334 650 c 0
 310 650 287 642 262 625 c 0
 237 608 217 590 201 569 c 0
 188 553 178 544 172 544 c 2
 168 544 l 2
 167 544 165 544 163 545 c 0
 161 546 156 549 151 551 c 0
 146 554 145 559 145 566 c 0
 145 572 151 584 160 603 c 0
 167 615 177 627 190 639 c 0
 203 651 218 662 235 673 c 0
 252 684 271 693 291 700 c 0
 311 707 330 710 349 710 c 0
 411 710 453 695 478 664 c 0
 493 645 500 620 500 588 c 0
 500 569 498 548 493 525 c 0
 480 472 457 430 425 398 c 0
 401 374 363 347 312 318 c 0
 296 308 276 296 249 281 c 0
 219 265 192 246 170 223 c 0
 148 200 131 176 118 151 c 0
 105 127 93 101 85 73 c 2
 81 58 l 1
 128 56 168 54 201 54 c 0
 226 54 245 55 261 56 c 0
 277 57 290 58 301 59 c 0
 312 60 331 62 360 64 c 2x70
 369 64 l 2
 373 64 377 65 381 65 c 0
 385 65 389 64 391 64 c 0
 392 63 394 61 396 60 c 2
 396 56 l 1
 396 52 l 2
 396 45 394 37 391 29 c 0
 388 21 382 14 376 8 c 0
 372 3 368 0 364 0 c 0
 324 0 265 -1 182 -5 c 0xb0
EndSplineSet
Validated: 1
EndChar

StartChar: three
Encoding: 51 51 29
Width: 509
GlyphClass: 2
Flags: MW
HStem: -12 60<186.5 208.5> 330 76<216.5 237> 650 60<314.5 328.5>
VStem: 354 74<214.5 271> 416 69<584.5 585.5>
LayerCount: 2
Fore
SplineSet
421 201 m 0xf0
 406 136 376 84 332 45 c 0
 290 7 239 -12 178 -12 c 0
 159 -12 141 -9 123 -2 c 0
 105 4 90 12 77 22 c 0
 64 32 53 44 44 56 c 0
 35 68 29 80 27 91 c 0
 26 96 25 101 25 107 c 0
 25 113 27 119 29 125 c 0
 34 135 40 142 48 146 c 0
 56 150 63 152 68 152 c 0
 70 152 73 151 75 151 c 0
 82 149 87 143 92 132 c 0
 101 110 115 90 135 73 c 0
 153 56 174 48 199 48 c 0
 235 48 267 60 295 84 c 0
 323 108 342 140 350 179 c 0
 352 194 354 208 354 221 c 0
 354 248 348 271 333 289 c 0
 311 316 268 330 206 330 c 0
 203 330 199 332 197 333 c 0
 195 334 192 337 190 341 c 0
 187 346 185 352 185 359 c 0
 185 361 186 365 186 368 c 0
 188 380 193 389 199 396 c 0
 205 403 212 406 221 406 c 0
 270 406 311 418 344 442 c 0
 380 466 403 501 412 546 c 0
 414 557 416 566 416 575 c 0xe8
 416 596 409 612 394 625 c 0
 374 642 347 650 310 650 c 0
 298 650 285 647 271 642 c 0
 266 640 260 636 254 632 c 0
 248 628 243 624 240 622 c 0
 237 620 233 614 227 608 c 2
 214 595 l 2
 212 593 208 587 203 580 c 0
 192 567 183 560 176 558 c 0
 174 558 172 557 170 557 c 0
 165 557 161 559 156 562 c 0
 154 564 151 566 150 568 c 0
 149 570 149 574 149 577 c 0
 149 588 154 600 163 615 c 0
 178 640 199 662 225 680 c 0
 238 689 254 697 271 702 c 0
 288 707 305 710 324 710 c 0
 388 710 434 695 460 666 c 0
 477 648 485 624 485 593 c 0
 485 576 482 556 477 535 c 0
 473 516 467 500 459 485 c 0
 451 470 442 458 432 448 c 0
 422 438 411 429 398 421 c 0
 385 413 373 408 361 403 c 0
 350 398 338 394 325 392 c 2
 277 381 l 1
 325 368 l 2
 346 363 363 356 377 348 c 0
 391 340 403 330 412 317 c 0
 423 302 428 283 428 259 c 0
 428 242 426 222 421 201 c 0xf0
EndSplineSet
Validated: 1
EndChar

StartChar: four
Encoding: 52 52 30
Width: 509
GlyphClass: 2
Flags: MW
HStem: 236 55<224.5 329 316 317>
VStem: 273 50 273 63<17 62 19 62>
LayerCount: 2
Fore
SplineSet
280 -1 m 0xa0
 275 5 273 11 273 17 c 2
 273 19 l 1
 278 40 286 78 297 134 c 2
 317 236 l 1
 265 236 l 2
 184 236 124 232 83 223 c 0
 79 223 75 222 72 222 c 0
 69 222 65 222 63 223 c 0
 59 225 56 228 54 231 c 0
 52 238 50 246 50 255 c 0
 50 260 52 266 53 274 c 0
 54 282 57 290 61 297 c 0
 72 315 95 345 132 387 c 0
 167 429 209 480 259 542 c 0
 309 604 347 650 371 679 c 0
 381 690 391 699 401 705 c 0
 411 711 420 713 427 713 c 2
 428 713 l 1
 434 713 l 2
 441 713 448 711 453 708 c 0
 458 705 460 699 460 691 c 2
 460 691 459 689 459 688 c 0
 458 665 452 629 443 581 c 0
 434 533 426 491 419 458 c 2
 383 291 l 1
 404 291 421 290 434 290 c 0
 444 290 450 287 452 285 c 0
 454 281 454 275 453 267 c 0
 451 256 446 247 441 242 c 0
 435 235 427 232 415 232 c 0
 403 232 388 233 371 234 c 1
 349 129 336 69 336 55 c 0
 336 36 331 20 323 7 c 0xc0
 316 -5 308 -11 299 -11 c 0
 292 -11 286 -8 280 -1 c 0xa0
398 640 m 1
 370 610 l 1
 261 481 183 380 137 308 c 2
 123 287 l 1
 148 289 l 2
 180 291 219 292 263 292 c 0
 281 292 303 291 329 291 c 1
 358 423 378 526 391 600 c 2
 398 640 l 1
EndSplineSet
Validated: 1
EndChar

StartChar: five
Encoding: 53 53 31
Width: 509
GlyphClass: 2
Flags: MW
HStem: -6 60<158.5 175.5> 433 64<280 340.5> 633 62<447.5 505.5 490 505.5> 639 61
VStem: 373 70<327 379.5>
LayerCount: 2
Fore
SplineSet
436 299 m 0xd8
 425 250 409 207 389 168 c 0
 370 129 348 97 325 72 c 0
 302 47 276 27 248 14 c 0
 220 1 191 -6 160 -6 c 0
 136 -6 113 -3 93 3 c 0
 72 9 56 17 44 26 c 0
 32 35 24 45 17 56 c 0
 10 67 4 78 1 89 c 0
 0 96 0 102 0 108 c 0
 0 114 0 121 2 126 c 0
 6 134 13 140 22 145 c 0
 33 150 41 152 45 152 c 0
 46 152 48 151 50 151 c 0
 52 151 55 150 56 148 c 0
 58 144 61 138 64 131 c 0
 75 103 91 83 112 70 c 0
 129 59 148 54 169 54 c 0
 214 54 256 75 292 117 c 0
 327 159 352 213 367 282 c 0
 371 302 373 319 373 335 c 0
 373 356 369 374 362 389 c 0
 355 405 345 417 330 424 c 0
 318 430 304 433 288 433 c 0
 272 433 255 430 238 426 c 0
 228 424 216 418 200 409 c 0
 196 407 190 403 183 398 c 0
 176 393 171 389 169 387 c 0
 167 385 158 376 143 363 c 0
 132 354 119 348 105 347 c 0
 104 347 103 346 102 346 c 0
 97 346 92 348 87 350 c 0
 80 353 77 364 77 383 c 0
 77 396 79 412 83 432 c 0
 87 452 92 473 98 494 c 0
 104 515 111 538 118 563 c 0
 125 588 129 606 131 619 c 1
 130 623 l 2
 128 627 127 632 127 638 c 0
 127 640 128 644 128 646 c 0
 128 656 131 665 135 673 c 0
 139 681 143 687 149 692 c 0
 155 697 161 700 166 700 c 0
 187 700 235 699 313 698 c 0
 394 697 457 696 501 696 c 0
 502 696 504 695 505 695 c 0xe8
 506 695 507 693 507 692 c 0
 509 687 511 682 511 676 c 2
 511 672 l 2
 511 664 508 657 506 650 c 0
 505 647 503 644 502 642 c 0
 501 640 499 637 497 636 c 0
 495 635 493 633 491 633 c 0
 489 633 485 631 482 631 c 2
 475 631 l 2
 474 631 470 632 465 632 c 0
 460 632 455 633 450 633 c 0
 445 633 432 634 411 636 c 0
 390 638 371 640 355 641 c 0
 339 642 318 643 289 643 c 0
 260 643 226 641 189 639 c 1
 186 626 181 604 173 572 c 0
 165 540 160 517 157 502 c 0
 154 487 148 454 138 403 c 1
 163 430 l 2
 183 450 206 465 235 478 c 0
 264 491 296 497 329 497 c 0
 352 497 372 492 388 482 c 0
 406 473 417 459 426 442 c 0
 437 421 443 395 443 364 c 0
 443 343 441 321 436 299 c 0xd8
EndSplineSet
Validated: 1
EndChar

StartChar: six
Encoding: 54 54 32
Width: 509
GlyphClass: 2
Flags: MW
HStem: -10 60<176.5 211> 405 64<274.5 341.5>
VStem: 43 58<186.5 192> 386 71<299 358>
LayerCount: 2
Fore
SplineSet
445 248 m 0
 437 213 423 178 404 146 c 0
 385 114 364 86 341 64 c 0
 320 42 297 23 271 10 c 0
 245 -3 219 -10 193 -10 c 0
 160 -10 131 -3 108 12 c 0
 85 27 69 48 59 75 c 0
 49 102 43 134 43 171 c 0
 43 213 50 260 63 313 c 0
 76 370 93 421 114 465 c 0
 135 509 157 547 179 578 c 0
 200 609 224 635 250 656 c 0
 276 677 304 693 332 704 c 0
 362 715 395 722 432 725 c 2
 439 725 l 2
 448 725 456 723 461 720 c 0
 463 719 464 716 465 714 c 0
 466 712 467 709 467 708 c 2
 467 704 l 2
 467 699 462 692 453 684 c 0
 444 676 436 670 427 668 c 0
 420 667 409 664 394 661 c 0
 379 658 366 654 355 651 c 0
 345 648 333 643 320 637 c 0
 293 624 263 601 232 567 c 0
 216 549 200 525 183 494 c 0
 166 463 153 436 144 412 c 2
 126 362 l 1
 164 399 l 2
 185 422 210 440 238 452 c 0
 266 464 297 469 329 469 c 0
 354 469 376 466 395 458 c 0
 414 450 427 438 438 421 c 0
 451 401 457 375 457 341 c 0
 457 314 453 283 445 248 c 0
202 378 m 0
 173 360 146 337 122 309 c 2
 120 307 l 1
 112 276 106 251 104 232 c 0
 102 221 101 209 101 197 c 0
 101 176 104 156 110 136 c 0
 115 120 121 105 130 92 c 0
 139 79 150 69 165 61 c 0
 178 54 193 50 209 50 c 2
 211 50 l 2
 233 50 257 59 279 78 c 0
 301 97 321 119 338 147 c 0
 357 175 369 203 376 232 c 0
 383 262 386 288 386 310 c 0
 386 335 381 355 371 369 c 0
 361 382 349 392 336 397 c 0
 323 402 308 405 289 405 c 0
 260 405 231 396 202 378 c 0
EndSplineSet
Validated: 1
EndChar

StartChar: seven
Encoding: 55 55 33
Width: 509
GlyphClass: 2
Flags: MW
HStem: 634 68
LayerCount: 2
Fore
SplineSet
496 631 m 0
 483 611 460 581 428 541 c 0
 397 501 364 459 333 417 c 0
 302 375 262 319 215 249 c 0
 168 179 121 107 74 33 c 0
 63 16 52 4 40 -3 c 0
 31 -8 24 -11 17 -11 c 2
 12 -11 l 2
 8 -10 4 -7 2 -4 c 0
 0 -1 -1 3 -1 9 c 0
 -1 15 2 24 8 37 c 0
 55 105 104 173 153 241 c 0
 200 309 240 362 271 403 c 0
 302 444 329 483 356 522 c 0
 383 561 404 592 417 616 c 2
 425 633 l 1
 405 634 l 2
 380 634.5 354.5 634.75 328.125 634.75 c 0
 301.75 634.75 274.5 634.5 246 634 c 0
 189 633 151 629 131 624 c 0
 129 624 127 623 126 623 c 0
 125 623 123 624 122 624 c 0
 120 625 117 628 116 630 c 0
 114 637 112 646 113 658 c 0
 115 666 120 673 125 679 c 0
 130 685 137 690 150 692 c 0
 181 699 233 702 303 702 c 0
 325 702 370 700 436 697 c 0
 468 696 485 695 487 695 c 0
 497 695 504 691 509 682 c 0
 510 680 512 676 512 673 c 0
 512 670 511 667 511 665 c 0
 510 656 505 644 496 631 c 0
EndSplineSet
Validated: 1
EndChar

StartChar: eight
Encoding: 56 56 34
Width: 509
GlyphClass: 2
Flags: MW
HStem: -16 61<193.5 198> 658 48<310.5 350.5 325 350.5>
VStem: 26 58<122.5 164> 133 60 383 67<217.5 249.5> 422 62<550 586>
LayerCount: 2
Fore
SplineSet
450 244 m 0xf8
 450 233 448 221 445 207 c 0
 435 163 415 122 384 85 c 0
 367 65 351 49 332 34 c 0
 313 19 291 7 265 -2 c 0
 239 -11 212 -16 184 -16 c 0
 155 -16 129 -12 108 -3 c 0
 87 6 70 16 59 29 c 0
 48 42 39 58 34 77 c 0
 29 96 26 113 26 132 c 0
 26 151 28 172 33 194 c 0
 38 215 48 237 64 262 c 0
 80 287 101 310 125 331 c 0
 147 353 171 368 193 376 c 2
 217 384 l 1
 195 398 l 2
 171 413 154 432 144 457 c 0
 137 473 133 489 133 505 c 0
 133 514 134 523 136 531 c 0
 138 539 141 547 144 556 c 0
 146 565 151 574 157 586 c 0
 163 598 168 609 175 620 c 0
 182 631 192 641 203 652 c 0
 214 663 225 672 238 680 c 0
 251 688 266 694 284 699 c 0
 302 704 320 706 340 706 c 0
 361 706 379 704 397 699 c 0
 415 694 429 688 439 681 c 0
 449 674 457 664 464 654 c 0
 471 644 477 634 479 624 c 0
 482 611 484 595 484 577 c 0xf4
 484 563 482 548 479 533 c 0
 478 526 475 519 472 512 c 0
 469 505 465 499 461 493 c 0
 457 487 451 481 445 475 c 0
 439 469 433 464 428 459 c 0
 420 452 404 441 381 426 c 2
 336 396 l 1
 354 386 l 2
 373 376 389 365 402 352 c 0
 415 339 425 327 432 315 c 0
 439 303 444 292 446 279 c 0
 448 266 450 255 450 244 c 0xf8
382 638 m 0
 365 651 347 658 326 658 c 2
 325 658 l 2
 296 658 270 646 244 622 c 0
 218 598 202 570 196 541 c 0
 194 534 193 527 193 521 c 0
 193 502 199 486 211 471 c 0
 226 453 252 435 289 417 c 2
 293 415 l 1
 297 416 l 1
 324 428 349 444 373 465 c 0
 400 486 415 506 419 526 c 0
 421 535 422 545 422 555 c 0
 422 565 420 576 417 587 c 0
 411 608 399 625 382 638 c 0
94 114 m 0
 105 92 120 74 141 63 c 0
 161 51 182 45 205 45 c 0
 222 45 239 49 257 55 c 0
 275 61 292 70 308 81 c 0
 324 92 338 107 351 126 c 0
 364 145 373 165 378 186 c 0
 381 199 383 212 383 223 c 0xf8
 383 233 381 244 378 257 c 0
 375 270 370 282 362 294 c 0
 355 306 344 318 330 330 c 0
 316 342 299 353 278 363 c 2
 275 365 l 1
 271 364 l 2
 227 351 188 328 155 295 c 0
 119 262 96 227 87 189 c 0
 85 179 84 169 84 159 c 0
 84 143 87 128 94 114 c 0
EndSplineSet
Validated: 1
EndChar

StartChar: nine
Encoding: 57 57 35
Width: 509
GlyphClass: 2
Flags: MW
HStem: 248 64<192 256> 667 60<300 345.5 311 345.5>
VStem: 72 68<412.5 427> 421 57<522.5 530.5>
LayerCount: 2
Fore
SplineSet
455 382 m 0
 442 330 425 283 404 241 c 0
 383 199 359 162 335 133 c 0
 312 104 286 79 258 58 c 0
 230 37 201 22 171 11 c 0
 139 0 105 -7 68 -10 c 0
 66 -10 64 -11 62 -11 c 0
 53 -11 46 -8 40 -5 c 0
 38 -4 35 -2 34 0 c 0
 33 2 33 6 33 10 c 0
 33 16 38 22 46 30 c 0
 54 38 64 44 73 46 c 0
 80 48 91 51 107 55 c 0
 123 59 139 62 152 65 c 0
 163 68 177 73 192 79 c 0
 225 92 255 114 284 145 c 0
 302 165 318 188 335 214 c 0
 352 241 366 265 375 286 c 2
 397 341 l 1
 355 300 l 2
 336 280 315 266 291 259 c 0
 267 252 238 248 203 248 c 0
 181 248 160 253 142 266 c 0
 122 279 107 295 96 316 c 0
 85 337 77 362 74 390 c 0
 73 399 72 408 72 417 c 0
 72 437 74 456 79 476 c 0
 88 512 100 546 119 577 c 0
 138 608 158 635 180 657 c 0
 201 679 224 696 250 708 c 0
 276 720 304 727 331 727 c 0
 360 727 385 721 406 710 c 0
 432 696 451 673 463 642 c 0
 473 615 478 583 478 546 c 0
 478 499 470 444 455 382 c 0
412 581 m 0
 407 597 401 611 392 624 c 0
 383 637 371 647 356 655 c 0
 343 663 328 667 312 667 c 2
 311 667 l 2
 289 667 265 659 242 642 c 0
 219 625 200 603 183 577 c 0
 166 551 154 523 148 494 c 0
 142 468 140 445 140 425 c 0
 140 400 145 378 154 361 c 0
 171 328 201 312 243 312 c 0
 269 312 296 319 323 333 c 0
 351 347 375 366 397 391 c 1
 400 393 l 1
 405 415 410 445 417 485 c 0
 419 496 421 508 421 520 c 0
 421 541 418 561 412 581 c 0
EndSplineSet
Validated: 1
EndChar

StartChar: colon
Encoding: 58 58 36
Width: 509
GlyphClass: 2
Flags: MW
HStem: 52 131<199.5 244 204 244> 319 131<269 305 269 305>
VStem: 170 108<80 151.5 84 151.5> 231 109<343 424 351 424>
LayerCount: 2
Fore
SplineSet
231 351 m 2xd0
 233 369 239 392 246 419 c 0
 247 426 250 432 254 436 c 0
 258 440 264 443 270 445 c 0
 280 448 289 450 298 450 c 2
 305 450 l 2
 315 450 324 448 332 443 c 0
 337 440 340 433 340 424 c 2
 340 419 l 1
 336 398 328 376 317 352 c 0
 312 341 305 332 295 327 c 0
 285 322 278 319 271 319 c 2
 269 319 l 2
 257 320 248 323 241 327 c 0
 237 329 234 331 233 334 c 0
 232 337 231 340 231 343 c 2
 231 351 l 2xd0
170 80 m 2xe0
 170 84 l 1
 175 110 l 2
 175 112 178 117 179 122 c 0
 180 127 183 137 188 152 c 0
 189 158 192 163 196 167 c 0
 200 171 205 175 210 177 c 0
 221 181 230 183 238 183 c 2
 244 183 l 2
 250 183 256 182 261 180 c 0
 266 178 269 175 273 170 c 0
 277 165 279 160 279 153 c 2
 279 153 278 152 278 151 c 0
 277 129 270 106 259 83 c 0
 254 73 246 65 235 60 c 0
 224 55 215 52 207 52 c 2
 204 52 l 2
 195 52 186 56 178 62 c 0
 173 67 170 73 170 80 c 2xe0
EndSplineSet
Validated: 1
EndChar

StartChar: semicolon
Encoding: 59 59 37
Width: 509
GlyphClass: 2
Flags: MW
HStem: 277 131<325 359 325 359>
VStem: 286 109<306 382 310 382>
LayerCount: 2
Fore
SplineSet
359 408 m 2
 368 408 378 406 387 401 c 0
 389 400 392 398 393 394 c 0
 394 390 395 386 395 382 c 2
 395 377 l 1
 391 356 383 334 372 310 c 0
 367 299 359 290 350 285 c 0
 341 280 333 277 326 277 c 2
 325 277 l 2
 309 279 297 285 290 294 c 0
 288 297 286 301 286 306 c 2
 286 310 l 2
 288 328 293 351 300 378 c 0
 302 384 306 390 310 394 c 0
 314 398 320 401 326 403 c 0
 332 405 337 407 342 407 c 0
 347 407 352 408 354 408 c 2
 359 408 l 2
307 77 m 0
 301 56 261 -30 187 -182 c 0
 182 -193 175 -201 167 -206 c 0
 159 -211 152 -213 145 -213 c 2
 143 -213 l 2
 134 -213 126 -210 120 -204 c 0
 118 -202 116 -198 116 -194 c 0
 116 -190 117 -187 118 -183 c 0
 123 -168 138 -129 164 -67 c 0
 190 -5 210 41 225 74 c 0
 229 83 232 90 236 95 c 0
 240 100 245 103 247 104 c 0
 254 106 260 107 265 107 c 0
 266 107 269 106 271 106 c 0
 282 106 292 104 301 99 c 0
 306 97 309 92 309 87 c 0
 309 85 308 81 307 77 c 0
EndSplineSet
Validated: 1
EndChar

StartChar: less
Encoding: 60 60 38
Width: 509
GlyphClass: 2
Flags: MW
HStem: 680 20G<479 485>
LayerCount: 2
Fore
SplineSet
508 669 m 0
 508 663 505 657 500 650 c 0
 491 639 474 626 451 611 c 0
 411 585 348 543 264 483 c 0
 180 423 121 383 90 362 c 1
 100 352 l 2
 120 332 141 307 164 279 c 0
 187 251 207 226 224 203 c 0
 241 180 259 155 280 131 c 0
 301 107 320 88 337 74 c 0
 357 58 366 45 366 35 c 0
 366 32 364 27 361 20 c 0
 358 15 354 10 348 7 c 0
 342 4 334 1 325 0 c 2
 319 0 l 2
 312 0 304 2 295 5 c 0
 282 10 267 21 249 38 c 0
 231 55 212 77 191 102 c 0
 170 127 151 152 131 178 c 0
 111 204 89 230 66 258 c 0
 43 286 24 308 7 324 c 0
 4 327 2 333 2 341 c 0
 2 351 4 361 9 370 c 0
 14 379 19 385 26 389 c 0
 68 418 118 454 175 496 c 0
 232 538 285 576 332 610 c 0
 379 644 420 671 455 691 c 0
 466 697 475 700 483 700 c 0
 487 700 491 700 493 698 c 0
 501 692 506 684 507 675 c 0
 507 673 508 671 508 669 c 0
EndSplineSet
Validated: 1
EndChar

StartChar: equal
Encoding: 61 61 39
Width: 509
GlyphClass: 2
Flags: MW
HStem: 259 50 259 58 455 61<144.5 149.5>
LayerCount: 2
Fore
SplineSet
150 516 m 2x20
 152 516.000976562 l 2
 188.318359375 514.829101562 228.068359375 514.34375 271.25 514.34375 c 0
 301.784179688 514.34375 334.034179688 514.5859375 368 515 c 0
 400 515 418 516 425 516 c 0
 435 516 442 515 443 513 c 0
 444 511 445 507 445 502 c 0
 445 495 443 487 440 479 c 0
 436 470 431 463 424 461 c 0
 421 460 418 459 416 459 c 2
 409 459 l 2
 395 459 382 460 370 460 c 2
 336 460 l 1
 233 457 l 2
 191 456 160 455 139 455 c 0
 128 455 119 458 114 463 c 0
 111 466 109 470 109 475 c 0
 109 477 110 480 110 482 c 0
 112 492 118 500 125 507 c 0
 132 513 139 516 150 516 c 2x20
110 317.000976562 m 2x60
 130 317.000976562 153 316.000976562 181 316.000976562 c 0
 209 316.000976562 242 318.000976562 282 318.000976562 c 2
 380 320.000976562 l 2
 391 320.000976562 397 318.000976562 398 316.000976562 c 0
 400 313.000976562 400 307.000976562 399 298.000976562 c 0
 397 288.000976562 394 280.000976562 389 273.000976562 c 0
 387 269.000976562 383 266.000976562 379 265.000976562 c 0
 375 264.000976562 372 264.000976562 370 264.000976562 c 2
 363 264.000976562 l 2
 348 264.000976562 331 265.000976562 311 265.000976562 c 0
 291 265.000976562 250 263.000976562 186 261.000976562 c 0
 142 260.000976562 109 259.000976562 89 259.000976562 c 0
 78 259.000976562 70 261.000976562 67 266.000976562 c 0
 65 269.000976562 64 273.000976562 64 278.000976562 c 0
 64 281.000976562 65 285.000976562 65 288.000976562 c 0
 66 296.000976562 71 303.000976562 79 309.000976562 c 0xa0
 87 315.000976562 96 317.000976562 108 317.000976562 c 2
 110 317.000976562 l 2x60
EndSplineSet
Validated: 1
EndChar

StartChar: greater
Encoding: 62 62 40
Width: 509
GlyphClass: 2
Flags: MW
HStem: 687 20G<185 191 191 194.5>
LayerCount: 2
Fore
SplineSet
191 707 m 2
 198 707 206 705 215 702 c 0
 228 697 243 686 262 669 c 0
 281 652 299 631 319 606 c 0
 339 581 359 555 379 529 c 0
 399 503 421 477 443 449 c 0
 465 421 486 399 503 383 c 0
 506 380 508 374 508 366 c 0
 508 356 506 346 501 337 c 0
 496 328 491 322 484 318 c 0
 442 290 392 254 335 212 c 0
 278 170 226 131 179 97 c 0
 132 63 90 36 55 16 c 0
 44 10 35 7 27 7 c 0
 22 7 19 7 17 9 c 0
 13 12 9 16 7 20 c 0
 5 24 3 26 3 30 c 0
 3 34 2 37 2 38 c 0
 2 44 5 50 10 57 c 0
 19 68 35 81 59 96 c 0
 100 122 163 164 247 224 c 0
 331 284 390 324 421 345 c 1
 410 355 l 2
 390 375 370 400 347 428 c 0
 324 456 304 481 287 504 c 0
 270 527 251 552 230 576 c 0
 209 600 191 619 173 633 c 0
 153 649 144 662 144 672 c 0
 144 677 146 682 149 687 c 0
 152 692 157 697 163 700 c 0
 169 703 176 706 185 707 c 2
 191 707 l 2
EndSplineSet
Validated: 1
EndChar

StartChar: question
Encoding: 63 63 41
Width: 509
GlyphClass: 2
Flags: MW
HStem: -2 130<97.5 161.5 105 161.5> 650 60<281 294>
VStem: 64 132<37.5 90.5> 377 69<578.5 582>
LayerCount: 2
Fore
SplineSet
446 588 m 0
 446 569 443 548 438 525 c 0
 434 508 427 493 419 479 c 0
 411 465 402 453 392 443 c 0
 382 433 370 424 357 415 c 0
 344 406 331 396 317 387 c 0
 303 378 291 368 278 357 c 0
 265 346 254 333 242 318 c 0
 230 303 221 286 214 267 c 0
 208 252 200 240 191 232 c 0
 186 227 180 225 173 225 c 0
 171 225 167 227 162 227 c 0
 157 228 152 231 149 233 c 0
 144 237 142 242 142 249 c 0
 142 259 146 272 153 287 c 0
 161 304 171 320 183 335 c 0
 195 350 205 364 217 375 c 0
 229 386 242 397 255 407 c 0
 268 417 281 427 293 436 c 0
 305 445 317 454 328 464 c 0
 339 474 348 485 356 497 c 0
 364 509 370 522 373 535 c 0
 376 548 377 560 377 571 c 0
 377 593 371 610 359 623 c 0
 341 641 313 650 275 650 c 0
 265 650 255 648 244 643 c 0
 233 638 223 633 215 627 c 0
 207 621 198 613 188 604 c 0
 178 595 170 587 165 581 c 0
 160 575 153 567 145 558 c 0
 132 543 122 534 115 534 c 0
 114 534 111 533 110 533 c 0
 109 533 106 534 104 535 c 0
 102 536 97 538 92 540 c 0
 87 543 84 548 84 555 c 0
 84 564 89 576 100 592 c 0
 120 619 146 645 177 669 c 0
 193 681 211 691 231 699 c 0
 251 707 271 710 291 710 c 0
 354 710 398 695 423 664 c 0
 438 645 446 620 446 588 c 0
196 85 m 0
 196 80 195 74 194 68 c 0
 190 49 181 34 166 21 c 0
 151 8 133 0 113 -2 c 2
 105 -2 l 2
 90 -2 80 3 73 13 c 0
 67 22 64 32 64 43 c 0
 64 48 65 54 66 61 c 0
 71 79 81 94 98 107 c 0
 116 121 134 128 154 128 c 0
 169 128 181 123 188 113 c 0
 193 105 196 96 196 85 c 0
EndSplineSet
Validated: 1
EndChar

StartChar: at
Encoding: 64 64 42
Width: 509
GlyphClass: 2
Flags: MW
HStem: -117 61<135 182.5 150 182.5> 114 53<348.5 379.5> 130 56<213.5 221.5> 394 52<282 311.5 282 311.5> 625 65<334.5 371 348 364>
VStem: -4 60<100 118.5> 127 53<198 229> 312 33 463 51<460 533.5>
LayerCount: 2
Fore
SplineSet
386 49 m 2xdf80
 386 47 384 42 382 36 c 0
 380 30 376 22 370 12 c 0
 365 3 360 -6 355 -13 c 0
 350 -20 344 -28 336 -38 c 0
 328 -48 320 -55 312 -62 c 0
 304 -69 295 -77 283 -84 c 0
 271 -91 259 -97 247 -102 c 0
 235 -107 220 -111 204 -113 c 0
 188 -115 172 -117 155 -117 c 2
 150 -117 l 2
 120 -117 93 -109 71 -93 c 0
 49 -77 31 -55 18 -26 c 0
 3 8 -4 50 -4 99 c 0
 -4 138 0 180 11 225 c 0
 25 283 42 338 62 388 c 0
 82 438 103 481 126 518 c 0
 149 555 176 586 202 612 c 0
 228 638 255 658 282 671 c 0
 309 684 335 690 361 690 c 0
 381 690 399 689 414 686 c 0
 429 683 444 677 456 669 c 0
 468 661 478 652 486 640 c 0
 494 628 501 611 506 591 c 0
 511 571 514 547 514 520 c 0
 514 463 503 388 482 295 c 0
 471 248 455 206 434 171 c 0
 423 153 411 139 398 129 c 0
 385 119 371 114 357 114 c 0
 340 114 328 119 321 128 c 0
 315 136 312 148 312 163 c 0
 312 169 312 176 313 184 c 2
 322 251 l 1
 290 192 l 2
 268 150 239 130 204 130 c 0xbf80
 172 130 150 140 138 161 c 0
 131 173 127 188 127 208 c 0
 127 225 130 245 135 268 c 0
 140 291 148 312 158 333 c 0
 168 354 178 370 190 384 c 0
 202 398 215 410 228 420 c 0
 241 430 255 436 268 440 c 0
 281 444 293 446 304 446 c 0
 319 446 334 443 348 436 c 0
 359 431 367 425 372 417 c 0
 373 414 374 411 374 409 c 0
 374 407 373 405 372 403 c 0
 366 394 360 389 354 387 c 0
 349 386 344 385 341 385 c 0
 336 385 325 387 309 392 c 0
 302 393 296 394 292 394 c 2
 282 394 l 2
 272 393 262 389 252 383 c 0
 242 377 233 371 225 362 c 0
 217 353 209 343 202 329 c 0
 195 315 190 300 186 283 c 0
 182 266 180 252 180 241 c 2
 180 229 l 2
 180 217 184 207 190 199 c 0
 197 190 207 186 220 186 c 0
 243 186 262 195 277 215 c 0
 290 233 302 261 312 301 c 0
 313 307 321 313 334 318 c 0
 344 322 352 324 359 324 c 0
 363 324 367 323 369 322 c 2
 370 321 l 1
 370 321 369 319 369 317 c 0
 357 281 349 253 347 232 c 0
 346 222 345 213 345 205 c 0
 345 197 346 191 348 186 c 0
 350 179 355 174 360 171 c 0
 365 169 370 167 375 167 c 0xdf80
 384 167 393 173 401 186 c 0xbf80
 407 196 413 208 418 223 c 0
 427 248 434 272 439 293 c 0
 446 327 453 360 457 391 c 0
 461 422 463 449 463 471 c 0
 463 489 461 506 458 522 c 0
 455 538 452 552 448 563 c 0
 444 574 438 584 430 592 c 0
 422 600 415 607 408 611 c 0
 401 615 394 619 385 621 c 0
 376 623 369 625 364 625 c 2
 348 625 l 2
 321 625 294 617 267 599 c 0
 240 581 214 557 190 526 c 0
 166 495 144 457 124 413 c 0
 104 369 88 320 76 267 c 0
 63 208 56 156 56 112 c 0
 56 88 58 68 62 51 c 0
 68 27 77 6 88 -11 c 0
 99 -28 112 -39 126 -46 c 0
 140 -53 157 -56 174 -56 c 0
 191 -56 208 -54 223 -51 c 0
 238 -48 250 -43 261 -38 c 0
 272 -33 282 -26 293 -18 c 0
 304 -10 312 -1 318 6 c 0
 324 13 332 22 340 32 c 0
 345 39 349 44 353 48 c 0
 358 54 362 58 364 59 c 0
 366 59 368 61 370 62 c 0
 372 63 375 63 377 62 c 0
 379 61 382 59 383 58 c 0
 384 57 386 53 386 51 c 2
 386 49 l 2xdf80
370 321 m 1024
EndSplineSet
Validated: 1
EndChar

StartChar: A
Encoding: 65 65 43
Width: 509
GlyphClass: 2
Flags: MW
HStem: 276 43<399 399 399 409>
VStem: 404 72<66 126> 409 57 423 62
LayerCount: 2
Fore
SplineSet
396 276 m 1xa0
 321 273 251 265 189 253 c 1
 156 196 122 131 87 58 c 0
 78 40 69 28 58 23 c 0
 53 21 47 19 43 19 c 0
 39 19 36 20 33 21 c 0
 30 22 27 25 26 28 c 0
 25 31 24 35 24 39 c 0
 24 49 29 63 37 81 c 0
 46 102 76 157 130 245 c 1
 128 256 125 258 123 252 c 1
 118 255 116 259 116 263 c 0
 116 264 117 266 117 268 c 0
 118 275 122 282 131 289 c 0
 140 296 151 301 162 305 c 1
 163 314 165 315 166 307 c 1
 275 499 356 627 409 691 c 0
 420 704 430 712 437 717 c 0
 444 722 451 725 457 725 c 2
 458 725 l 1
 462 725 l 2
 469 725 474 723 479 720 c 0
 483 718 485 712 485 705 c 2x90
 485 700 l 1
 478 617 474 500 470 348 c 0
 468 289 466 241 466 201 c 0xa0
 466 137 469 98 473 84 c 0
 475 78 476 72 476 68 c 0xc0
 476 64 475 60 474 56 c 0
 471 47 465 41 460 35 c 0
 455 29 449 24 442 22 c 0
 437 20 434 19 431 19 c 0
 427 19 422 20 419 22 c 0
 412 26 407 37 405 54 c 0
 405 62 404 81 404 111 c 0
 404 141 407 197 409 276 c 1
 405 285 401 285 396 276 c 1xa0
400 610 m 2
 363 565 307 470 232 324 c 1
 222 303 l 1
 244 306 l 2
 302 313 353 318 399 319 c 2
 411 320 l 1
 423 637 l 1
 400 610 l 2
EndSplineSet
Validated: 1
EndChar

StartChar: B
Encoding: 66 66 44
Width: 509
GlyphClass: 2
Flags: MW
HStem: 310 47<231 235 235 236> 642 43<307 324 324 327>
VStem: 391 72<211 215.5 211 215.5> 433 62<533.5 538.5>
LayerCount: 2
Fore
SplineSet
461 201 m 2xd0
 456 177 445 153 428 130 c 0
 411 107 389 85 364 65 c 0
 340 45 310 28 276 14 c 0
 242 0 206 -10 167 -14 c 1
 160.8125 -19.0625 154.625 -21.59375 148.4375 -21.59375 c 2
 134 -17 l 1
 127.8125 -22.0625 121.94140625 -24.59375 116.03125 -24.59375 c 0
 111.43359375 -24.59375 106.8125 -23.0625 102 -20 c 0
 82 -22 68 -23 58 -23 c 0
 52 -23 46 -22 40 -21 c 2
 38 -21 l 1
 35 -21 l 2
 27 -21 21 -18 18 -13 c 0
 16 -11 15 -7 15 -2 c 0
 15 3 16 8 18 14 c 0
 27 42 40 95 57 174 c 0
 74 253 91 335 107 419 c 0
 116 463 123 493 126 508 c 0
 129 523 134 544 141 570 c 0
 146 579 150 597 155 623 c 0
 158 639 164 651 172 658 c 0
 180 665 188 669 197 669 c 2
 201 669 l 1
 202 669 l 2
 213 672 223 675 233 677 c 0
 252 681 269 684 286 684 c 0
 295 684 302 685 307 685 c 2
 324 685 l 1
 334 685 l 2
 371 685 403 678 430 662 c 0
 457 646 475 624 486 595 c 0
 492 578 495 561 495 541 c 0
 495 526 493 509 489 492 c 0
 481 455 466 423 444 397 c 0
 422 371 396 352 367 340 c 1
 358 329 350 325 341 329 c 1
 347.459960938 320.38671875 353.405273438 315.89453125 359.57421875 315.89453125 c 0
 362 315.89453125 364.459960938 316.588867188 367 318 c 0
 384 311 401 300 417 287 c 0
 433 274 445 259 454 242 c 0
 460 231 463 220 463 211 c 2xe0
 461 201 l 2xd0
221 629 m 2
 215 627 l 1
 197 553 185 501 178 470 c 0
 171 439 164 402 155 360 c 1
 190 358 219 357 243 357 c 0
 261 357 278 359 293 362 c 0
 308 365 322 369 333 375 c 0
 344 381 355 388 365 397 c 0
 375 406 384 414 391 423 c 0
 398 432 404 441 409 451 c 0
 414 461 418 471 421 479 c 0
 424 487 428 496 430 506 c 0
 432 516 433 525 433 534 c 0xd0
 433 543 432 550 431 557 c 0
 428 574 422 587 413 598 c 0
 404 609 394 617 381 624 c 0
 361 636 339 642 315 642 c 0
 284 642 252 638 221 629 c 2
359 261 m 0
 348 271 332 280 311 289 c 0
 290 298 265 305 236 310 c 1
 235 310 l 2
 193 310 164 308 145 308 c 1
 123 194 106 109 95 54 c 1
 112 55 128 56 143 56 c 0
 158 56 169 57 176 57 c 0
 203 58 229 64 255 74 c 0
 281 84 303 94 321 108 c 0
 339 122 354 137 366 152 c 0
 379 167 387 182 390 196 c 0
 390 199 391 203 391 206 c 0xe0
 391 225 380 243 359 261 c 0
EndSplineSet
Validated: 1
EndChar

StartChar: C
Encoding: 67 67 45
Width: 509
GlyphClass: 2
Flags: MW
HStem: -31 67<118 168 129 168> 654 59<381 385.5> 701 21G
VStem: -17 77<126.5 190.5>
LayerCount: 2
Fore
SplineSet
136 -31 m 2xd0
 129 -31 l 2
 107 -31 87 -27 68 -18 c 0
 49 -9 34 2 22 17 c 0
 10 32 1 49 -6 70 c 0
 -13 91 -17 114 -17 139 c 0
 -17 159 -15 179 -10 200 c 0
 1 249 16 297 36 343 c 0
 56 389 77 432 101 469 c 0
 123 506 147 540 173 571 c 0
 199 602 225 627 250 648 c 0
 275 669 301 685 325 696 c 0
 349 707 371 713 391 713 c 0
 412 713 430 710 447 705 c 1
 450 711 454 710 457 701 c 1xb0
 459 712 461 716 462 711 c 1
 466 720 471 727 478 732 c 0
 485 737 491 740 498 740 c 2
 503 741 l 2
 508 741 513 739 518 735 c 0
 524 730 527 723 527 713 c 0
 527 697 525 678 521 656 c 0
 520 647 518 635 514 621 c 0
 510 607 507 598 507 596 c 0
 505 583 497 570 486 557 c 0
 475 544 466 537 459 537 c 2
 454 537 l 2
 447 537 441 539 436 544 c 0
 432 547 430 552 430 558 c 0
 430 559 431 562 431 565 c 0
 432 571 437 588 444 616 c 0
 443 623 441 625 439 621 c 1
 436 623 430 629 421 637 c 0
 419 639 415 642 410 645 c 0
 401 651 391 654 380 654 c 0
 360 654 337 647 313 632 c 0
 289 617 265 596 241 570 c 0
 217 544 192 514 170 481 c 0
 148 448 127 409 109 367 c 0
 89 325 75 281 66 239 c 0
 62 219 60 200 60 181 c 0
 60 169 61 157 63 145 c 0
 67 114 77 88 95 68 c 0
 112 47 133 36 158 36 c 0
 178 36 196 38 216 43 c 0
 236 48 253 54 269 62 c 0
 285 70 299 76 311 84 c 0
 323 92 334 100 345 109 c 0
 353 114 360 119 365 121 c 0
 370 123 375 125 380 125 c 0
 383 125 386 124 388 122 c 0
 392 117 394 113 394 108 c 0
 394 97 386 82 369 64 c 0
 309 1 232 -31 136 -31 c 2xd0
EndSplineSet
Validated: 1
EndChar

StartChar: D
Encoding: 68 68 46
Width: 509
GlyphClass: 2
Flags: MW
HStem: -31 61<220.5 267 233 267> 712 21G<217 221 217 217>
VStem: 217 4<688 688 712 712> 436 65<341 379>
LayerCount: 2
Fore
SplineSet
221 712 m 1
 217 712 l 1
 218 726 220 732 221 730 c 2
 221 712 l 1
221 687 m 1
 232 686 245 683 258 680 c 0
 275 676 291 671 308 664 c 0
 325 657 342 647 361 635 c 0
 380 623 397 609 414 593 c 0
 431 577 445 557 459 533 c 0
 473 509 483 484 490 457 c 0
 497 430 501 398 501 363 c 0
 501 319 496 272 484 222 c 0
 478 200 470 176 459 153 c 0
 448 130 435 107 418 85 c 0
 401 63 384 43 365 26 c 0
 347 9 327 -6 306 -16 c 0
 285 -26 262 -31 241 -31 c 2
 233 -31 l 2
 208 -31 183 -29 158 -27 c 0
 133 -25 113 -21 97 -17 c 0
 81 -13 66 -9 53 -5 c 0
 40 -1 32 0 29 0 c 0
 21 0 15 3 12 8 c 0
 10 10 9 15 9 20 c 0
 9 25 10 30 12 36 c 0
 21 68 35 125 54 207 c 0
 73 289 90 377 109 472 c 0
 116 509 122 533 125 545 c 0
 128 557 132 575 138 600 c 0
 144 625 148 640 149 645 c 0
 152 660 158 672 166 679 c 0
 174 686 182 690 191 690 c 0
 199 690 208 689 217 688 c 1
 212 654 206 628 200 611 c 0
 179 525 160 433 143 338 c 0
 135 287 127 243 118 208 c 0
 106 151 97 104 90 69 c 0
 92 60 96 58 98 65 c 1
 121 52 145 43 170 38 c 0
 195 33 225 30 258 30 c 0
 276 30 294 36 312 50 c 0
 330 64 346 81 360 102 c 0
 374 123 386 145 398 169 c 0
 410 193 419 218 424 241 c 0
 432 275 436 307 436 337 c 0
 436 421 407 489 347 540 c 0
 322 562 283 586 232 611 c 1
 232 616 l 1
 229 616 l 1
 229 617 l 1
 227 617 l 1
 227 618 l 1
 225 618 l 1
 225 619 l 1
 221 619 l 1
 221 687 l 1
EndSplineSet
Validated: 1
EndChar

StartChar: E
Encoding: 69 69 47
Width: 509
GlyphClass: 2
Flags: MW
HStem: -20 63<58 138.5> -6 66<327.5 374 334 374> 312 62<115 153> 332 57<406.5 436> 615 59<359 380.5 335 387>
VStem: -20 77<27.5 74.5>
LayerCount: 2
Fore
SplineSet
346 -6 m 2x4c
 334 -6 l 2
 321 -6 300 -7 269 -9 c 0
 174 -16 106 -20 68 -20 c 0xac
 48 -20 34 -19 21 -18 c 0
 10 -18 1 -11 -8 0 c 0
 -15 9 -20 21 -20 34 c 0
 -20 47 -13 81 0 136 c 0
 10 180 21 228 34 279 c 0
 47 330 58 388 71 451 c 0
 79 491 85 517 88 530 c 0
 91 543 96 562 103 587 c 0
 110 612 113 627 114 634 c 0
 118 649 124 660 132 668 c 0
 140 676 149 680 158 680 c 1
 159 672 161 672 162 680 c 0
 166 680 169 679 172 678 c 0
 175 677 178 674 179 670 c 0
 180 659 182 656 183 661 c 1
 185 654 188 654 190 663 c 1
 238 670 299 674 371 674 c 0
 390 674 406 673 423 673 c 0
 459 672 487 669 508 667 c 0
 519 665 526 662 528 659 c 0
 528 658 529 655 529 653 c 0
 529 651 528 647 528 643 c 0
 528 639 526 634 524 630 c 0
 519 621 514 614 507 612 c 0
 504 610 501 609 499 609 c 0
 497 609 495 610 493 610 c 0
 450 613 408 615 366 615 c 0
 352 615 337 614 322 614 c 0
 267 613 220 609 178 602 c 1
 176 593 172 593 170 601 c 1
 150 526 134 450 118 373 c 1
 123 366 127 366 132 374 c 1
 174 374 233 376 306 381 c 0
 380 386 421 389 431 389 c 0x1c
 441 389 447 386 449 384 c 0
 451 380 451 374 450 366 c 0
 448 355 443 346 438 341 c 0
 432 335 423 332 412 332 c 0
 401 332 355 329 276 322 c 0
 197 315 144 312 115 312 c 1xac
 112 303 107 303 105 311 c 1
 95 267 87 225 78 184 c 0
 64 122 57 82 57 67 c 0
 57 63 58 57 58 50 c 0
 60 41 63 41 65 48 c 1
 70 46 77 44 87 44 c 0
 96 44 110 43 129 43 c 0
 148 43 174 44 206 45 c 0
 281 49 331 53 354 58 c 0
 362 59 368 60 372 60 c 0
 376 60 380 59 382 58 c 0
 384 57 386 55 387 54 c 0
 388 53 389 50 389 47 c 0
 389 44 390 41 390 39 c 0
 390 37 389 33 389 31 c 0
 387 20 382 11 374 3 c 0
 369 -4 361 -7 352 -7 c 0
 350 -7 348 -6 346 -6 c 2x4c
EndSplineSet
Validated: 1
EndChar

StartChar: F
Encoding: 70 70 48
Width: 509
GlyphClass: 2
Flags: MW
HStem: 323 60<218 231> 619 63
LayerCount: 2
Fore
SplineSet
515 677 m 0
 526 676 532 673 533 671 c 0
 535 668 536 662 535 654 c 0
 533 645 527 636 520 629 c 0
 514 622 506 619 495 619 c 2
 493 619 l 2
 460 621 426 622 391 622 c 0
 326 622 254 618 175 611 c 1
 159 544 148 498 142 472 c 0
 136 446 129 414 121 376 c 1
 126 369 132 369 137 378 c 1
 162 381 189 383 218 383 c 2
 239 383 l 2
 276 382 309 379 339 376 c 0
 369 373 392 370 409 367 c 0
 415 366 419 363 422 362 c 0
 425 361 428 359 428 359 c 2
 429 357 430 354 430 350 c 2
 430 344 l 2
 428 335 423 326 417 319 c 0
 413 313 406 310 397 310 c 2
 395 310 l 2
 378 313 352 317 320 319 c 0
 288 321 251 323 211 323 c 0
 173 323 142 320 116 316 c 1
 114 307 111 307 109 315 c 1
 89 207 69 107 49 15 c 0
 45 4 38 -5 28 -12 c 0
 18 -19 8 -22 -2 -22 c 0
 -3 -22 -5 -21 -5 -21 c 2
 -13 -21 -19 -18 -22 -13 c 0
 -24 -11 -25 -7 -25 -2 c 0
 -25 3 -24 8 -22 14 c 0
 -13 43 -1 100 18 183 c 0
 37 266 55 352 72 440 c 0
 81 484 88 515 91 530 c 0
 94 545 98 565 105 591 c 0
 110 601 115 619 120 645 c 0
 123 660 129 672 137 679 c 0
 145 686 154 690 163 690 c 2
 167 690 l 2
 172 690 175 689 178 688 c 0
 181 687 184 684 185 680 c 0
 185 669 187 667 188 672 c 1
 264 679 335 682 401 682 c 0
 446 682 484 680 515 677 c 0
EndSplineSet
Validated: 1
EndChar

StartChar: G
Encoding: 71 71 49
Width: 509
GlyphClass: 2
Flags: MW
HStem: -31 67<119 168 130 168> 289 59<380.5 421> 666 58<385.5 389.5>
VStem: -16 78<126.5 190.5>
LayerCount: 2
Fore
SplineSet
506 687 m 0
 514 682 519 677 521 674 c 0
 524 669 525 664 525 658 c 0
 525 650 523 640 517 629 c 0
 515 623 508 618 501 615 c 0
 497 614 494 613 492 613 c 0
 490 613 486 615 482 615 c 0
 479 616 472 621 461 630 c 0
 450 639 437 647 423 654 c 0
 409 662 396 666 383 666 c 0
 363 666 341 658 317 643 c 0
 293 628 269 607 244 580 c 0
 219 553 194 522 172 487 c 0
 150 452 129 413 111 370 c 0
 91 327 76 283 67 239 c 0
 63 219 62 200 62 181 c 0
 62 169 62 157 64 145 c 0
 68 114 80 89 97 68 c 0
 115 47 135 36 160 36 c 0
 176 36 192 42 210 54 c 0
 228 66 246 80 261 97 c 0
 276 114 291 132 306 153 c 0
 321 174 334 195 345 215 c 0
 356 235 366 253 373 270 c 0
 375 275 378 281 380 289 c 1
 373 287 367 287 361 288 c 0
 324 286 288 282 251 276 c 0
 214 270 188 263 172 254 c 0
 169 252 166 250 164 250 c 0
 162 250 160 251 158 253 c 0
 154 257 151 262 151 268 c 2
 151 270 l 2
 152 291 165 308 190 320 c 0
 207 329 243 337 296 342 c 0
 336 346 368 348 393 348 c 0
 419 348 434 347 440 345 c 2
 446 341 l 2
 448 339 450 336 450 331 c 2
 450 328 l 2
 449 318 446 310 442 304 c 0
 438 298 433 293 426 291 c 0
 424 289 422 289 420 289 c 0
 419 282 417 275 414 266 c 0
 411 257 409 249 408 244 c 0
 403 230 396 214 387 195 c 0
 378 176 366 157 352 136 c 0
 338 115 323 94 305 74 c 0
 287 54 269 36 250 20 c 0
 231 4 212 -9 191 -18 c 0
 170 -27 151 -31 132 -31 c 2
 130 -31 l 2
 108 -31 88 -27 69 -18 c 0
 50 -9 36 2 24 17 c 0
 12 32 3 49 -4 70 c 0
 -11 91 -16 114 -16 139 c 0
 -16 159 -13 179 -8 200 c 0
 4 251 19 300 39 347 c 0
 59 394 80 437 104 475 c 0
 126 513 150 548 176 580 c 0
 202 612 227 638 253 659 c 0
 279 680 304 696 328 707 c 0
 352 718 375 724 396 724 c 0
 418 724 445 718 472 705 c 0
 487 698 498 692 506 687 c 0
EndSplineSet
Validated: 1
EndChar

StartChar: H
Encoding: 72 72 50
Width: 509
GlyphClass: 2
Flags: MW
HStem: 312 62<124 166.5 124 166.5>
LayerCount: 2
Fore
SplineSet
124 312 m 1
 122 304 120 297 119 293 c 0
 118 289 116 285 116 282 c 0
 97 215 77 126 55 15 c 0
 51 4 44 -5 34 -12 c 0
 24 -19 13 -22 4 -22 c 0
 3 -22 1 -21 1 -21 c 2
 -6 -21 -12 -18 -16 -13 c 0
 -18 -11 -19 -7 -19 -2 c 0
 -19 3 -18 8 -16 14 c 0
 -11 31 0 76 17 148 c 0
 26 186 40 248 62 334 c 0
 73 376 81 407 86 428 c 0
 91 449 97 479 106 520 c 0
 113 554 118 573 118 577 c 0
 120 586 122 597 126 612 c 0
 130 627 132 638 134 645 c 0
 138 660 145 672 153 679 c 0
 161 686 170 690 179 690 c 1
 179 682 181 682 181 690 c 1
 189 690 195 688 199 683 c 0
 201 680 203 675 203 670 c 0
 203 665 202 659 201 653 c 0
 200 647 195 633 189 611 c 0
 183 589 178 569 174 550 c 0
 170 531 165 506 158 470 c 0
 151 434 145 402 138 373 c 1
 143 366 146 366 151 374 c 1
 182 374 214 375 247 379 c 0
 280 383 309 388 336 392 c 0
 363 396 384 399 399 400 c 1
 401 411 403 421 404 430 c 0
 405 439 408 445 409 450 c 0
 415 470 420 497 426 533 c 0
 429 546 435 566 442 594 c 0
 449 622 455 639 456 645 c 0
 460 660 466 672 475 679 c 0
 484 686 492 690 501 690 c 1
 501 682 503 682 504 690 c 1
 513 690 520 688 524 683 c 0
 526 680 528 675 528 670 c 0
 528 665 527 657 525 648 c 0
 523 639 517 616 507 576 c 0
 497 536 489 502 482 472 c 0
 475 442 466 399 454 343 c 0
 445 297 430 236 410 161 c 0
 391 85 380 36 375 15 c 0
 372 4 365 -5 356 -12 c 0
 347 -19 338 -22 329 -22 c 0
 328 -22 326 -21 326 -21 c 2
 319 -21 313 -18 310 -13 c 0
 309 -11 307 -7 307 -2 c 0
 307 3 308 8 310 14 c 0
 336 107 360 211 384 327 c 1
 384 325 387 330 388 343 c 1
 383 334 378 334 373 342 c 1
 363 342 326 337 264 327 c 0
 202 317 156 312 131 312 c 2
 124 312 l 1
EndSplineSet
Validated: 1
EndChar

StartChar: I
Encoding: 73 73 51
Width: 509
GlyphClass: 2
Flags: MW
HStem: -14 56<-5 18> -6 53<247.501 249.5 225 264.501> 625 59<160.5 162 162 167 160.5 205>
LayerCount: 2
Fore
SplineSet
288 -7 m 0x60
 284 -7 273.000976562 -6 256.000976562 -6 c 0
 239.000976562 -6 217.000976562 -7 188.000976562 -8 c 1
 167.256835938 -13.333984375 146.512695312 -16.208984375 125.768554688 -16.208984375 c 2
 83 -12 l 1
 43 -13 16 -14 2 -14 c 0xa0
 -12 -14 -20 -12 -24 -8 c 0
 -26 -6 -27 -2 -27 1 c 0
 -27 3 -26 6 -26 8 c 0
 -25 17 -21 26 -14 32 c 0
 -7 38 5 42 18 42 c 0
 45 43 92 45 160 47 c 1x60
 192 166 220 290 245 418 c 0
 251 448 254 465 254 470 c 0
 256 481 261 501 268 532 c 0
 270 541 273 555 278 575 c 0
 283 595 288 607 288 610 c 1
 288 607 290 611 291 624 c 1
 255 624 226 625 205 625 c 2
 162 625 l 2
 154 625 148 624 148 624 c 2
 138 624 131 626 128 631 c 0
 126 633 125 637 125 642 c 2
 125 649 l 2
 126 658 131 666 138 673 c 0
 145 680 154 684 167 684 c 0
 216 685 261 686 303 686 c 0
 386 686 456 683 514 676 c 0
 522 676 528 673 532 670 c 0
 536 667 538 663 538 657 c 0
 538 655 537 652 537 650 c 0
 535 641 529 631 521 622 c 0
 518 618 514 615 509 613 c 0
 506 612 503 611 501 611 c 0
 499 611 498 612 496 612 c 0
 479 614 431 618 354 623 c 1
 349 596 345 578 341 568 c 0
 325 504 310 436 297 365 c 0
 288 318 275 258 258 188 c 0
 241 118 230 71 225 47 c 1
 238 47 l 2
 261 47 308 46 377 46 c 0
 386 46 393 44 394 42 c 0xa0
 395 40 396 36 396 31 c 2
 396 23 l 2
 394 13 389 5 384 -2 c 0
 382 -6 379 -8 376 -9 c 0
 373 -10 370 -12 368 -12 c 0
 366 -12 363 -11 361 -11 c 0
 346 -9 323 -7 288 -7 c 0x60
EndSplineSet
Validated: 1
EndChar

StartChar: J
Encoding: 74 74 52
Width: 509
GlyphClass: 2
Flags: MW
HStem: -35 77<144 151.5> 611 65<485 503> 625 59<148 152 152 154 148 210>
VStem: -13 63<150 170.5 159.5 161.5>
LayerCount: 2
Fore
SplineSet
175 52 m 0xb0
 181 59 187 69 194 83 c 0
 207 112 222 159 237 224 c 0
 240 237 251 284 267 366 c 0
 283 445 300 531 321 623 c 1
 274 625 238 625 210 625 c 2
 152 625 l 2
 141 625 136 624 136 624 c 2
 126 624 119 626 116 631 c 0
 114 633 111 637 111 642 c 0
 111 644 112 647 112 649 c 0
 113 658 118 666 125 673 c 0
 132 680 142 684 154 684 c 0
 203 685 248 686 289 686 c 0
 371 686 441 683 499 676 c 0xd0
 507 676 513 673 517 670 c 0
 521 667 522 663 522 657 c 0
 522 655 521 652 521 650 c 0
 519 641 514 631 506 622 c 0
 502 618 499 615 494 613 c 0
 492 612 488 611 486 611 c 0
 484 611 481 612 479 612 c 0
 458 615 424 619 373 621 c 1
 367 595 360 563 353 523 c 0
 347 479 340 443 333 416 c 0
 327 384 320 349 312 309 c 0
 304 269 296 235 288 206 c 0
 271 146 253 98 236 62 c 0
 219 26 204 0 189 -14 c 0
 174 -28 159 -35 144 -35 c 0
 126 -35 108 -31 92 -24 c 0
 75 -17 61 -7 50 5 c 0
 39 17 29 31 20 46 c 0
 11 61 5 76 0 91 c 0
 -5 106 -9 118 -10 129 c 0
 -11 140 -13 146 -13 150 c 2
 -13 159 l 2
 -13 164 -11 170 -9 177 c 0
 -7 184 -4 191 -1 197 c 0
 2 203 6 209 12 213 c 0
 18 217 25 221 32 222 c 0
 35 222 38 223 40 223 c 0
 45 223 49 221 51 218 c 0
 53 215 55 210 55 205 c 0
 55 203 54 199 54 196 c 0
 52 187 50 176 50 165 c 0
 50 154 52 142 55 128 c 0
 58 114 63 100 70 87 c 0
 77 74 89 64 104 55 c 0
 118 46 134 42 154 42 c 0
 161 42 169 45 175 52 c 0xb0
EndSplineSet
Validated: 1
EndChar

StartChar: K
Encoding: 75 75 53
Width: 509
GlyphClass: 2
Flags: MW
HStem: -22 21G<15.5 21> 695 20G<501.999 504.999>
LayerCount: 2
Fore
SplineSet
-7 10 m 0
 -7 13 -6.0009765625 18 -4.0009765625 23 c 0
 4.9990234375 53 17.9990234375 110 36.9990234375 193 c 0
 54.9990234375 277 71.9990234375 363 89.9990234375 452 c 0
 98.9990234375 496 105.999023438 526 108.999023438 541 c 0
 110.999023438 556 116.999023438 578 123.999023438 607 c 0
 130.999023438 635 135.999023438 653 136.999023438 660 c 0
 140.999023438 678 146.999023438 691 154.999023438 700 c 0
 162.999023438 709 170.999023438 714 179.999023438 714 c 1
 180.999023438 722 182.999023438 722 182.999023438 714 c 1
 190.999023438 714 196.999023438 711 200.999023438 703 c 0
 202.999023438 698 203.999023438 692 203.999023438 683 c 0
 203.999023438 678 202.999023438 674 201.999023438 669 c 0
 198.999023438 653 190.999023438 618 177.999023438 564 c 0
 164.999023438 509 151.999023438 452 138.999023438 391 c 1
 280.999023438 530 l 2
 321.999023438 573 361.999023438 611 403.999023438 642 c 0
 436.999023438 670 457.999023438 688 466.999023438 695 c 0
 475.999023438 704 484.999023438 710 491.999023438 712 c 0
 496.999023438 714 500.999023438 715 502.999023438 715 c 0
 506.999023438 715 510.999023438 711 513.999023438 703 c 0
 515.999023438 698 516.999023438 692 516.999023438 685 c 0
 516.999023438 676 507.999023438 665 490.999023438 651 c 0
 478.999023438 639 438.999023438 603 369.999023438 542 c 1
 305.999023438 478 245.999023438 419 190.999023438 366 c 1
 195.999023438 357 l 2
 209.999023438 334 234.999023438 296 270.999023438 245 c 0
 306.999023438 191 336.999023438 145 361.999023438 106 c 0
 386.977539062 71.0302734375 401.978515625 48.0400390625 404 39.0234375 c 0
 403.884765625 28.3505859375 401.852539062 17.7333984375 397 9 c 0
 393 0 388 -8 381 -13 c 0
 374 -18 369 -21 364 -21 c 0
 356 -21 349 -13 343 4 c 0
 339 13 323 36 296 73 c 0
 269 110 240 152 209 196 c 0
 178 245 156 283 143 310 c 2
 129 337 l 1
 118 286 l 1
 67 24 l 2
 63 9 56 -2 46 -10 c 0
 36 -18 26 -22 16 -22 c 0
 15 -22 13 -21 13 -21 c 2
 5 -21 -1 -17 -4 -8 c 0
 -6 -3 -7 3 -7 10 c 0
EndSplineSet
Validated: 1
EndChar

StartChar: L
Encoding: 76 76 54
Width: 509
GlyphClass: 2
Flags: MW
HStem: -15 62.9962
LayerCount: 2
Fore
SplineSet
462 72 m 0
 465 63 465.999023438 54 464.999023438 44 c 0
 462.999023438 35 457.999023438 27 452.999023438 22 c 0
 447.999023438 17 437.999023438 12 423.999023438 10 c 0
 380.999023438 1 320.999023438 -5 243.999023438 -9 c 0
 164.999023438 -13 104.999023438 -15 64.9990234375 -15 c 0
 56.9990234375 -15 50.9990234375 -12 47.9990234375 -7 c 0
 45.9990234375 -5 44.9990234375 -1 44.9990234375 4 c 0
 44.9990234375 9 45.9990234375 14 47.9990234375 20 c 0
 60.9990234375 51 72.9990234375 89 85.9990234375 135 c 0
 108.999023438 206 129.999023438 275 147.999023438 341 c 0
 156.999023438 372 168.999023438 427 183.999023438 506 c 0
 198.999023438 585 206.999023438 629 207.999023438 636 c 0
 211.999023438 652 217.999023438 664 225.999023438 671 c 0
 233.999023438 678 241.999023438 682 249.999023438 682 c 1
 250.999023438 674 252.999023438 674 252.999023438 682 c 1
 259.999023438 682 265.999023438 679 269.999023438 674 c 0
 271.999023438 672 272.999023438 668 272.999023438 662 c 0
 272.999023438 656 271.999023438 650 270.999023438 645 c 0
 266.999023438 626 261.999023438 600 253.999023438 567 c 0
 244.999023438 517 234.999023438 475 224.999023438 441 c 0
 213.999023438 389 203.999023438 345 193.999023438 309 c 0
 187.999023438 281 177.999023438 240 162.999023438 187 c 0
 146.999023438 134 135.999023438 92 128.999023438 62 c 0
 128.411132812 54.35546875 127.477539062 49.8232421875 126.604492188 47.99609375 c 1
 140.645507812 47.9287109375 149.180664062 47 154 47 c 0
 198 47 250 51 310 58 c 0
 374 65 420 72 445 78 c 1
 452 78 l 2
 457 78 460 76 462 72 c 0
EndSplineSet
Validated: 1
EndChar

StartChar: M
Encoding: 77 77 55
Width: 509
GlyphClass: 2
Flags: MW
HStem: 664 20G
VStem: -4 1<-14.5 -10> 373 62<39 84 51.5 71>
LayerCount: 2
Fore
SplineSet
193 -7 m 1
 186 -7 181 -5 178 -1 c 0
 175 4 172 11 172 19 c 0
 172 51 177 124 186 239 c 0
 195 354 203 464 212 570 c 0
 214 610 219 648 222 684 c 1
 212 651 201 616 190 578 c 0
 175 529 160 470 142 403 c 0
 132 364 119 316 103 257 c 0
 94 224 85 194 77 167 c 0
 67 137 59 113 54 95 c 0
 49 78 44 65 43 58 c 0
 39 37 32 20 22 8 c 0
 13 -4 6 -10 -3 -10 c 1
 -3 -19 -4 -19 -4 -10 c 1
 -5 -10 -7 -8 -8 -7 c 0
 -12 -5 -15 6 -15 25 c 0
 -15 33 -12 44 -9 58 c 0
 -7 66 -4 79 2 98 c 0
 8 118 17 144 28 178 c 0
 39 214 49 241 54 260 c 2
 101 412 l 2
 109 441 118 477 131 519 c 0
 155 601 173 649 184 666 c 0
 191 679 199 689 210 695 c 0
 221 701 231 704 239 704 c 2
 243 704 l 1
 244 704 l 2
 253 704 260 702 265 697 c 0
 270 691 271 681 271 667 c 2
 271 659 l 2
 271 606 260 483 238 291 c 0
 228 198 222 137 220 107 c 1
 227 97 235 95 242 102 c 1
 268 201 292 289 315 368 c 0
 332 425 351 482 372 539 c 0
 393 595 409 638 423 668 c 0
 427 678 433 686 440 692 c 0
 448 698 455 702 461 703 c 0
 467 703 473 704 476 704 c 2
 484 704 l 1
 488 704 l 1
 500 704 l 2
 502 704 507 703 511 702 c 0
 515 700 518 697 519 695 c 0
 520 693 521 689 522 683 c 0
 523 679 524 674 524 668 c 2
 524 665 l 2
 522 644 507 546 478 370 c 0
 450 195 435 96 435 72 c 0
 435 31 424 6 404 -4 c 0
 400 -6 397 -7 394 -7 c 0
 391 -7 386 -5 383 -2 c 0
 376 3 373 17 373 39 c 2
 373 44 l 2
 373 98 406 294 471 632 c 1
 464 642 455 644 447 639 c 1
 407 537 377 446 355 363 c 0
 333 286 311 212 288 143 c 0
 265 74 250 32 242 17 c 0
 235 1 219 -7 197 -7 c 1
 196 -15 194 -15 193 -7 c 1
EndSplineSet
Validated: 1
EndChar

StartChar: N
Encoding: 78 78 56
Width: 509
GlyphClass: 2
Flags: MW
HStem: -12 21G<-9 -2.5> 685 20G<175.5 178.5 505.5 512.5>
LayerCount: 2
Fore
SplineSet
422 190 m 0
 408 133 397 90 389 63 c 0
 380 35 374 18 371 11 c 0
 364 -6 350 -14 328 -14 c 1
 327 -22 325 -22 324 -14 c 1
 317 -14 312 -12 309 -7 c 0
 305 -2 302 5 302 13 c 0
 300 26 293 56 280 101 c 2
 241 246 l 2
 228 295 214 349 201 410 c 0
 188 471 180 523 176 565 c 0
 174 595 170 624 168 653 c 1
 163 626 158 597 153 567 c 0
 141 494 128 425 114 362 c 0
 99 298 83 233 66 167 c 0
 49 103 39 63 37 49 c 0
 34 27 27 11 18 2 c 0
 10 -7 2 -12 -7 -12 c 0
 -11 -12 -14 -10 -16 -8 c 0
 -18 -6 -20 3 -20 17 c 0
 -20 25 -18 35 -15 48 c 0
 -13 62 1 114 23 204 c 2
 82 443 l 2
 98 512 112 578 123 640 c 0
 125 653 128 664 133 673 c 0
 137 683 142 690 148 695 c 0
 155 699 160 702 165 703 c 0
 170 704 174 705 177 705 c 0
 180 705 184 704 186 704 c 0
 195 704 202 702 207 697 c 0
 211 692 214 682 214 668 c 0
 216 625 233 543 263 422 c 0
 292 301 318 204 340 130 c 0
 344 115 348 102 352 92 c 1
 355 103 359 116 362 132 c 0
 377 195 398 288 423 409 c 0
 450 530 465 609 469 649 c 0
 471 664 476 677 484 688 c 0
 493 699 501 705 510 705 c 0
 515 705 520 704 522 703 c 0
 524 702 527 700 528 698 c 0
 529 693 530 685 530 673 c 0
 530 671 529 664 528 654 c 0
 528 643 516 590 494 495 c 0
 473 397 449 295 422 190 c 0
EndSplineSet
Validated: 1
EndChar

StartChar: O
Encoding: 79 79 57
Width: 509
GlyphClass: 2
Flags: MW
HStem: -24 72<160 161> 649 44<334 335.5>
VStem: 19 70<138.5 181.5> 426 65<517 533 517 534>
LayerCount: 2
Fore
SplineSet
466 367 m 0
 458 329 448 291 437 252 c 0
 426 213 415 183 404 161 c 0
 390 130 375 104 359 82 c 0
 344 61 328 43 313 29 c 0
 298 15 282 5 264 -3 c 0
 246 -11 228 -17 210 -20 c 0
 192 -23 172 -24 150 -24 c 0
 117 -24 88 -12 66 10 c 0
 44 32 29 62 22 101 c 0
 20 116 19 131 19 146 c 0
 19 161 23 189 30 231 c 0
 31 234 33 240 34 248 c 0
 41 278 46 302 51 320 c 0
 56 338 62 362 71 392 c 0
 88 448 110 501 139 551 c 0
 161 593 191 627 231 653 c 0
 271 679 313 693 355 693 c 0
 376 693 396 688 415 679 c 0
 434 670 449 657 462 639 c 0
 475 621 483 598 488 570 c 0
 490 556 491 541 491 525 c 0
 491 509 489 492 487 473 c 0
 482 440 474 405 466 367 c 0
215 55 m 0
 231 60 247 67 263 77 c 0
 279 87 293 101 307 118 c 0
 321 135 333 154 344 176 c 0
 349 184 356 204 365 237 c 0
 374 269 385 307 396 351 c 0
 407 395 416 439 423 481 c 0
 425 494 426 507 426 519 c 0
 426 549 421 576 408 598 c 0
 397 617 384 630 368 639 c 0
 357 646 343 649 328 649 c 0
 295 649 264 635 236 606 c 0
 209 579 186 541 166 492 c 0
 139 428 117 352 100 265 c 0
 93 225 89 194 89 169 c 0
 89 140 93 116 100 97 c 0
 105 83 114 71 126 62 c 0
 138 53 152 48 168 48 c 0
 184 48 199 50 215 55 c 0
EndSplineSet
Validated: 1
EndChar

StartChar: P
Encoding: 80 80 58
Width: 509
GlyphClass: 2
Flags: MW
HStem: 230 69<209.5 232.5 207.5 245.5> 642 45<311 356.5>
VStem: 143 3 439 62<538.5 539.5>
LayerCount: 2
Fore
SplineSet
204 633 m 1
 200 614 194 587 185 551 c 0
 176 515 167 478 159 440 c 0
 151 402 142 361 133 319 c 1
 142 315 l 2
 164 304 191 299 224 299 c 0
 241 299 256 301 271 304 c 0
 286 307 299 311 311 316 c 0
 323 321 333 328 343 336 c 0
 353 344 363 352 370 360 c 0
 377 368 384 378 391 389 c 0
 398 400 403 409 407 418 c 0
 411 427 415 437 419 448 c 0
 423 459 427 469 429 476 c 0
 431 483 434 493 436 504 c 0
 438 515 439 526 439 535 c 0
 439 544 439 551 438 558 c 0
 435 575 428 588 419 599 c 0
 410 610 401 618 388 625 c 0
 377 632 365 637 354 639 c 0
 343 641 332 642 321 642 c 0
 301 642 263 639 204 633 c 1
42 141 m 0
 49 163 55.0009765625 193 61.0009765625 231 c 0
 68.0009765625 258 76.0009765625 294 83.0009765625 337 c 0
 92.0009765625 379 98.0009765625 414 104.000976562 442 c 0
 114.786132812 490.04296875 128.455078125 547.69921875 145.0078125 614.96875 c 0
 144.359375 615.579101562 143.536132812 618.640625 143 624 c 1
 142 617 140 619 140 628 c 0
 140 630 139 632 139 634 c 0
 139 636 140 640 141 642 c 0
 143 649 146 655 151 660 c 0
 156 665 161 668 165 669 c 0
 186 674 216 679 256 682 c 0
 296 685 323 687 338 687 c 0
 375 687 409 680 436 665 c 0
 463 650 482 627 493 598 c 0
 499 581 501 563 501 543 c 0
 501 534 500 516 496 489 c 0
 487 453 474 420 455 388 c 0
 436 356 416 328 392 305 c 0
 370 282 344 263 316 250 c 0
 288 237 260 230 231 230 c 0
 188 230 154 233 132 240 c 1
 127 233 124 235 120 244 c 1
 113 207 108 176 104 151 c 0
 100 126 93 81 82 14 c 0
 80 4 73 -4 63 -10 c 0
 53 -16 44 -19 34 -19 c 0
 24 -19 17 -16 12 -11 c 0
 10 -9 8 -5 8 -1 c 0
 8 3 10 7 12 14 c 0
 19 42 29 84 42 141 c 0
EndSplineSet
Validated: 1
EndChar

StartChar: Q
Encoding: 81 81 59
Width: 509
GlyphClass: 2
Flags: MW
HStem: -39 20G -24 72 649 44
VStem: 21 71 193 46<146.5 196.5> 424 65
LayerCount: 2
Fore
SplineSet
197 48 m 1x7c
 211 48 l 1
 208 63 l 2
 201 92 196 115 194 132 c 0
 194 138 193 144 193 149 c 0
 193 174 200 193 215 204 c 0
 220 208 225 210 229 210 c 0
 231 210 232 210 234 208 c 0
 236 206 239 200 239 193 c 0
 241 160 250 123 262 82 c 2
 266 67 l 1
 277 75 l 2
 307 96 332 129 349 173 c 0
 354 183 360 203 368 234 c 0
 377 265 386 303 397 349 c 0
 408 395 416 439 421 481 c 0
 423 494 424 507 424 519 c 0
 424 552 418 579 405 601 c 0
 395 618 383 631 367 639 c 0
 356 646 342 649 327 649 c 0
 294 649 263 635 235 608 c 0
 207 581 185 543 165 494 c 0
 134 423 112 347 99 264 c 0
 95 240 92 218 92 197 c 0
 92 184 94 171 96 158 c 0
 101 125 110 99 126 79 c 0
 143 58 163 48 188 48 c 2
 197 48 l 1x7c
306 -211 m 0
 299 -209 294.000976562 -203.999023438 291.000976562 -194.999023438 c 0
 286.000976562 -182.999023438 277.000976562 -159.999023438 265.000976562 -127.999023438 c 0
 253.000976562 -95.9990234375 241.000976562 -59.9990234375 228.000976562 -18.9990234375 c 1xbc
 226.000976562 -27.9990234375 221.000976562 -27.9990234375 218.000976562 -20.9990234375 c 1
 203.000976562 -22.9990234375 187.000976562 -23.9990234375 170.000976562 -23.9990234375 c 0
 147.000976562 -23.9990234375 126.000976562 -19.9990234375 106.000976562 -10.9990234375 c 0
 86.0009765625 -1.9990234375 71.0009765625 10.0009765625 59.0009765625 25.0009765625 c 0
 47.0009765625 40.0009765625 37.0009765625 60.0009765625 30.0009765625 81.0009765625 c 0
 23.0009765625 102.000976562 21.0009765625 126.000976562 21.0009765625 152.000976562 c 0
 21.0009765625 178.000976562 23.0009765625 205.000976562 28.0009765625 232.000976562 c 0
 53.0009765625 360.000976562 91.0009765625 465.000976562 138.000976562 547.000976562 c 0
 160.000976562 589.000976562 191.000976562 623.000976562 231.000976562 651.000976562 c 0
 271.000976562 679.000976562 312.000976562 693.000976562 354.000976562 693.000976562 c 0
 399.000976562 693.000976562 434.000976562 677.000976562 459.000976562 644.000976562 c 0
 472.000976562 627.000976562 480.000976562 605.000976562 485.000976562 576.000976562 c 0
 487.000976562 561.000976562 489.000976562 545.000976562 489.000976562 528.000976562 c 0
 489.000976562 511.000976562 487.000976562 493.000976562 485.000976562 473.000976562 c 0
 479.000976562 427.000976562 468.000976562 372.000976562 452.000976562 307.000976562 c 0
 436.000976562 242.000976562 419.000976562 191.000976562 404.000976562 155.000976562 c 0
 376.000976562 86.0009765625 339.000976562 36.0009765625 292.000976562 7.0009765625 c 1
 289.427734375 -1.5751953125 286.119140625 -4.267578125 283.967773438 -0.4453125 c 1
 300.645507812 -42.5927734375 317.341796875 -83.77734375 335 -124 c 0
 340 -144 346 -155 351 -158 c 0
 351 -160 352 -163 352 -165 c 0
 352 -167 352 -170 351 -173 c 0
 349 -180 344 -187 339 -193 c 0
 334 -199 331 -205 327 -207 c 0
 322 -210 317 -212 312 -212 c 0
 310 -212 308 -211 306 -211 c 0
EndSplineSet
Validated: 1
EndChar

StartChar: R
Encoding: 82 82 60
Width: 509
GlyphClass: 2
Flags: MW
VStem: 30 1<-21 -19> 210 3 213 4<682 682> 439 64<459.5 483>
LayerCount: 2
Fore
SplineSet
367 -17 m 0xd0
 361 -15 356 -9 352 0 c 0
 345 15 336 32 323 53 c 0
 310 74 295 97 276 122 c 0
 257 147 236 172 210 197 c 0
 184 222 159 242 133 257 c 0
 131.296875 255.296875 129.709960938 254.40625 128.16015625 254.40625 c 0
 125.159179688 254.40625 122.296875 257.74609375 119 265 c 1
 119 253.838867188 117.525390625 248.57421875 116.475585938 248.57421875 c 0
 116.302734375 248.57421875 116.141601562 248.716796875 116 249 c 1
 109 210 101 165 94 112 c 0
 87 59 83 27 81 14 c 0
 79 4 73 -4 63 -10 c 0
 53 -16 44 -19 33 -19 c 2
 31 -19 l 1
 31 -23 30.75 -25 30.5 -25 c 0
 30.25 -25 30 -23 30 -19 c 1
 21 -19 14 -16 10 -11 c 0
 9 -9 7 -5 7 -1 c 0
 7 3 8 8 10 14 c 0
 21 49 29 79 35 104 c 0
 41 129 55 189 76 284 c 0
 78 298 85 325 96 365 c 0
 107 407 117 446 124 483 c 0
 128 505 132 537 138 576 c 0
 144 615 148 638 150 645 c 1
 98.037109375 468.625 72.037109375 380.375 72 380.375 c 1
 72 380.375 97.962890625 468.875 150 646 c 1
 150 643.215820312 150.158203125 641.85546875 150.348632812 641.85546875 c 0
 150.63671875 641.85546875 151 644.9765625 151 651 c 0
 152 661 157 670 166 678 c 0
 173 686 182 690 192 690 c 0
 201 690 207 688 210 685 c 0
 210.5625 679.9375 211.44140625 677.40625 212.102539062 677.40625 c 0
 212.6171875 677.40625 213 678.9375 213 682 c 1
 213.5 678 214.25 676 215 676 c 0
 215.75 676 216.5 678 217 682 c 1xb0
 261 680 302 672 337 661 c 0
 372 649 402 635 424 619 c 0
 446 603 465 584 478 563 c 0
 491 542 500 523 502 502 c 0
 502 495 503 487 503 479 c 0
 503 466 501 453 499 440 c 0
 492 409 479 383 459 363 c 0
 450 354 439 345 426 337 c 0
 413 329 400 323 386 318 c 0
 373 313 358 308 341 304 c 0
 324 300 308 295 291 293 c 0
 274 291 255 289 234 287 c 1
 227.8125 281.9375 221.625 279.40625 215.4375 279.40625 c 2
 201 284 l 1
 209.36328125 270.060546875 218.590820312 263.893554688 227.076171875 263.893554688 c 0
 227.721679688 263.893554688 228.36328125 263.9296875 229 264 c 0
 278 230 318 190 351 146 c 0
 385 102 406 64 413 33 c 1
 413 30 l 2
 413 22 411 15 407 8 c 0
 402 -1 395 -7 388 -12 c 0
 382 -16 377 -18 372 -18 c 0
 371 -18 369 -17 367 -17 c 0xd0
359 368 m 0
 371 372 382 377 393 384 c 0
 415 397 430 417 436 442 c 0
 438 449 439 456 439 463 c 0
 439 477 436 491 429 504 c 0
 419 524 405 540 388 554 c 0
 372 568 353 581 332 592 c 0
 292 613 254 628 214 636 c 2
 204 638 l 1
 193 581 184 535 178 500 c 0
 177 493 174 480 169 462 c 0
 164 444 154 407 137 350 c 1
 149 347 l 2
 156 346 166 345 177 345 c 2
 180 345 l 2
 182 345 192 346 211 347 c 0
 281 350 330 357 359 368 c 0
EndSplineSet
Validated: 1
EndChar

StartChar: S
Encoding: 83 83 61
Width: 509
GlyphClass: 2
Flags: MW
HStem: -29 62<144.5 148.5> 668 56<353.5 398.5>
VStem: 105 70<474 520.5> 369 71<234.5 287.5>
LayerCount: 2
Fore
SplineSet
8 117 m 0
 15 120 21 123 24 123 c 0
 27 123 31 124 32 124 c 2
 37 124 l 2
 38 124 40 122 42 119 c 0
 44 116 48 110 51 103 c 0
 59 82 72 65 92 52 c 0
 110 39 132 33 157 33 c 0
 172 33 188 36 205 41 c 0
 222 46 238 52 255 62 c 0
 272 72 288 84 303 97 c 0
 318 110 330 125 341 143 c 0
 352 161 360 180 364 200 c 0
 367 216 369 229 369 240 c 0
 369 259 366 275 359 290 c 0
 354 299 347 308 338 317 c 0
 329 326 319 334 306 341 c 0
 293 348 278 353 259 358 c 0
 240 363 219 368 196 371 c 0
 178 373 162 380 149 389 c 0
 136 398 127 409 120 422 c 0
 110 442 105 463 105 485 c 0
 105 492 105 499 107 508 c 0
 112 530 119 551 130 572 c 0
 141 593 155 612 172 631 c 0
 189 650 209 666 230 680 c 0
 251 694 276 704 304 712 c 0
 332 720 360 724 391 724 c 0
 406 724 428 722 455 719 c 0
 482 716 501 712 510 708 c 0
 517 706 522 701 524 694 c 0
 524 691 525 687 525 683 c 0
 525 679 524 673 522 667 c 0
 520 661 517 656 514 654 c 0
 511 652 507 649 503 649 c 0
 499 649 496 648 492 648 c 0
 488 648 484 649 479 650 c 0
 477 650 473 652 471 653 c 0
 460 656 452 660 445 661 c 0
 438 662 428 664 414 665 c 0
 400 667 384 668 367 668 c 0
 340 668 313 663 287 653 c 0
 261 643 237 628 216 608 c 0
 195 588 183 566 178 540 c 0
 176 532 175 524 175 517 c 0
 175 495 183 476 196 460 c 0
 213 439 241 428 279 426 c 0
 309 424 335 418 356 409 c 0
 377 400 394 389 405 376 c 0
 417 363 426 348 432 331 c 0
 438 314 440 296 440 279 c 0
 440 262 439 243 434 223 c 0
 427 192 416 164 401 137 c 0
 386 110 370 87 350 67 c 0
 330 47 309 30 286 15 c 0
 263 0 237 -11 212 -18 c 0
 187 -25 161 -29 136 -29 c 0
 96 -29 64 -20 37 -2 c 0
 10 16 -7 36 -13 60 c 0
 -14 67 -15 74 -15 80 c 0
 -15 86 -13 92 -11 97 c 0
 -7 106 -1 112 8 117 c 0
EndSplineSet
Validated: 1
EndChar

StartChar: T
Encoding: 84 84 62
Width: 509
GlyphClass: 2
Flags: MW
HStem: 612 64<419 446.5 419 446.5>
LayerCount: 2
Fore
SplineSet
160 303 m 0
 188 459 206 560 215 606 c 1
 215 603 217 607 218 620 c 1
 134 625 87 628 75 630 c 0
 55 633 45 640 45 649 c 0
 45 651 46 653 46 655 c 0
 47 665 53 674 62 682 c 0
 68 687 75 690 82 690 c 0
 84 690 86 689 88 689 c 0
 121 682 238 678 441 676 c 0
 452 676 459 674 461 670 c 0
 463 666 464 662 464 657 c 0
 464 655 463 652 463 650 c 0
 461 640 455 631 447 622 c 0
 440 615 432 612 423 612 c 2
 419 612 l 2
 400.25 609.75 381.921875 608.625 364.015625 608.625 c 0
 334.171875 608.625 305.5 611.75 278 618 c 1
 250 475 213 277 168 24 c 0
 165 13 158 4 148 -3 c 0
 138 -10 128 -13 119 -13 c 2
 116 -13 l 2
 108 -13 102 -10 98 -5 c 0
 97 -3 96 1 96 6 c 0
 96 11 97 16 99 23 c 0
 108 54 129 147 160 303 c 0
EndSplineSet
Validated: 1
EndChar

StartChar: U
Encoding: 85 85 63
Width: 509
GlyphClass: 2
Flags: MW
HStem: -29 67<133 190>
VStem: -7 68<141.5 183.5> 93 62
LayerCount: 2
Fore
SplineSet
425 251 m 0
 418 222 409 194 396 168 c 0
 385 143 372 121 359 102 c 0
 346 83 333 66 318 51 c 0
 303 36 288 24 273 14 c 0
 258 4 243 -5 227 -11 c 0
 211 -17 197 -21 183 -24 c 0
 169 -27 154 -29 140 -29 c 0
 126 -29 111 -27 96 -22 c 0
 80 -17 64 -8 49 4 c 0
 34 16 22 31 12 49 c 0
 2 67 -4 91 -6 121 c 0
 -6 129 -7 137 -7 146 c 0
 -7 170 -5 196 0 224 c 0
 42 427 73 564 93 637 c 0
 97 653 104 665 113 673 c 0
 122 681 131 685 140 685 c 0
 146 685 150 684 152 681 c 0
 154 678 155 673 155 667 c 0
 155 661 153 655 152 648 c 0
 102 422 73 285 66 238 c 0
 62 214 61 193 61 174 c 0
 61 160 62 146 64 131 c 0
 67 113 74 97 82 83 c 0
 90 69 102 59 117 50 c 0
 132 42 148 38 168 38 c 0
 212 38 251 54 285 88 c 0
 319 122 344 172 362 239 c 0
 371 267 381 303 390 345 c 0
 400 387 409 426 416 459 c 0
 439 566 452 623 453 629 c 0
 460 656 468 673 476 679 c 0
 480 682 483 685 486 685 c 0
 489 685 493 686 498 686 c 0
 503 686 506 685 508 684 c 0
 510 683 513 680 515 676 c 0
 517 672 518 669 518 664 c 0
 518 659 517 652 516 645 c 0
 497 541 467 410 425 251 c 0
EndSplineSet
Validated: 1
EndChar

StartChar: V
Encoding: 86 86 64
Width: 509
GlyphClass: 2
Flags: MW
VStem: 30 64<623 664 631 664>
LayerCount: 2
Fore
SplineSet
480 674 m 2
 480 668 l 2
 479 662 474 654 467 645 c 0
 445 610 393 512 310 352 c 1
 233 193 182 85 158 27 c 0
 154 15 149 6 142 -1 c 0
 135 -8 127 -12 118 -12 c 2
 112 -12 l 2
 102 -12 94 -10 89 -5 c 0
 83 0 79 10 78 24 c 0
 69 96 58 204 47 350 c 0
 36 494 30 585 30 623 c 2
 30 631 l 2
 30 672 39 697 59 707 c 0
 64 709 67 711 71 711 c 0
 75 711 79 709 82 706 c 0
 89 700 93 686 94 664 c 0
 94 659 97 599 103 486 c 2
 111 359 l 1
 119 226 l 2
 122 184 125 151 127 126 c 0
 127 109 129 94 130 82 c 1
 137 90 143 102 150 117 c 0
 186 192 238 301 305 445 c 2
 412 664 l 2
 422 685 433 699 444 705 c 0
 449 709 454 711 459 711 c 0
 461 711 464 710 469 708 c 0
 472 704 475 699 477 692 c 0
 479 687 480 681 480 674 c 2
EndSplineSet
Validated: 1
EndChar

StartChar: W
Encoding: 87 87 65
Width: 509
GlyphClass: 2
Flags: MW
VStem: 467 57
LayerCount: 2
Fore
SplineSet
-2 27 m 2
 -2 30 l 1
 -2 30 -1 31 -1 32 c 0
 -1 34 0 58 3 105 c 0
 5 136 9 168 13 199 c 0
 23 276 44 420 75 632 c 0
 81 675 93 702 113 711 c 0
 115 713 120 714 122 714 c 2
 124 714 l 2
 128 713 131 710 134 708 c 0
 136 707 138 702 138 693 c 0
 138 690 139 686 139 681 c 0
 139 679 138 676 137 672 c 0
 128 633 106 490 71 242 c 0
 68 219 65 187 60 147 c 0
 55 103 51 75 50 65 c 1
 57 55 65 53 73 59 c 1
 80 81 90 108 100 140 c 0
 109 169 130 237 163 342 c 2
 163 342 177 392 209 493 c 0
 226 545 241 588 253 622 c 0
 265 657 273 678 278 687 c 0
 285 703 300 711 321 711 c 1
 322 720 324 720 325 712 c 1
 340 712 347 703 347 685 c 0
 347 668 343 621 335 544 c 0
 333 517 328 479 322 428 c 0
 317 378 313 340 311 313 c 0
 306 273 299 208 293 116 c 0
 291 81 290 49 288 18 c 1
 297 45 306 75 315 108 c 0
 345 204 382 332 425 493 c 0
 449 572 463 623 467 645 c 0
 470 667 477 684 487 696 c 0
 496 707 504 713 512 713 c 0
 514 713 518 712 519 711 c 0
 523 708 524 697 524 678 c 0
 524 670 523 659 520 645 c 0
 512 611 497 560 475 491 c 2
 430 347 l 1
 430 347 419 303 392 217 c 0
 375 161 362 118 351 89 c 0
 340 59 331 39 324 28 c 0
 317 14 307 4 296 -3 c 0
 285 -8 277 -11 270 -11 c 2
 266 -11 l 1
 264 -11 l 2
 255 -11 248 -8 243 -3 c 0
 238 2 236 12 236 26 c 2
 236 30 l 2
 236 92 243 175 257 279 c 2
 275 411 l 2
 287 504 295 566 298 595 c 1
 291 605 283 607 276 601 c 1
 245 490 211 374 175 255 c 0
 140 137 115 61 100 26 c 0
 97 15 91 7 83 1 c 0
 75 -4 67 -8 59 -9 c 0
 51 -10 45 -11 38 -11 c 0
 27 -10 17 -9 9 -8 c 0
 6 -6 4 -4 3 -2 c 0
 1 0 0 4 -1 11 c 0
 -2 16 -2 21 -2 27 c 2
32 -11 m 1024
EndSplineSet
Validated: 1
EndChar

StartChar: X
Encoding: 88 88 66
Width: 509
GlyphClass: 2
Flags: MW
VStem: 128 66
LayerCount: 2
Fore
SplineSet
357 -18 m 0
 350 -15 344 -7 338 5 c 0
 331 19 322 41 313 71 c 0
 304 100 293 137 281 183 c 0
 269 230 258 271 249 305 c 1
 236 288 l 2
 211 255 171 200 118 123 c 0
 62 48 31 7 24 0 c 0
 15 -11 7 -18 0 -21 c 0
 -4 -23 -8 -24 -10 -24 c 0
 -15 -24 -19 -19 -24 -9 c 0
 -27 -3 -29 4 -29 11 c 0
 -29 18 -22 31 -10 48 c 0
 -3 56 33 98 97 175 c 1
 157 255 200 315 229 357 c 1
 133 627 l 2
 130 635 128 642 128 649 c 0
 128 667 134 682 145 693 c 0
 153 702 161 706 169 706 c 0
 171 706 175 704 179 702 c 0
 185 698 190 690 194 679 c 0
 207 651 234 567 276 427 c 2
 283 405 l 1
 296 424 l 2
 394 568 456 654 482 683 c 0
 490 694 498 701 506 705 c 0
 511 707 516 709 520 709 c 0
 525 709 529 707 533 700 c 0
 535 695 538 689 538 683 c 0
 538 682 539 679 539 676 c 2
 536 667 l 2
 534 661 530 655 523 648 c 2
 429 532 l 1
 370 450 331 395 310 364 c 0
 308 362 305 358 301 351 c 1
 311 321 327 269 348 195 c 0
 369 121 384 75 393 55 c 0
 398 45 400 36 400 28 c 0
 400 22 399 16 398 11 c 0
 397 6 394 1 390 -5 c 0
 382 -16 374 -22 367 -22 c 0
 365 -22 361 -20 357 -18 c 0
EndSplineSet
Validated: 1
EndChar

StartChar: Y
Encoding: 89 89 67
Width: 509
GlyphClass: 2
Flags: MW
VStem: 62 76<613 653.5 626 653.5>
LayerCount: 2
Fore
SplineSet
485 623 m 0
 480 615 471 601.999023438 458 582.999023438 c 0
 445 563.999023438 433 546.999023438 425 533.999023438 c 0
 417 520.999023438 400 496.999023438 375 461.999023438 c 0
 353 426.999023438 333 396.999023438 319 374.999023438 c 0
 286.958007812 324.647460938 251.34765625 298.091796875 223 209 c 0
 202 143 206.8203125 95.607421875 159 -17 c 0
 153.903320312 -29.0009765625 133 -35 122 -38 c 0
 120 -38 116 -39 114 -39 c 0
 109 -39 104 -37 99 -33 c 0
 94 -28 90 -21 90 -13 c 0
 90 -10 92 -6 92 -4 c 0
 93 3 98.3056640625 8.7080078125 102 18 c 0
 135 101 102 18 166 231 c 1
 160 258 152 291 141 329 c 0
 130 367 123 393 119 407 c 0
 115 421 108 443 98 475 c 0
 89 504 81 530 75 551 c 0
 69 572 64 593 62 613 c 2
 62 626 l 2
 62 634 63 641 65 647 c 0
 68 657 73 665 78 670 c 0
 83 675 88 680 95 682 c 0
 101 684 106 686 111 686 c 0
 115 686 119 685 123 684 c 0
 127 683 130 679 132 673 c 0
 134 667 138 659 138 648 c 0
 139 625 142 600 146 573 c 0
 147 564 149 552 153 536 c 0
 157 520 160 510 161 506 c 0
 172 464 179 442 179 442 c 2
 190 403 198 365 204 328 c 0
 205 311 207 301 208 300 c 0
 213 300 219 308 224 323 c 0
 226 327 235 340 248 362 c 0
 261 384 283 418 312 465 c 0
 341 512 362 548 377 574 c 0
 382 583 390 595 401 611 c 0
 413 627 423 640 428 649 c 0
 434 660 440 668 446 675 c 0
 452 682 458 686 463 688 c 0
 473 692 481 692 488 689 c 0
 490 687 494 684 496 682 c 0
 499 677 500 670 500 663 c 0
 500 661 500 656 499 651 c 0
 497 642 491 633 485 623 c 0
EndSplineSet
Validated: 1
EndChar

StartChar: Z
Encoding: 90 90 68
Width: 509
GlyphClass: 2
Flags: MW
HStem: 9 63 627 69<141.5 188 145 188> 629 55
LayerCount: 2
Fore
SplineSet
396 40 m 2xa0
 394 29 389 21 382 14 c 0
 375 7 366 3 352 3 c 0
 349 3 316 4 256 6 c 0
 196 8 140 9 87 9 c 0
 64 9 34 8 -5 7 c 2
 -6 7 l 2
 -8 7 -12 8 -13 9 c 0
 -14 10 -17 15 -19 20 c 0
 -21 25 -21 31 -21 36 c 2
 -21 49 l 2
 -20 55 -14 66 -5 81 c 0
 4 96 19 117 40 144 c 0
 68 181 126 256 216 368 c 0
 305 480 373 561 417 612 c 2
 437 634 l 1
 388 632 333 630 271 629 c 0
 209 628 167 627 146 627 c 2xc0
 145 627 l 2
 138 627 132 628 131 632 c 0
 130 636 128 640 128 644 c 0
 128 648 129 651 129 655 c 0
 131 664 138 674 148 683 c 0
 158 692 170 696 182 696 c 0
 194 696 211 694 232 690 c 0
 253 686 272 684 287 684 c 2
 304 684 l 2
 343 684 394 686 458 691 c 0
 496 693 517 695 517 695 c 2
 519 695 522 694 523 693 c 0
 524 692 526 689 527 687 c 0
 529 682 532 676 532 670 c 0
 532 667 530 663 530 658 c 0
 528 654 524 648 515 639 c 0
 506 630 493 618 479 605 c 0
 465 592 456 581 449 573 c 0
 422 540 383 493 333 431 c 0
 283 369 234 308 186 247 c 0
 138 186 96 131 63 84 c 2
 48 63 l 1
 75 65 l 2
 144 70 207 72 266 72 c 0
 313 72 348 70 370 66 c 0
 382 64 390 60 394 55 c 0
 396 53 396 50 396 46 c 2
 396 40 l 2xa0
EndSplineSet
Validated: 1
EndChar

StartChar: bracketleft
Encoding: 91 91 69
Width: 509
GlyphClass: 2
Flags: MW
HStem: -69 47 773 64<473 475>
LayerCount: 2
Fore
SplineSet
397 837 m 1
 468 837 l 2
 482 837 490 838 490 838 c 2
 499 838 505 837 507 833 c 0
 509 829 510 824 510 819 c 2
 510 812 l 2
 509 807 506 803 504 798 c 0
 498 786 491 778 482 775 c 0
 479 774 476 773 474 773 c 0
 472 773 469 774 468 774 c 0
 445 778 407 780 355 780 c 0
 332 780 302 779 267 778 c 1
 262 758 253 719 238 661 c 0
 223 603 211 555 201 516 c 0
 191 477 180 431 168 377 c 0
 161 337 145 268 121 170 c 0
 97 72 82 8 75 -22 c 1
 118 -22 l 2
 148 -22 184 -21 226 -20 c 0
 268 -19 291 -17 296 -17 c 0
 306 -17 312 -19 314 -21 c 0
 316 -25 316 -31 315 -39 c 0
 313 -49 309 -58 303 -65 c 0
 301 -68 297 -71 294 -72 c 0
 291 -73 288 -74 286 -74 c 0
 284 -74 281 -73 279 -73 c 0
 264 -71 244 -70 219 -70 c 0
 217 -70 209 -69 198 -69 c 0
 187 -69 172 -70 155 -71 c 0
 92 -75 49 -77 27 -77 c 0
 14 -77 6 -74 2 -70 c 0
 0 -68 -1 -65 -1 -61 c 0
 -1 -55 1 -47 6 -37 c 1
 6 -36 l 1
 9 -27 l 2
 20 8 37 71 59 161 c 0
 81 251 102 341 121 431 c 0
 124 452 129 474 135 500 c 0
 141 526 153 579 173 660 c 0
 178 681 183 703 190 729 c 0
 197 755 201 772 203 781 c 2
 204 784 l 2
 204 788 203 791 203 793 c 0
 203 805 208 815 218 824 c 0
 225 831 236 835 249 835 c 0
 293 836 334 837 370 837 c 2
 397 837 l 1
EndSplineSet
Validated: 1
EndChar

StartChar: backslash
Encoding: 92 92 70
Width: 509
GlyphClass: 2
Flags: MW
VStem: 319 71<4.29497e+09 4.29497e+09>
LayerCount: 2
Fore
SplineSet
342 -45 m 0
 331 -39 324 -29 319 -14 c 0
 317 -3 309 27 298 76 c 0
 287 125 279 160 274 181 c 0
 265 214 238 296 195 429 c 0
 152 562 126 645 118 679 c 0
 117 684 116 689 116 694 c 0
 116 702 118 709 120 715 c 0
 125 724 132 731 142 736 c 0
 150 739 157 741 164 741 c 0
 169 741 175 739 179 735 c 0
 183 731 186 726 188 718 c 0
 211 621 235 535 257 458 c 0
 292 333 337 190 391 30 c 0
 393 24 394 17 394 10 c 0
 394 3 392 -6 390 -15 c 0
 385 -31 378 -41 370 -45 c 0
 365 -47 361 -49 356 -49 c 0
 351 -49 347 -47 342 -45 c 0
EndSplineSet
Validated: 1
EndChar

StartChar: bracketright
Encoding: 93 93 71
Width: 509
GlyphClass: 2
Flags: MW
HStem: -69 49 780 57<334 348.5>
LayerCount: 2
Fore
SplineSet
361 837 m 2
 398 837 438 836 480 835 c 0
 492 835 500 832 503 827 c 0
 505 824 507 820 507 816 c 0
 507 812 506 809 506 806 c 0
 504 801 502 796 500 792 c 2
 498 789 l 1
 498 787 l 1
 496 781 l 1
 496 780 l 2
 496 775 491 760 486 735 c 2
 456 591 l 2
 444 535 431 483 418 436 c 0
 396 346 375 256 355 166 c 0
 335 76 323 14 318 -21 c 2
 316 -30 l 1
 316 -32 l 2
 316 -39 315 -45 314 -50 c 0
 313 -58 308 -64 301 -69 c 0
 294 -74 284 -77 271 -77 c 0
 249 -77 207 -74 146 -71 c 0
 128 -71 107 -69 84 -69 c 0
 61 -69 41 -71 21 -73 c 0
 18 -73 14 -74 13 -74 c 0
 8 -74 4 -72 3 -70 c 0
 2 -63 2 -55 4 -44 c 0
 6 -35 11 -29 16 -24 c 0
 21 -19 30 -17 41 -17 c 0
 45 -17 67 -19 109 -20 c 0
 151 -21 186 -22 216 -22 c 2
 253 -22 l 1
 259 4 273 67 294 165 c 0
 315 263 331 331 342 371 c 1
 342 372 l 1
 355 425 367 472 375 511 c 0
 383 550 401 639 430 778 c 1
 391 779 360 780 337 780 c 0
 287 780 250 778 224 774 c 0
 222 774 218 773 216 773 c 0
 214 773 211 773 209 774 c 0
 207 775 205 778 205 780 c 0
 202 789 201 798 203 807 c 0
 205 816 209 823 216 830 c 0
 222 835 230 838 241 838 c 2
 242 838 l 2
 270 838 301 837 334 837 c 2
 361 837 l 2
EndSplineSet
Validated: 1
EndChar

StartChar: asciicircum
Encoding: 94 94 72
Width: 509
GlyphClass: 2
Flags: MW
HStem: 607 326<42.5 325>
LayerCount: 2
Fore
SplineSet
435 614 m 0
 430 619 421 630 409 648 c 0
 407 650 403 654 401 658 c 0
 374 698 357 726 347 743 c 0
 337 760 325 787 308 824 c 2
 299 841 l 1
 287 828 l 2
 265 803 246 783 229 767 c 0
 212 751 199 739 189 731 c 0
 179 723 166 713 150 699 c 0
 134 685 118 670 100 653 c 0
 97 651 92 647 87 642 c 0
 69 625 56 615 49 610 c 0
 47 608 44 607 43 607 c 0
 42 607 41 609 39 609 c 0
 32 613 26 620 23 631 c 0
 23 632 22 634 22 636 c 0
 22 647 30 659 42 672 c 0
 57 689 78 709 104 734 c 0
 130 759 159 786 191 817 c 0
 223 848 255 882 288 918 c 0
 294 925 302 929 311 931 c 0
 315 932 319 933 323 933 c 0
 327 933 331 932 335 931 c 0
 340 929 345 926 346 922 c 2
 346 921 l 1
 362 886 376 857 388 834 c 0
 400 811 409 794 416 783 c 0
 423 772 433 756 446 735 c 0
 459 714 471 696 482 679 c 0
 485 674 487 668 487 663 c 0
 487 655 484 648 479 642 c 0
 469 629 458 621 446 616 c 0
 443 614 440 613 439 613 c 0
 438 613 436 614 435 614 c 0
EndSplineSet
Validated: 1
EndChar

StartChar: underscore
Encoding: 95 95 73
Width: 509
GlyphClass: 2
Flags: MW
HStem: -87 60<50.5 72>
LayerCount: 2
Fore
SplineSet
34 -72 m 0
 34 -68 35 -64 36 -59 c 0
 38 -49 41 -41 46 -36 c 0
 51 -30 59 -27 70 -27 c 2
 72 -27 l 2
 129 -28 177 -29 217 -29 c 0
 257 -29 306 -28 367 -27 c 0
 416 -27 445 -25 456 -25 c 0
 467 -25 473 -27 474 -30 c 0
 476 -35 477 -42 476 -51 c 0
 474 -62 469 -70 464 -75 c 0
 457 -82 448 -85 437 -85 c 0
 208 -86 81 -87 54 -87 c 0
 47 -87 42 -86 39 -84 c 0
 36 -82 34 -78 34 -72 c 0
EndSplineSet
Validated: 1
EndChar

StartChar: grave
Encoding: 96 96 74
Width: 509
GlyphClass: 2
Flags: MW
HStem: 636 161<210 310>
LayerCount: 2
Fore
SplineSet
309 636 m 0
 301 636 293 639 284 644 c 0
 255 665 236 678 229 683 c 0
 222 688 213 695 202 704 c 0
 191 713 181 721 174 728 c 0
 169 734 166 743 166 754 c 0
 166 763 169 772 174 781 c 0
 181 788 191 794 202 796 c 0
 205 796 209 797 211 797 c 0
 217 797 222 796 227 792 c 0
 229 790 245 773 274 742 c 0
 279 736 287 729 297 720 c 0
 307 711 317 703 325 698 c 0
 335 692 341 684 343 673 c 0
 343 670 344 666 344 664 c 0
 344 658 341 653 338 649 c 0
 333 642 325 638 315 637 c 0
 313 637 311 636 309 636 c 0
EndSplineSet
Validated: 1
EndChar

StartChar: a
Encoding: 97 97 75
Width: 509
GlyphClass: 2
Flags: MW
HStem: -28 69 438 72
VStem: 384 51
LayerCount: 2
Fore
SplineSet
222 450 m 0
 247 471 282 486.999023438 325 499.999023438 c 0
 346 505.999023438 368 509.999023438 391 509.999023438 c 2
 399 509.999023438 l 2
 451 508.999023438 483 492.999023438 493 464.999023438 c 0
 500.201171875 444.74609375 503.755859375 420.64453125 503.755859375 392.51171875 c 0
 503.755859375 358.13671875 498.448242188 317.743164062 488 270.999023438 c 0
 488 268.999023438 486 260.999023438 483 247.999023438 c 0
 480 234.999023438 475 212.999023438 467 182.999023438 c 0
 459 152.999023438 456 136.999023438 456 135.999023438 c 0
 452 118.999023438 447 86.9990234375 441 36.9990234375 c 0
 440 21.9990234375 437 8.9990234375 435 -2.0009765625 c 0
 430 -26.0009765625 423 -38.0009765625 415 -38.0009765625 c 0
 394 -38.0009765625 384 -34.0009765625 384 -25.0009765625 c 0
 382.828125 -7.427734375 382.342773438 12.205078125 382.342773438 34.09765625 c 0
 382.342773438 49.578125 382.584960938 66.1884765625 382.999023438 84 c 1
 375.999023438 71 370.999023438 64 366.999023438 64 c 0
 338.999023438 29 313.999023438 5 290.999023438 -10 c 0
 271.999023438 -22 244.999023438 -28 207.999023438 -28 c 0
 191.999023438 -28 174.999023438 -23 156.999023438 -12 c 0
 137.999023438 -1 122.999023438 17 111.999023438 40 c 0
 100.999023438 63 95.9990234375 87 93.9990234375 111 c 1
 97.9990234375 128 103.999023438 146 111.999023438 165 c 0
 120.999023438 186 132.999023438 203 148.999023438 217 c 0
 171.999023438 238 187.999023438 251 195.999023438 255 c 0
 230.999023438 273 250.999023438 284 255.999023438 285 c 0
 297.999023438 298 320.999023438 306 325.999023438 307 c 0
 354.999023438 311 372.999023438 314 380.999023438 316 c 0
 383.999023438 317 401.999023438 323 433.999023438 335 c 0
 434.999023438 339 436.999023438 340 436.999023438 340 c 2
 439.999023438 346 441.999023438 353 442.999023438 359 c 0
 443.999023438 365 445.999023438 370 445.999023438 376 c 0
 445.999023438 382 444.999023438 389 440.999023438 398 c 0
 435.999023438 410 427.999023438 419 418.999023438 425 c 0
 411.999023438 431 397.999023438 436 378.999023438 437 c 0
 375.999023438 437 372.999023438 438 369.999023438 438 c 0
 356.999023438 438 343.999023438 435 327.999023438 430 c 0
 311.999023438 425 298.999023438 417 286.999023438 409 c 0
 264.999023438 395 247.999023438 383 236.999023438 373 c 0
 216.999023438 352 201.999023438 340 188.999023438 340 c 0
 182.999023438 340 176.999023438 343 171.999023438 348 c 0
 164.764648438 354.430664062 161.407226562 361.5078125 161.407226562 369.75 c 0
 161.407226562 371.76171875 161.607421875 373.842773438 162 376 c 0
 164 387 173 401 185 415 c 0
 196 428 208 439 222 450 c 0
311 67.9990234375 m 0
 324 77.9990234375 336 89.9990234375 347 103.999023438 c 0
 359 117.999023438 371 135.999023438 382 156.999023438 c 0
 393 177.999023438 403 200.999023438 410 225.999023438 c 2
 413 236.999023438 l 1
 402 235.999023438 l 2
 287 224.999023438 208 191.999023438 165 136.999023438 c 1
 162 131.999023438 l 1
 163 126.999023438 l 2
 171 94.9990234375 181 72.9990234375 195 59.9990234375 c 0
 207 46.9990234375 222 40.9990234375 241 40.9990234375 c 0
 263 40.9990234375 287 48.9990234375 311 67.9990234375 c 0
EndSplineSet
Validated: 1
EndChar

StartChar: b
Encoding: 98 98 76
Width: 509
GlyphClass: 2
Flags: MW
HStem: -14 74<214 236.5> 425 65<280 354.5>
VStem: 46 60 395 69<295.5 370.5>
LayerCount: 2
Fore
SplineSet
453 263 m 0
 446 227 435 194 422 164 c 0
 409 134 393 107 377 86 c 0
 361 65 344 46 327 31 c 0
 310 16 294 4 277 -3 c 0
 260 -10 244 -14 229 -14 c 0
 187 -14 152 2 126 31 c 1
 121 29 117 34 112 47 c 1
 110 32 108 26 106 26 c 0
 101 12 96 2 89 -3 c 0
 82 -8 74 -11 65 -11 c 0
 58 -11 52 -9 50 -6 c 0
 48 -3 46 2 46 8 c 0
 46 14 47 22 49 30 c 0
 67 115 94 237 130 396 c 0
 165 555 188 663 201 722 c 0
 205 741 210 753 216 759 c 0
 222 765 230 768 240 768 c 0
 246 768 251 766 254 761 c 0
 256 759 257 754 257 748 c 0
 257 742 256 733 254 723 c 0
 247 698 240 666 233 624 c 0
 220 564 207 499 194 428 c 1
 202 437 210 443 217 445 c 0
 254 475 295 490 338 490 c 0
 371 490 399 480 420 461 c 0
 449 436 464 397 464 344 c 0
 464 319 460 292 453 263 c 0
363 397 m 0
 346 416 324 425 298 425 c 0
 262 425 225 408 186 374 c 2
 183 371 l 1
 166 288 145 201 123 109 c 1
 126 105 l 2
 137 88 151 77 169 70 c 0
 184 63 203 60 225 60 c 0
 265 60 298 78 326 113 c 0
 355 147 376 193 389 251 c 0
 393 269 395 287 395 304 c 0
 395 344 384 375 363 397 c 0
EndSplineSet
Validated: 1
EndChar

StartChar: c
Encoding: 99 99 77
Width: 509
GlyphClass: 2
Flags: MW
HStem: -31 68<177 224> 458 69<315 371>
VStem: 65 70<123.5 126.5> 375 70<358.5 405>
LayerCount: 2
Fore
SplineSet
421 492 m 0
 438 468 445 440 445 407 c 2
 445 405 l 2
 445 389 443 376 438 365 c 0
 432 352 422 343 409 337 c 0
 403 335 398 333 393 333 c 0
 390 333 386 334 384 335 c 0
 382 335 380 338 378 343 c 0
 376 348 375 354 375 363 c 0
 375 366 373 377 373 397 c 0
 373 402 373 408 372 415 c 0
 371 422 369 428 367 432 c 0
 365 436 361 440 357 444 c 0
 349 453 337 458 320 458 c 0
 310 458 300 456 289 451 c 0
 278 446 266 438 253 426 c 0
 240 414 228 399 216 382 c 0
 204 365 192 343 181 315 c 0
 168 287 157 256 148 221 c 0
 139 189 135 161 135 137 c 0
 135 110 141 88 152 71 c 0
 167 50 188 39 215 37 c 2
 224 37 l 2
 247 37 268 42 286 52 c 0
 307 64 322 78 329 93 c 0
 335 104 341 112 347 118 c 0
 353 124 356 128 360 129 c 0
 364 130 368 131 371 131 c 0
 374 131 377 129 382 127 c 0
 385 125 388 122 390 120 c 0
 392 118 393 114 393 110 c 0
 393 100 388 86 377 69 c 0
 362 44 338 22 307 2 c 0
 292 -9 274 -17 254 -23 c 0
 234 -28 212 -31 190 -31 c 0
 164 -31 142 -26 122 -14 c 0
 104 -3 91 12 82 32 c 0
 71 57 65 85 65 116 c 0
 65 137 68 158 73 180 c 0
 84 227 98 269 115 308 c 0
 132 347 151 379 172 406 c 0
 192 433 211 455 231 474 c 0
 270 509 312 527 358 527 c 0
 384 527 405 515 421 492 c 0
EndSplineSet
Validated: 1
EndChar

StartChar: d
Encoding: 100 100 78
Width: 509
GlyphClass: 2
Flags: MW
HStem: -14 76<134 169> 436 75<241 245 241 241>
VStem: 14 62<171 182> 285 65<20.5 50>
LayerCount: 2
Fore
SplineSet
197 65 m 0
 206 67 214 71 221 74 c 0
 228 77 234 81 241 87 c 0
 248 93 253 99 258 103 c 0
 263 107 268 113 274 121 c 0
 280 129 286 135 288 139 c 0
 290 143 293 147 296 152 c 0
 299 157 302 162 304 164 c 0
 317 226 324 261 326 268 c 0
 327 275 329 286 333 301 c 0
 337 316 339 329 341 338 c 1
 340 341 l 2
 333 368 322 391 305 409 c 0
 288 427 268 436 245 436 c 2
 241 436 l 2
 217 435 194 426 173 410 c 0
 152 394 136 373 121 348 c 0
 106 323 94 296 87 267 c 0
 79 235 76 207 76 183 c 0
 76 159 78 137 85 120 c 0
 93 99 107 83 124 74 c 0
 137 66 151 62 168 62 c 2
 169 62 l 2
 178 62 188 63 197 65 c 0
14 166 m 0
 14 198 18 233 27 271 c 0
 36 316 53 358 75 394 c 0
 97 430 123 458 154 479 c 0
 183 500 215 511 247 511 c 0
 291 511 327 498 352 472 c 1
 357 475 361 471 366 458 c 1
 397 595 419 681 430 716 c 0
 435 733 442 745 449 754 c 0
 458 764 467 769 479 769 c 0
 486 769 493 766 495 761 c 0
 496 760 497 757 497 753 c 0
 497 746 494 736 491 723 c 0
 480 681 461 606 433 495 c 0
 405 384 386 299 373 242 c 1
 373 241 l 1
 366 202 360 168 356 139 c 0
 352 110 351 89 351 77 c 0
 351 65 350 54 350 46 c 0
 350 38 349 32 347 27 c 0
 343 16 338 8 331 2 c 0
 326 -3 319 -7 310 -9 c 0
 307 -9 302 -10 300 -10 c 0
 298 -10 295 -9 293 -8 c 0
 291 -7 290 -4 289 -1 c 0
 287 6 285 15 285 26 c 0
 285 34 286 43 287 52 c 0
 288 60 290 74 292 95 c 1
 284 78 276 67 268 62 c 0
 260 51 252 42 244 34 c 0
 236 26 227 17 216 10 c 0
 195 -6 171 -14 142 -14 c 0
 126 -14 110 -10 95 -3 c 0
 80 4 65 15 53 30 c 0
 41 45 31 64 24 85 c 0
 17 106 14 134 14 166 c 0
EndSplineSet
Validated: 1
EndChar

StartChar: e
Encoding: 101 101 79
Width: 509
GlyphClass: 2
Flags: MW
HStem: -28 60<187 220 187 220> 455 66<290 338>
VStem: 66 61<134 140.5>
LayerCount: 2
Fore
SplineSet
371 60 m 0
 359 45 347 33 336 24 c 0
 325 14 313 5 299 -4 c 0
 273 -20 238 -28 196 -28 c 2
 187 -28 l 2
 135 -27 100 -4 81 39 c 0
 71 63 66 91 66 124 c 0
 66 157 71 193 80 234 c 0
 90 279 105 320 125 356 c 0
 145 392 166 423 189 447 c 0
 210 471 232 489 256 502 c 0
 280 515 305 521 330 521 c 0
 346 521 362 516 379 505 c 0
 396 494 410 479 423 458 c 0
 436 437 443 416 444 393 c 0
 444 378 436 362 422 343 c 0
 408 324 394 310 381 300 c 0
 355 280 323 261 283 241 c 0
 263 232 247 224 233 217 c 0
 219 210 203 202 182 193 c 0
 164 184 146 178 129 173 c 1
 128 158 127 146 127 138 c 0
 127 130 128 123 128 116 c 0
 130 101 134 88 140 75 c 0
 146 62 154 51 167 44 c 0
 180 36 196 32 214 32 c 0
 226 32 239 35 253 40 c 0
 267 45 279 51 290 60 c 0
 310 77 324 89 331 98 c 0
 342 110 351 119 359 124 c 0
 364 127 370 129 374 129 c 0
 378 129 382 127 385 124 c 0
 390 119 393 112 393 105 c 0
 393 93 386 78 371 60 c 0
238 427 m 0
 227 417 216 405 206 391 c 0
 196 377 186 360 176 339 c 0
 165 318 156 295 149 270 c 2
 144 249 l 1
 164 255 l 2
 267 287 337 319 374 352 c 2
 380 357 l 1
 378 364 l 2
 371 396 362 419 349 433 c 0
 335 448 319 455 300 455 c 0
 280 455 259 446 238 427 c 0
EndSplineSet
Validated: 1
EndChar

StartChar: f
Encoding: 102 102 80
Width: 509
GlyphClass: 2
Flags: MW
HStem: -16 63 422 65 428 61 703 62
LayerCount: 2
Fore
SplineSet
295 -5 m 0xb0
 288 -12 280.999023438 -16.0009765625 269.999023438 -16.0009765625 c 0
 213.999023438 -17.0009765625 176.999023438 -18.0009765625 158.999023438 -18.0009765625 c 0
 104.999023438 -18.0009765625 64.9990234375 -16.0009765625 37.9990234375 -14.0009765625 c 1
 37.9990234375 -22.0009765625 36.9990234375 -22.0009765625 36.9990234375 -14.0009765625 c 1
 26.9990234375 -14.0009765625 19.9990234375 -11.0009765625 17.9990234375 -6.0009765625 c 0
 15.9990234375 -2.0009765625 14.9990234375 1.9990234375 14.9990234375 5.9990234375 c 0
 14.9990234375 9.9990234375 15.9990234375 13.9990234375 16.9990234375 18.9990234375 c 0
 18.9990234375 29.9990234375 22.9990234375 38.9990234375 29.9990234375 45.9990234375 c 0
 35.9990234375 51.9990234375 45.9990234375 54.9990234375 56.9990234375 54.9990234375 c 2
 61.9990234375 54.9990234375 l 2
 65.9990234375 54.9990234375 72.9990234375 53.9990234375 84.9990234375 53.9990234375 c 0
 96.9990234375 53.9990234375 109.999023438 51.9990234375 122.999023438 51.9990234375 c 0
 123.999023438 48.9990234375 124.999023438 51.9990234375 124.999023438 61.9990234375 c 0
 127.999023438 74.9990234375 130.999023438 87.9990234375 131.999023438 98.9990234375 c 0
 132.999023438 109.999023438 134.999023438 123.999023438 137.999023438 137.999023438 c 0
 140.999023438 151.999023438 143.999023438 171.999023438 147.999023438 198.999023438 c 0
 165.999023438 311.999023438 178.999023438 386.999023438 184.999023438 423.999023438 c 1
 179.999023438 428.999023438 174.999023438 427.999023438 169.999023438 422.999023438 c 1
 160.999023438 422.999023438 147.999023438 421.999023438 131.999023438 421.999023438 c 0
 125.999023438 421.999023438 121.999023438 422.999023438 119.999023438 424.999023438 c 0
 117.999023438 426.999023438 115.999023438 431.999023438 115.999023438 437.999023438 c 0
 115.999023438 441.999023438 116.999023438 446.999023438 117.999023438 451.999023438 c 0
 119.999023438 462.999023438 122.999023438 471.999023438 127.999023438 477.999023438 c 0
 132.999023438 483.999023438 139.999023438 486.999023438 148.999023438 486.999023438 c 2
 195.999023438 486.999023438 l 1xd0
 197.999023438 505.999023438 202.999023438 524.999023438 206.999023438 545.999023438 c 0
 213.999023438 576.999023438 221.999023438 603.999023438 234.999023438 628.999023438 c 0
 247.999023438 653.999023438 261.999023438 673.999023438 278.999023438 690.999023438 c 0
 295.999023438 707.999023438 313.999023438 720.999023438 334.999023438 731.999023438 c 0
 355.999023438 742.999023438 376.999023438 751.999023438 398.999023438 756.999023438 c 0
 422.999023438 761.999023438 448.999023438 764.999023438 473.999023438 764.999023438 c 0
 482.999023438 764.999023438 488.999023438 761.999023438 492.999023438 757.999023438 c 0
 494.999023438 755.999023438 495.999023438 752.999023438 495.999023438 749.999023438 c 0
 495.999023438 746.999023438 494.999023438 742.999023438 494.999023438 739.999023438 c 0
 492.999023438 728.999023438 486.999023438 719.999023438 480.999023438 712.999023438 c 0
 474.999023438 705.999023438 467.999023438 702.999023438 462.999023438 702.999023438 c 0
 409.999023438 702.999023438 365.999023438 687.999023438 328.999023438 657.999023438 c 0
 292.999023438 627.999023438 268.999023438 588.999023438 258.999023438 540.999023438 c 0
 255.999023438 525.999023438 252.999023438 513.999023438 251.999023438 502.999023438 c 2
 251.999023438 502.999023438 250.999023438 500.999023438 250.999023438 488.999023438 c 1xb0
 278.87109375 492.901367188 307.053710938 494.939453125 335.720703125 494.939453125 c 0
 358.479492188 494.939453125 381.543945312 493.655273438 405 491 c 0
 414 491 419 489 420 487 c 0xd0
 422 482 423 476 422 467 c 0
 420 456 416 446 411 440 c 0
 406 434 398 431 388 431 c 0
 375 431 347 430 304 428 c 0
 282 428 261 426 240 426 c 1
 235 401 230 370 224 334 c 0
 218 298 206 226 187 116 c 0
 182 83 179 65 179 63 c 2
 179 51 l 2
 182 44 185 44 188 50 c 1
 232 48 267 47 289 47 c 0
 298 47 305 45 307 41 c 0
 309 39 310 35 310 32 c 0
 310 29 309 25 309 22 c 0
 307 11 302 2 295 -5 c 0xb0
EndSplineSet
Validated: 1
EndChar

StartChar: g
Encoding: 103 103 81
Width: 509
GlyphClass: 2
Flags: MW
HStem: -292 59<118 139 118 144> -258 57<26 50> -31 75<221.5 232.5> 437 72<347 409.5 353 409.5>
VStem: 104 61<85 151.5>
LayerCount: 2
Fore
SplineSet
281 55 m 0x38
 296 61 309 69 320 79 c 0
 331 89 342 99 351 112 c 0
 360 125 368 137 374 149 c 0
 381 161 386 173 391 186 c 0
 391 187 407 253 438 383 c 0
 439 390 442 397 447 403 c 2
 458 418 l 1
 438 422 l 1
 435 422 l 1
 409 432 384 437 360 437 c 2
 353 437 l 2
 341 437 329 434 317 430 c 0
 305 426 292 418 279 409 c 0
 266 400 253 388 241 375 c 0
 229 362 218 346 208 326 c 0
 198 306 191 284 184 260 c 0
 179 239 175 219 171 199 c 0
 167 179 165 161 165 142 c 0
 165 123 167 107 171 92 c 0
 175 77 182 65 193 56 c 0
 203 48 214 44 229 44 c 0
 246 44 264 48 281 55 c 0x38
490 402 m 0
 482 367 474 327 465 285 c 0
 449 208 434 144 421 91 c 0
 408 38 396 -8 384 -50 c 0
 374 -82 361 -112 347 -139 c 0
 333 -166 317 -188 300 -207 c 0
 283 -226 264 -241 244 -254 c 0
 206 -279 165 -292 123 -292 c 0xb8
 106 -292 89 -289 74 -284 c 0
 59 -279 47 -273 38 -267 c 2
 32 -263 l 2
 29 -261 27 -258 26 -258 c 2
 22 -255 l 1
 20 -251 l 2
 20 -250 19 -248 19 -247 c 2
 19 -243 l 2
 19 -242 20 -239 21 -236 c 0
 23 -225 28 -216 36 -209 c 0
 41 -204 46 -201 50 -201 c 2x78
 50 -201 52 -202 53 -202 c 0
 55 -202 60 -205 66 -210 c 0
 72 -215 81 -220 91 -225 c 0
 101 -230 112 -233 124 -233 c 0xb8
 154 -233 182 -225 210 -210 c 0
 238 -195 263 -174 285 -146 c 0
 307 -118 323 -87 334 -52 c 0
 339 -38 345 -13 354 22 c 0
 359 32 364 50 368 75 c 1
 357 53 347 38 336 33 c 1
 303 -9 259 -31 206 -31 c 0
 185 -31 168 -27 154 -19 c 0
 136 -9 123 7 115 29 c 0
 108 48 104 71 104 99 c 0
 104 119 111 159 121 221 c 0
 130 263 142 299 157 332 c 0
 172 365 187 393 205 414 c 0
 223 435 242 453 263 468 c 0
 284 483 306 494 327 500 c 0
 348 506 371 509 395 509 c 0
 424 509 445 507 456 505 c 0
 467 503 478 497 488 489 c 0
 490 487 491 483 491 478 c 0
 491 469 488 460 483 453 c 1
 483 452 l 2
 482 451 476 444 465 433 c 1
 472 437 478 435 485 427 c 0
 487 427 488 425 489 423 c 0
 490 421 491 418 491 415 c 0
 491 412 491 407 490 402 c 0
EndSplineSet
Validated: 1
EndChar

StartChar: h
Encoding: 104 104 82
Width: 509
GlyphClass: 2
Flags: MW
HStem: 414 87<337.5 406.5 346 406.5>
VStem: 253 2<768 772> 391 68<334.5 420>
LayerCount: 2
Fore
SplineSet
447 320 m 0
 438 278 427 226 416 163 c 0
 405 100 396 55 391 33 c 0
 387 14 380 0 370 -10 c 0
 361 -19 352 -23 344 -23 c 0
 337 -23 331 -18 326 -11 c 0
 324 -6 322 -1 322 6 c 0
 322 9 323 13 323 17 c 0
 326 36 334 72 347 126 c 0
 361 180 371 224 379 259 c 0
 387 294 391 323 391 346 c 0
 391 369 387 387 379 398 c 0
 372 409 361 414 347 414 c 2
 346 414 l 2
 329 414 313 410 298 403 c 0
 283 396 270 386 259 376 c 0
 248 366 239 354 229 340 c 0
 219 326 211 314 205 301 c 0
 199 288 193 276 188 264 c 0
 183 252 180 242 178 235 c 0
 176 228 173 221 173 217 c 0
 173 213 170 207 168 199 c 0
 166 191 164 184 163 179 c 0
 160 166 155 151 151 131 c 0
 147 111 143 96 140 82 c 0
 137 68 130 46 121 16 c 0
 117 4 110 -5 100 -12 c 0
 90 -19 81 -22 72 -22 c 1
 70 -21 l 2
 67 -21 63 -21 61 -20 c 0
 59 -19 56 -16 54 -14 c 0
 52 -11 51 -7 51 -2 c 0
 51 3 52 8 54 15 c 0
 62 44 76 94 95 167 c 0
 114 240 125 288 130 313 c 0
 152 428 180 565 214 723 c 0
 217 738 223 750 230 757 c 0
 237 764 245 768 253 768 c 1
 253 776 255 776 255 768 c 1
 262 768 267 766 270 761 c 0
 274 756 274 746 272 732 c 0
 257 655 232 527 199 349 c 1
 210 367 220 384 230 401 c 0
 237 414 246 426 256 437 c 0
 266 448 278 458 291 468 c 0
 304 478 319 486 336 492 c 0
 356 498 376 501 398 501 c 0
 415 501 428 496 437 488 c 0
 446 480 453 468 456 452 c 0
 458 440 459 427 459 413 c 0
 459 387 455 356 447 320 c 0
EndSplineSet
Validated: 1
EndChar

StartChar: i
Encoding: 105 105 83
Width: 509
GlyphClass: 2
Flags: MW
HStem: -17 62<83 243> 406 61<283 357> 581 130<349.5 396.5 353 396.5>
VStem: 314 125
LayerCount: 2
Fore
SplineSet
74 -12 m 0
 73 -10 71 -5 71 -1 c 0
 71 3 73 8 74 13 c 0
 77 23 81 31 86 37 c 0
 91 42 98 45 108 45 c 2
 243 45 l 1
 250 82 255 111 258 132 c 0
 261 153 266 173 270 194 c 0
 275 217 283 262 297 326 c 0
 305 362 311 383 312 388 c 1
 313 385 314 389 315 401 c 1
 311 394 308 395 305 404 c 0
 301 405 295 406 287 406 c 0
 279 406 269 405 257 405 c 0
 245 405 236 404 229 404 c 2
 211 404 l 1
 210 404 l 2
 205 404 203 406 201 409 c 0
 200 412 199 416 199 418 c 0
 199 420 200 424 200 427 c 0
 201 438 204 446 209 453 c 0
 213 458 219 461 226 461 c 2
 227 461 l 1
 264 465 299 467 330 467 c 2
 357 467 l 2
 363 467 368 465 371 463 c 0
 374 461 376 457 376 453 c 0
 378 442 378 432 376 424 c 0
 363 382 352 338 342 296 c 0
 332 254 323 217 317 186 c 0
 312 155 304 108 294 45 c 1
 413 45 l 2
 421 45 425 44 426 42 c 0
 427 40 428 36 428 34 c 0
 428 32 427 27 426 21 c 0
 424 10 420 3 414 -3 c 0
 408 -9 401 -12 391 -12 c 0
 381 -12 335 -12 253 -14 c 0
 170 -16 114 -17 87 -17 c 0
 79 -17 75 -15 74 -12 c 0
346 690 m 0
 363 703 379 710 396 711 c 0
 397 711 398 712 399 712 c 0
 414 712 425 706 432 696 c 0
 437 688 438 679 438 669 c 0
 438 664 438 658 437 652 c 0
 432 633 423 617 409 604 c 0
 395 591 378 583 358 581 c 2
 353 581 l 2
 346 581 340 582 335 584 c 0
 330 586 325 591 321 597 c 0
 316 606 314 616 314 627 c 0
 314 652 325 673 346 690 c 0
EndSplineSet
Validated: 1
EndChar

StartChar: j
Encoding: 106 106 84
Width: 509
GlyphClass: 2
Flags: MW
HStem: -287 66<20 64.5> 397 68 578 129<423.5 473.5>
VStem: 386 120<621.5 670>
LayerCount: 2
Fore
SplineSet
407 582 m 0
 400 585 395 590 392 597 c 0
 388 606 386 616 386 627 c 0
 386 634 386 641 388 649 c 0
 392 666 401 680 415 690 c 0
 431 701 447 707 466 707 c 0
 481 707 492 702 499 692 c 0
 504 684 506 675 506 665 c 0
 506 660 505 654 504 647 c 0
 499 627 491 611 476 598 c 0
 461 585 445 578 428 578 c 0
 419 578 412 580 407 582 c 0
166 -193 m 0
 185 -183 201 -171 217 -156 c 0
 233 -141 246 -123 258 -102 c 0
 270 -81 280 -56 285 -29 c 0
 286 -23 290 3 298 48 c 0
 306 93 315 139 324 186 c 0
 333 233 350 303 372 398 c 1
 367 389 360 389 355 397 c 1
 342 396 305 396 243 396 c 0
 217 396 201 397 196 397 c 0
 191 397 187 398 185 399 c 0
 183 400 180 403 178 407 c 0
 176 411 174 415 174 420 c 0
 174 422 174 426 175 431 c 0
 177 438 182 445 188 451 c 0
 194 457 202 459 212 459 c 0
 232 460 260 462 297 463 c 0
 334 464 361 465 377 465 c 0
 395 465 408 464 419 464 c 2
 420 464 l 2
 425 464 430 462 433 460 c 0
 436 458 438 454 438 450 c 0
 439 439 439 430 438 423 c 0
 430 401 424 382 419 367 c 0
 417 360 415 351 413 342 c 0
 409 325 397 270 378 178 c 0
 361 87 346 15 335 -36 c 0
 329 -64 322 -90 312 -113 c 0
 302 -136 290 -156 277 -173 c 0
 264 -190 251 -205 235 -218 c 0
 219 -231 204 -242 188 -250 c 0
 172 -258 155 -265 137 -271 c 0
 117 -277 99 -282 80 -284 c 0
 61 -286 43 -287 24 -287 c 0
 16 -287 10 -284 6 -280 c 0
 4 -278 3 -275 3 -272 c 0
 3 -269 4 -265 4 -262 c 0
 6 -251 12 -241 20 -233 c 0
 28 -225 35 -221 41 -221 c 0
 88 -221 129 -212 166 -193 c 0
EndSplineSet
Validated: 1
EndChar

StartChar: k
Encoding: 107 107 85
Width: 509
GlyphClass: 2
Flags: MW
VStem: 334 58
LayerCount: 2
Fore
SplineSet
350 -22 m 0
 348 -22 345 -20 343 -17 c 0
 340 -14 336 -7 334 4 c 0
 333 9 327 23 318 45 c 0
 309 68 300 91 291 113 c 0
 282 136 273 163 265 192 c 0
 256 219 251 242 249 261 c 2
 247 283 l 1
 156 199 l 1
 151 199 l 1
 149 190 l 2
 142 165 136 135 131 101 c 0
 125 67 120 44 117 32 c 0
 113 11 106 -3 97 -11 c 0
 89 -19 80 -23 71 -23 c 0
 70 -23 68 -22 67 -22 c 0
 59 -22 53 -18 48 -9 c 0
 46 -4 45 2 45 10 c 0
 45 13 46 18 48 23 c 0
 57 54 70 104 86 173 c 0
 115 291 145 424 177 571 c 0
 192 650 202 698 206 718 c 0
 208 735 214 748 222 756 c 0
 230 764 239 768 248 768 c 0
 255 768 261 764 264 756 c 0
 266 751 267 745 267 737 c 0
 267 733 266 729 265 724 c 0
 248 638 216 488 169 277 c 1
 195 302 l 2
 230 339 273 382 325 433 c 1
 382 480 414 506 421 512 c 0
 430 521 437 528 444 530 c 0
 447 532 451 533 453 533 c 0
 456 533 460 529 462 522 c 0
 464 516 465 510 465 504 c 0
 465 495 458 483 441 469 c 0
 426 452 375 404 289 324 c 1
 291 317 l 2
 296 292 307 257 324 212 c 0
 341 165 357 125 370 93 c 0
 384 64 392 45 393 37 c 0
 391 15 382 -2 368 -13 c 0
 360 -19 354 -22 350 -22 c 0
EndSplineSet
Validated: 1
EndChar

StartChar: l
Encoding: 108 108 86
Width: 509
GlyphClass: 2
Flags: MW
HStem: -30 61 414 59 481 21G
VStem: 142 67<87.501 125>
LayerCount: 2
Fore
SplineSet
406 44 m 0
 406 33 402 23.0009765625 393 13.0009765625 c 0
 384 4.0009765625 373 -2.9990234375 362 -7.9990234375 c 0
 339 -19.9990234375 276 -29.9990234375 265 -29.9990234375 c 2
 256 -29.9990234375 l 2
 216 -27.9990234375 185 -12.9990234375 164 14.0009765625 c 0
 154 27.0009765625 148 45.0009765625 145 66.0009765625 c 0
 144 75.0009765625 142 83.0009765625 142 92.0009765625 c 0
 142 107.000976562 145 123.000976562 148 141.000976562 c 0
 150 156.000976562 153 172.000976562 158 192.000976562 c 0
 163 215.000976562 168 231.000976562 170 239.000976562 c 0
 172 247.000976562 175 262.000976562 181 283.000976562 c 0
 187 304.000976562 191 317.000976562 192 324.000976562 c 0
 193 331.000976562 197 344.000976562 203 364.000976562 c 0
 253.357421875 531.858398438 253.357421875 531.858398438 268 649.000976562 c 0
 268 657.000976562 272 665.000976562 277 673.000976562 c 0
 282 680.000976562 286 683.000976562 291 683.000976562 c 0
 297 683.000976562 302 680.000976562 309 673.000976562 c 0
 317.26953125 664.731445312 322.576171875 659.424804688 322.576171875 641.909179688 c 0
 322.576171875 610.530273438 305.543945312 539.969726562 258 343 c 0
 250 314 244 294 242 283 c 0
 240 272 235 254 229 228 c 0
 223 202 218 187 218 183 c 0
 218 179 216 168 212 151 c 0
 210 140 209 130 209 120 c 0
 209 99 212 82 221 67 c 0
 234 45 255 32 282 31 c 2
 289 31 l 2
 316 31 363 43 394 59 c 0
 396 59 399 60 400 60 c 0
 401 60 402 59 402 59 c 2
 404 57 406 51 406 44 c 0
EndSplineSet
Validated: 1
EndChar

StartChar: m
Encoding: 109 109 87
Width: 509
GlyphClass: 2
Flags: MW
HStem: 416 94<244.5 297.5>
VStem: 269 40 424 65<387.5 472.5>
LayerCount: 2
Fore
SplineSet
224 408 m 0
 215 402 205 392 194 379 c 0
 175 357 158 329 141 297 c 1
 135 275 126 234 114 177 c 0
 109 154 103 124 96 87 c 0
 89 50 84 28 82 19 c 0
 80 10 76 3 73 -3 c 0
 70 -9 66 -15 62 -17 c 0
 58 -19 54 -20 50 -21 c 0
 46 -22 43 -23 38 -23 c 0
 31 -23 25 -21 23 -17 c 0
 22 -15 21 -11 21 -5 c 0
 21 1 22 7 23 15 c 0
 24 23 28 39 33 65 c 0
 38 91 42 116 47 140 c 0
 71 251 95 360 119 467 c 0
 124 488 131 504 142 513 c 0
 151 521 159 525 167 525 c 2
 168 525 l 1
 169 525 l 2
 171 525 174 525 176 524 c 0
 181 522 183 516 183 508 c 0
 183 500 181 490 177 477 c 0
 175 472 172 464 168 453 c 2
 160 427 l 2
 151 405 142 374 132 335 c 1
 148 370 164 397 180 416 c 1
 216 478 254 510 295 510 c 0
 300 510 305 504 307 492 c 0
 310 479 312 462 312 441 c 0
 312 435 311 415 310 381 c 1
 317 401 324 412 331 415 c 1
 373 478 420 510 473 510 c 0
 477 510 480 508 482 506 c 0
 487 499 489 484 489 461 c 0
 489 449 487 433 484 413 c 0
 474 346 457 264 434 167 c 0
 423 122 413 77 405 34 c 0
 403 21 399 10 396 2 c 0
 393 -6 390 -12 387 -15 c 0
 384 -18 380 -20 378 -21 c 0
 376 -22 372 -23 369 -23 c 2
 363 -23 l 2
 361 -23 358 -22 356 -21 c 0
 354 -20 351 -18 349 -16 c 0
 347 -14 345 -7 345 3 c 0
 345 10 347 18 348 27 c 0
 352 53 357 80 363 107 c 0
 371 132 379 164 387 205 c 0
 395 240 403 272 410 301 c 0
 417 330 421 354 423 374 c 0
 423 380 424 385 424 390 c 0
 424 399 422 405 420 409 c 0
 417 414 412 416 407 416 c 2
 406 416 l 2
 386 416 368 405 349 383 c 0
 332 362 316 335 300 301 c 1
 294 262 283 212 268 150 c 0
 253 88 243 46 240 24 c 0
 238 13 235 4 233 -2 c 0
 231 -9 227 -14 224 -16 c 0
 219 -21 213 -23 208 -23 c 0
 206 -23 204 -22 204 -22 c 1
 203 -22 l 2
 197 -22 192 -20 190 -16 c 0
 189 -14 188 -9 188 -2 c 0
 188 1 189 9 190 20 c 0
 193 41 202 78 216 131 c 0
 230 184 240 226 246 256 c 0
 248 256 250 263 251 279 c 0
 263 339 269 374 269 387 c 0
 269 401 265 410 257 414 c 0
 255 415 251 416 248 416 c 0
 241 416 233 414 224 408 c 0
EndSplineSet
Validated: 1
EndChar

StartChar: n
Encoding: 110 110 88
Width: 509
GlyphClass: 2
Flags: MW
HStem: 242 2 417 93<333.5 382>
VStem: 361 2<-26.5 -23> 389 61<352 417.5>
LayerCount: 2
Fore
SplineSet
62 17 m 0
 64 23 67 40 70 68 c 0
 73 96 77 120 80 140 c 0
 89 185 104 248 125 326 c 0
 146 404 160 449 162 462 c 0
 167 482 175 495 184 503 c 0
 192 511 200 515 208 515 c 2
 210 515 l 1
 211 515 l 2
 218 515 223 512 225 507 c 0
 226 505 227 502 227 496 c 0
 227 490 224 482 222 472 c 0
 218 455 215 445 214 440 c 0
 207 427 201 405 195 375 c 1
 208 400 220 418 232 428 c 1
 248 451 268 470 291 486 c 0
 314 502 342 510 374 510 c 0
 390 510 403 507 414 501 c 0
 427 494 435 482 441 466 c 0
 447 450 450 429 450 406 c 0
 450 383 446 355 440 324 c 0
 432 281 424 226 417 161 c 0
 410 96 405 51 402 30 c 0
 399 10 393 -3 386 -11 c 0
 379 -19 371 -22 363 -22 c 1
 363 -31 361 -31 361 -23 c 1
 353 -23 347 -20 343 -14 c 0
 340 -10 338 -4 338 5 c 0
 338 10 338 16 339 21 c 0
 340 26 345 58 353 118 c 0
 360 175 368 222 375 258 c 0
 384 306 389 341 389 363 c 0
 389 368 388 373 388 377 c 0
 386 392 380 402 370 409 c 0
 363 414 353 417 341 417 c 0
 326 417 312 415 298 409 c 0
 284 403 273 396 262 387 c 0
 251 378 240 367 229 355 c 0
 218 343 209 332 202 321 c 0
 195 310 187 299 179 286 c 0
 169 253.5 169 253.5 152 177 c 0
 147 154 142 124 137 88 c 0
 132 52 128 30 126 20 c 0
 122 4 116 -7 107 -14 c 0
 100 -20 92 -22 83 -22 c 0
 74 -22 68 -19 64 -14 c 0
 60 -9 60 2 62 17 c 0
EndSplineSet
Validated: 1
EndChar

StartChar: o
Encoding: 111 111 89
Width: 509
GlyphClass: 2
Flags: MW
HStem: -27 74<217 218> 472 46<274.5 329>
VStem: 49 70<156.5 163.5> 389 71<341 367>
LayerCount: 2
Fore
SplineSet
134 91 m 0
 142 78 154 68 169 61 c 0
 182 53 198 48 217 47 c 2
 224 47 l 2
 239 47 255 52 270 62 c 0
 285 72 299 85 311 104 c 0
 336 139 357 186 372 245 c 0
 383 289 389 326 389 356 c 0
 389 378 385 398 378 414 c 0
 369 435 356 451 337 461 c 0
 324 468 309 472 292 472 c 0
 257 472 227 452 202 412 c 0
 176 374 153 321 133 253 c 0
 123 214 119 183 119 161 c 0
 119 152 120 144 120 137 c 0
 122 119 126 104 134 91 c 0
439 224 m 0
 427 182 413 147 397 116 c 0
 381 85 360 59 338 37 c 0
 299 -5 249 -27 187 -27 c 0
 158 -27 133 -20 112 -5 c 0
 92 9 77 28 67 51 c 0
 55 80 49 113 49 150 c 0
 49 177 54 204 61 233 c 1
 61 234 l 1
 70 274 83 312 101 347 c 0
 119 382 140 412 164 437 c 0
 186 462 210 483 236 497 c 0
 262 511 290 518 319 518 c 0
 339 518 358 514 375 508 c 0
 392 502 408 492 422 478 c 0
 436 464 446 445 453 424 c 0
 458 406 460 384 460 358 c 0
 460 318 453 273 439 224 c 0
EndSplineSet
Validated: 1
EndChar

StartChar: p
Encoding: 112 112 90
Width: 509
GlyphClass: 2
Flags: MW
HStem: -34 20G -31 70<194.5 239 194.5 253> 437 72<349.5 350.5>
VStem: 416 67<329 381.5>
LayerCount: 2
Fore
SplineSet
154 -20 m 1xb0
 150 -26 147 -24 142 -14 c 1
 133 -56 121 -102 110 -155 c 0
 99 -208 91 -242 88 -256 c 0
 85 -270 79 -280 72 -287 c 0
 65 -294 57 -297 49 -297 c 0
 42 -297 37 -294 34 -292 c 0
 29 -289 26 -283 26 -274 c 0
 26 -270 28 -265 28 -260 c 0
 39 -198 62 -90 94 61 c 0
 126 212 151 332 170 419 c 0
 177 454 183 478 187 492 c 0
 192 508 195 518 197 523 c 0
 202 532 209 538 217 543 c 0
 224 546 229 548 234 548 c 0
 241 548 247 545 250 539 c 0
 251 537 251 533 251 531 c 0
 251 529 251 525 250 523 c 0
 245 512 238 496 233 476 c 0
 231 473 228 462 226 443 c 1
 234 458 241 464 250 462 c 1
 292 493 332 509 367 509 c 0
 388 509 406 507 420 502 c 0
 434 497 447 489 457 477 c 0
 467 465 475 448 479 427 c 0
 482 411 483 392 483 371 c 0
 483 329 477 279 464 220 c 0
 459 198 453 174 443 151 c 0
 433 128 421 105 407 83 c 0
 393 61 377 42 360 25 c 0
 345 8 329 -6 310 -16 c 0
 291 -25 272 -31 253 -31 c 2x70
 239 -31 l 2
 199 -31 171 -27 154 -20 c 1xb0
280 419 m 0
 257 407 236 392 217 375 c 2
 213 372 l 1
 213 368 l 1
 203 311 l 2
 200 292 182 206 152 52 c 1
 160 48 l 2
 171 42 185 39 204 39 c 0
 223 39 242 39 262 40 c 0
 281 41 297 49 313 62 c 0
 329 75 343 92 354 113 c 0
 376 152 393 197 404 248 c 0
 411 285 416 316 416 342 c 0
 416 355 415 367 413 376 c 0
 411 391 405 403 398 413 c 0
 391 423 383 429 374 432 c 0
 365 435 356 437 345 437 c 0
 325 437 303 431 280 419 c 0
EndSplineSet
Validated: 1
EndChar

StartChar: q
Encoding: 113 113 91
Width: 509
GlyphClass: 2
Flags: MW
HStem: -31 71<162 211 172 211> 417 53<296 350.5>
VStem: 51 72<112 162.5> 226 81 228 2
LayerCount: 2
Fore
SplineSet
51 122 m 0xf0
 51 142 54 161 59 181 c 0
 69 223 82 261 99 295 c 0
 116 329 133 357 153 378 c 0
 172 399 190 417 211 431 c 0
 232 445 251 455 272 461 c 0
 293 467 314 470 336 470 c 0
 365 470 389 465 410 455 c 0
 431 445 446 433 453 418 c 0
 457 411 459 403 459 395 c 0
 459 386 456 378 451 372 c 0
 446 367 441 364 435 362 c 1
 433 353 431 353 429 360 c 1
 396 218 375 129 366 92 c 0
 356 43 346 3 336 -30 c 0
 325 -83 315 -127 307 -162 c 1
 307 -163 l 1xf0
 298 -216 288 -261 279 -298 c 1
 228 -298 228 -298 228 -288 c 0xe8
 228 -284.837890625 226 -280 226 -275 c 0
 226 -270 227 -263 229 -255 c 0
 242 -205 262 -121 289 -3 c 1
 282 -15 276 -19 269 -14 c 1
 246 -25 216 -31 180 -31 c 2
 172 -31 l 2
 152 -31 134 -26 118 -18 c 0
 102 -10 90 2 80 16 c 0
 70 30 63 45 58 64 c 0
 53 83 51 102 51 122 c 0xf0
123 150 m 0
 123 135 124 122 126 109 c 0
 130 89 138 74 151 61 c 0
 164 48 180 41 198 40 c 2
 211 40 l 2
 244 40 272 46 297 61 c 2
 302 64 l 1
 311 106 337 216 379 394 c 1
 373 399 l 2
 363 406 353 411 342 413 c 0
 332 415 318 417 301 417 c 0
 291 417 280 415 269 411 c 0
 258 407 246 401 233 392 c 0
 220 383 208 371 197 357 c 0
 186 343 174 326 163 304 c 0
 151 282 141 257 134 230 c 0
 127 202 123 175 123 150 c 0
EndSplineSet
Validated: 1
EndChar

StartChar: r
Encoding: 114 114 92
Width: 509
GlyphClass: 2
Flags: MW
HStem: 441 65
LayerCount: 2
Fore
SplineSet
63 62 m 0
 67 94 71 120 74 140 c 0
 83 184 97 245 118 320 c 0
 139 395 152 443 157 463 c 0
 162 482 169 495 178 503 c 0
 187 511 196 515 205 515 c 0
 212 515 217 512 219 507 c 0
 220 505 221 501 221 495 c 0
 221 489 220 481 218 472 c 0
 205 431 193 386 181 335 c 1
 194 359 206 379 219 396 c 0
 227 409 237 421 251 434 c 0
 265 447 280 459 299 470 c 0
 318 481 340 490 365 496 c 0
 392 503 417 506 442 506 c 2
 450 506 l 2
 451 503 452 498 453 492 c 0
 454 486 455 480 455 473 c 0
 455 466 454 458 454 451 c 0
 452 434 449 417 446 400 c 0
 443 383 439 370 434 360 c 0
 429 349 423 340 417 335 c 0
 411 330 404 325 395 323 c 2
 391 323 l 2
 386 323 382 325 380 328 c 0
 377 333 375 338 375 345 c 2
 375 349 l 2
 375 356 376 365 379 377 c 0
 382 389 384 400 384 409 c 0
 384 418 381 427 377 435 c 0
 377 443 375 445 374 441 c 1
 367 441 l 2
 346 441 327 436 308 427 c 0
 289 418 272 407 258 394 c 0
 244 381 230 366 217 350 c 0
 195 323 177 297 165 272 c 1
 156 235 149 207 146 187 c 0
 140 160 134 125 128 83 c 0
 125 54 121 31 118 14 c 0
 116 2 111 -7 106 -13 c 0
 100 -20 91 -24 79 -24 c 0
 69 -24 62 -22 58 -17 c 0
 56 -15 55 -11 55 -6 c 0
 55 -1 57 4 57 10 c 0
 59 21 61 38 63 62 c 0
EndSplineSet
Validated: 1
EndChar

StartChar: s
Encoding: 115 115 93
Width: 509
GlyphClass: 2
Flags: MW
HStem: -35 63<160.5 206.5> 405 64<359 444 368 444>
VStem: 60 72 138 61<282.5 313> 358 65<140 162> 380 70<393 428 405 428>
LayerCount: 2
Fore
SplineSet
116 -26 m 0xf8
 100 -20 86 -10 76 3 c 0
 66 16 60 32 60 51 c 0
 60 81 69 101 88 110 c 0
 95 113 102 115 109 115 c 0
 114 115 120 112 124 108 c 0
 128 104 131 98 132 89 c 0
 133 80 135 74 136 69 c 0
 137 64 139 59 142 52 c 0
 145 45 150 40 156 37 c 0
 167 31 182 28 199 28 c 0
 214 28 232 33 253 42 c 0
 274 51 295 63 315 79 c 0
 336 96 350 113 356 131 c 0
 357 134 358 138 358 142 c 0xf8
 358 151 355 158 349 165 c 0
 342 173 331 180 318 185 c 0
 306 190 294 195 281 199 c 0
 278.1875 198.4375 275.41015625 198.15625 272.654296875 198.15625 c 0
 260.71484375 198.15625 249.1875 203.4375 237 214 c 1
 219 220 205 226 193 231 c 0
 167 242 150 253 143 264 c 0
 140 270 138 278 138 287 c 0
 138 296 139 306 141 317 c 0
 152 363 182 400 231 427 c 0
 278 455 349 469 444 469 c 1
 444 469 446 466 446 464 c 0
 446 462 448 457 449 449 c 0
 450 441 450 432 450 424 c 0
 450 416 450 407 449 396 c 0
 448 385 446 375 445 367 c 0
 443 359 441 352 440 346 c 0
 439 340 436 334 432 329 c 0
 428 324 422 321 416 319 c 0
 413 318 409 317 405 317 c 0
 401 317 398 318 395 320 c 0
 390 324 386 329 386 334 c 0
 382 354 380 373 380 393 c 2
 380 405 l 1xf4
 368 405 l 2
 350 405 333 403 315 400 c 0
 298 397 282 392 265 386 c 0
 248 380 234 370 222 359 c 0
 209 346 201 332 199 316 c 2
 199 313 l 2
 199 302 205 293 218 285 c 0
 231 277 250 268 277 261 c 0
 296 256 312 251 327 246 c 0
 343 241 359 234 374 226 c 0
 389 218 400 210 408 201 c 0
 416 192 420 182 422 171 c 0
 422 168 423 164 423 160 c 0
 423 151 421 142 418 132 c 0
 407 98 387 68 359 42 c 0
 332 17 303 -3 271 -16 c 0
 239 -29 206 -35 171 -35 c 0
 150 -35 132 -32 116 -26 c 0xf8
EndSplineSet
Validated: 1
EndChar

StartChar: t
Encoding: 116 116 94
Width: 509
GlyphClass: 2
Flags: MW
HStem: -22 61<206 239 206 239> 422 59<381 402.5> 489 21G
VStem: 92 67<95.5 133>
LayerCount: 2
Fore
SplineSet
339 48 m 0
 339 37 335 27 326 17 c 0
 317 8 306 1 295 -4 c 0
 272 -16 245 -22 215 -22 c 2
 206 -22 l 2
 166 -20 135 -5 114 22 c 0
 104 35 98 53 95 74 c 0
 94 83 92 91 92 100 c 0
 92 115 95 131 98 149 c 0
 100 164 103 180 108 200 c 0
 113 223 118 239 120 247 c 0
 122 255 125 270 131 291 c 0
 137 312 141 325 142 332 c 0
 143 339 147 352 153 372 c 0
 159 392 164 409 169 426 c 1
 110 426 l 2
 104 426 100 427 98 429 c 0
 96 431 95 434 95 439 c 0
 95 444 96 450 97 456 c 0
 99 467 103 476 108 482 c 0
 113 488 121 491 131 491 c 0
 149 491 164 490 175 490 c 1
 178 494 183 494 186 489 c 1
 187 497 188 500 188 499 c 1
 201 548 211 601 218 657 c 0
 218 665 222 673 227 681 c 0
 232 688 236 691 241 691 c 0
 247 691 252 688 259 681 c 0
 264 676 268 671 268 666 c 0
 257 612 246 552 236 487 c 1
 333 483 387 481 399 481 c 0
 406 481 412 480 414 478 c 0
 416 476 417 472 417 465 c 0
 417 461 417 456 416 451 c 0
 414 442 408 434 403 429 c 0
 398 424 391 422 381 422 c 0
 322 424 271 424 224 424 c 1
 221 404 215 380 208 351 c 0
 200 322 194 302 192 291 c 0
 190 280 185 262 179 236 c 0
 173 210 168 195 168 191 c 0
 168 187 166 176 162 159 c 0
 160 148 159 138 159 128 c 0
 159 107 162 90 171 75 c 0
 184 53 205 40 232 39 c 2
 239 39 l 2
 266 39 296 47 327 63 c 0
 329 63 332 64 333 64 c 0
 334 64 335 63 335 63 c 2
 337 61 339 55 339 48 c 0
EndSplineSet
Validated: 1
EndChar

StartChar: u
Encoding: 117 117 95
Width: 509
GlyphClass: 2
Flags: MW
HStem: -17 69<134.5 187>
VStem: 51 69<80 107.5>
LayerCount: 2
Fore
SplineSet
457 446 m 0
 457 436 452 414 445 381 c 0
 438 348 434 329 433 322 c 0
 421 264 399 164 366 23 c 0
 362 6 356 -5 349 -12 c 0
 342 -19 334 -23 326 -23 c 0
 324 -23 321 -24 321 -24 c 2
 314 -24 309 -22 306 -17 c 0
 303.856445312 -14.3203125 302.861328125 -9.91796875 302.861328125 -3.7919921875 c 0
 302.861328125 1.5126953125 303.607421875 8.1103515625 305 16 c 0
 309 28 312 48 316 77 c 1
 308.5 62.9375 301 55.90625 293.5 55.90625 c 2
 292 56 l 1
 277 43 263 31 246 20 c 0
 229 9 210 -1 188 -8 c 0
 171 -14 154 -17 137 -17 c 0
 132 -17 128 -16 123 -16 c 0
 107 -15 93 -7 80 6 c 0
 67 19 59 35 55 55 c 0
 53 66 51 75 51 85 c 0
 51 95 53 105 54 114 c 0
 61 160 71 213 85 274 c 0
 90 295 98 324 108 362 c 0
 118 400 125 426 127 441 c 0
 130 454 136 464 144 470 c 0
 152 476 159 479 168 479 c 0
 177 479 184 476 188 471 c 0
 190 469 190 464 190 458 c 0
 190 455 190 450 189 444 c 0
 188 438 183 418 174 381 c 0
 164 343 156 311 151 284 c 0
 135 215 126 163 122 126 c 0
 121 118 120 111 120 104 c 0
 120 86 123 73 131 65 c 0
 138 60 145 56 152 55 c 0
 159 54 167 52 176 52 c 0
 198 52 224 58 250 72 c 0
 276 86 302 102 325 122 c 1
 325 115 327 116 328 125 c 0
 338 167 348 218 360 278 c 0
 377 352 390 407 395 442 c 0
 397 453 402 462 410 468 c 0
 418 474 426 479 434 479 c 0
 442 479 449 477 454 471 c 0
 457 467 458 462 458 457 c 0
 458 454 458 450 457 446 c 0
EndSplineSet
Validated: 1
EndChar

StartChar: v
Encoding: 118 118 96
Width: 509
GlyphClass: 2
Flags: MW
VStem: 67 70<415 453.5 421 453.5>
LayerCount: 2
Fore
SplineSet
442 462 m 2
 441 453 436 443 429 430 c 1
 429 436 428 436 428 430 c 0
 415 403 399 375 380 345 c 0
 361 313 332 261 291 188 c 0
 253 117 219 52 188 -7 c 0
 185 -16 179 -22 171 -25 c 0
 167 -26 164 -27 160 -27 c 0
 156 -27 152 -26 148 -24 c 0
 143 -20 139 -14 138 -7 c 0
 103 144 79 285 67 415 c 1
 67 421 l 2
 67 449 74 470 87 484 c 0
 91 488 96 492 101 494 c 0
 105 497 109 499 113 499 c 0
 116 499 120 497 123 495 c 0
 126 493 130 486 132 477 c 0
 135 470 137 460 137 447 c 0
 139 392 143 346 147 306 c 2
 151 264 l 2
 152 253 156 225 162 182 c 0
 169 135 173 110 173 107 c 0
 174 90 176 77 176 66 c 1
 182 71 188 81 194 95 c 0
 270 232 332 352 381 455 c 0
 391 477 401 491 412 498 c 0
 418 502 423 504 426 504 c 0
 429 504 433 503 435 501 c 0
 440 496 442 487 442 472 c 2
 442 462 l 2
EndSplineSet
Validated: 1
EndChar

StartChar: w
Encoding: 119 119 97
Width: 509
GlyphClass: 2
Flags: MW
HStem: -6 21G<72 72>
VStem: 34 84 232 45<48.5 78> 258 43
LayerCount: 2
Fore
SplineSet
36 3 m 0xd0
 35 43 34 81 34 118 c 0
 34 239 42 347 57 442 c 0
 59 459 62 472 69 480 c 0
 77 491 88 496 99 496 c 0
 105 496 109 493 112 488 c 0
 115 483 118 475 118 462 c 2
 118 455 l 1
 106 371 93 246 80 80 c 0
 78 49 74 21 72 -6 c 1
 151 200 l 1
 197 335 229 422 245 460 c 0
 249 471 253 480 259 487 c 0
 265 495 272 499 280 499 c 0
 287 499 292 495 295 489 c 0
 298 485 301 475 301 459 c 0
 301 454 299 429 295 385 c 0
 292 341 289 288 285 226 c 0
 280 165 277 116 277 78 c 2xe0
 277 10 l 1
 284 27 291 47 298 69 c 0
 321 135 363 263 423 452 c 0
 428 471 435 483 442 489 c 0
 447 493 453 495 458 495 c 0
 460 495 462 494 464 494 c 0
 468 492 472 488 474 482 c 0
 476 478 477 472 477 465 c 0
 477 461 475 453 472 441 c 0
 450 373 421 295 387 208 c 0
 355 120 329 54 309 10 c 0
 303 -4 296 -14 288 -20 c 0
 281 -25 274 -27 265 -27 c 2
 262 -27 l 1
 261 -27 l 2
 254 -27 248 -24 243 -19 c 0
 239 -14 235 -5 234 9 c 0
 233 24 232 40 232 57 c 0
 232 99 238 165 248 252 c 0
 255 307 258 341 258 353 c 0
 259 380 262 405 264 428 c 1
 255 410 246 388 237 363 c 0
 227 337 215 301 200 255 c 0
 185 211 168 165 151 120 c 0
 132 76 115 34 95 -4 c 0
 91 -15 85 -23 78 -28 c 0
 71 -33 64 -36 59 -36 c 0
 54 -36 48 -33 43 -27 c 0
 38 -22 36 -12 36 3 c 0xd0
EndSplineSet
Validated: 1
EndChar

StartChar: x
Encoding: 120 120 98
Width: 509
GlyphClass: 2
Flags: MW
HStem: -22 21G<355.5 361> 483 20G<180.5 182.5>
LayerCount: 2
Fore
SplineSet
42 -23 m 0
 39 -21 35 -17 32 -10 c 0
 30 -3 27 4 27 12 c 0
 27 22 33 34 46 48 c 0
 55 60 71 76 93 96 c 2
 166 175 l 2
 191 201 211 226 228 248 c 2
 232 254 l 1
 229 261 l 2
 218 290 205 322 186 359 c 0
 167 392 155 414 151 424 c 0
 147 432 146 439 146 446 c 0
 146 457 147 466 150 473 c 0
 152 479 157 485 162 491 c 0
 167 496 171 500 176 502 c 0
 177 502 180 503 181 503 c 0
 184 503 187 501 190 499 c 0
 195 495 201 488 205 477 c 0
 213 462 223 438 237 405 c 0
 251 372 263 340 273 311 c 2
 280 292 l 1
 297 315 327 356 369 413 c 0
 397 446 418 468 431 481 c 0
 446 498 458 506 468 506 c 0
 471 506 475 503 477 498 c 0
 481 490 482 481 482 471 c 0
 482 469 481 466 480 463 c 0
 478 458 473 452 466 447 c 2
 305 256 l 2
 303 254 298 250 295 248 c 2
 298 240 l 2
 307 216 318 192 329 170 c 0
 341 145 351 123 361 102 c 0
 372 84 382 69 387 56 c 0
 391 47 393 38 393 30 c 0
 393 23 392 17 391 12 c 0
 390 7 386 1 381 -6 c 0
 376 -13 372 -18 367 -20 c 0
 365 -21 362 -22 360 -22 c 0
 351 -22 343 -13 336 5 c 0
 304 71 277 132 256 188 c 2
 250 205 l 1
 238 191 l 2
 218 165 189 128 150 80 c 1
 108 36 83 9 75 0 c 0
 67 -11 60 -18 53 -21 c 0
 50 -23 46 -24 45 -24 c 0
 44 -24 42 -24 42 -23 c 0
EndSplineSet
Validated: 1
EndChar

StartChar: y
Encoding: 121 121 99
Width: 509
GlyphClass: 2
Flags: MW
VStem: 116 64<430 470.5 442 470.5> 179 1<448.5 472.5>
LayerCount: 2
Fore
SplineSet
495 441 m 0x80
 473 401 440 348 398 280 c 0
 358 212 321 148 286 88 c 0
 229 -13 173 -109 116 -200 c 2
 52 -296 l 2
 45 -306 36 -313 27 -316 c 0
 25 -316 22 -317 20 -317 c 0
 16 -317 12 -316 8 -312 c 0
 3 -307 1 -300 1 -292 c 0
 1 -289 2 -285 2 -282 c 0
 2 -275 6 -268 12 -260 c 0
 71 -177 127 -88 182 6 c 1
 149 169 127 310 116 430 c 1
 116 442 l 2
 116 451 117 459 119 466 c 0
 122 476 126 484 130 489 c 0
 134 494 140 499 145 501 c 0
 150 504 154 506 159 506 c 0
 161 506 164 505 167 504 c 0
 170 503 173 499 175 493 c 0
 177 487 179 478 179 467 c 1x40
 179 474 180 474 180 467 c 0
 180 430 184 387 189 340 c 0
 194 293 200 256 204 228 c 0
 208 200 216 151 227 84 c 1
 232 92 238 101 243 110 c 0
 327 255 394 374 444 468 c 0
 450 479 456 488 462 495 c 0
 468 502 473 506 478 508 c 0
 483 510 487 511 490 511 c 0
 493 511 497 510 499 509 c 0
 501 507 504 504 505 502 c 0
 507 497 509 490 509 482 c 0
 509 480 508 475 507 469 c 0
 505 460 501 451 495 441 c 0x80
EndSplineSet
Validated: 1
EndChar

StartChar: z
Encoding: 122 122 100
Width: 509
GlyphClass: 2
Flags: MW
HStem: 9 57<128.5 159> 417 61<243 369>
LayerCount: 2
Fore
SplineSet
363 13 m 0
 357 6 348 3 335 3 c 0
 331 3 308 4 265 6 c 0
 222 8 180 9 138 9 c 0
 119 9 93 8 58 7 c 0
 56 7 53 8 52 9 c 0
 51 10 48 15 47 20 c 0
 46 25 44 31 44 37 c 0
 44 46 46 54 50 61 c 0
 52 65 58 73 67 83 c 0
 76 93 89 106 107 122 c 0
 118 133 146 157 188 197 c 0
 227 237 263 275 300 313 c 0
 337 350 365 379 384 399 c 2
 405 421 l 1
 375 420 l 2
 332 418 295 417 265 417 c 0
 221 417 187 419 167 424 c 0
 161 425 157 428 154 430 c 0
 151 432 149 437 149 442 c 0
 149 444 150 448 150 452 c 0
 152 464 158 474 165 482 c 0
 169 487 174 490 180 490 c 0
 181 490 183 489 184 489 c 0
 240 482 296 478 352 478 c 0
 386 478 420 479 453 481 c 2
 454 481 l 2
 456 481 457 480 458 479 c 0
 459 478 461 475 462 473 c 0
 464 468 465 463 465 456 c 0
 465 452 464 448 464 444 c 0
 464 440 460 433 454 423 c 0
 448 413 436 399 421 379 c 0
 399 350 374 322 346 295 c 0
 321 268 299 245 279 226 c 2
 208 159 l 2
 180 132 155 108 133 87 c 2
 111 66 l 1
 354 66 l 2
 365 64 373 60 375 56 c 0
 377 54 378 50 378 48 c 0
 378 46 377 43 377 40 c 0
 375 29 370 20 363 13 c 0
EndSplineSet
Validated: 1
EndChar

StartChar: braceleft
Encoding: 123 123 101
Width: 509
GlyphClass: 2
Flags: MW
HStem: -87 60<241.5 276> 332 76<31.5 58.5> 778 60<441 454.5>
VStem: 72 68<13.5 47> 182 65<271 292.5 275 292.5> 205 69<571.5 615> 223 69<472 488 481 483.5>
LayerCount: 2
Fore
SplineSet
299 -46 m 0xf8
 299 -48 298 -50 298 -52 c 0
 296 -61 290 -70 283 -77 c 0
 277 -84 268 -87 256 -87 c 0
 227 -87 200 -85 176 -79 c 0
 152 -73 131 -65 114 -54 c 0
 97 -43 85 -30 78 -13 c 0
 74 -3 72 8 72 19 c 0
 72 27 73 35 75 44 c 0
 79 62 84 79 92 96 c 0
 100 113 108 128 116 141 c 2
 116 141 124 155 141 182 c 0
 150 195 158 210 165 225 c 0
 172 240 178 256 182 271 c 1
 182 275 l 2
 182 285 174 295 156 306 c 0
 138 316 114 323 85 328 c 0
 68 330 51 332 33 332 c 0
 30 332 26 333 23 334 c 0
 20 335 18 339 15 344 c 0
 12 349 10 354 10 361 c 0
 10 364 11 368 11 371 c 0
 13 382 18 391 25 398 c 0
 32 405 41 408 50 408 c 0
 67 408 82 409 95 410 c 0
 108 411 122 413 137 415 c 0
 152 417 164 420 175 424 c 0
 186 428 197 435 206 443 c 0
 215 451 221 461 223 472 c 2xf2
 223 481 l 2
 223 486 221 494 219 503 c 0
 217 512 214 523 210 534 c 0
 206 545 205 561 205 582 c 0xf4
 205 601 207 621 212 642 c 0
 226 702 256 750 303 785 c 0
 350 820 407 838 475 838 c 0
 484 838 491 836 496 831 c 0
 498 828 500 824 500 821 c 0
 500 812 494 802 480 791 c 0
 468 782 458 778 451 778 c 0
 407 778 369 768 338 746 c 0
 296 716 274 672 274 615 c 2
 274 601 l 2
 275 580 277 562 281 547 c 0
 285 532 289 520 290 509 c 0
 291 498 292 491 292 488 c 2xf2
 292 481 l 2
 290 470 283 459 274 449 c 0xf4
 265 439 254 429 241 421 c 0
 214 404 185 393 154 386 c 2
 111 377 l 1
 153 363 l 2
 184 352 208 339 226 322 c 0
 240 309 247 297 247 288 c 0
 247 287 246 285 246 284 c 0
 244 270 238 256 231 241 c 0
 224 226 216 213 208 200 c 0
 200 187 192 173 184 159 c 0
 176 145 167 129 159 111 c 0
 151 93 145 76 141 57 c 0
 141 53 140 49 140 45 c 0
 140 35 143 26 149 17 c 0
 157 6 168 -2 181 -8 c 0
 194 -14 209 -19 224 -22 c 0
 239 -25 255 -27 271 -27 c 0
 281 -27 289 -30 294 -35 c 0
 297 -37 299 -41 299 -46 c 0xf8
EndSplineSet
Validated: 1
EndChar

StartChar: bar
Encoding: 124 124 102
Width: 509
GlyphClass: 2
Flags: MW
VStem: 113 284
LayerCount: 2
Fore
SplineSet
395 789 m 2
 293 367 l 2
 226 92 187 -76 174 -138 c 0
 170 -150 164 -160 155 -166 c 0
 146 -172 138 -175 129 -175 c 2
 127 -175 l 2
 124 -175 121 -174 119 -173 c 0
 117 -172 115 -171 114 -169 c 0
 113 -167 113 -164 113 -159 c 0
 113 -154 115 -148 117 -139 c 0
 125 -112 145 -34 176 96 c 2
 275 513 l 2
 310 661 331 750 338 780 c 0
 342 795 348 805 354 813 c 0
 360 821 368 825 377 825 c 2
 380 825 l 2
 387 825 392 823 394 820 c 0
 396 817 397 813 397 808 c 0
 397 803 396 796 395 789 c 2
EndSplineSet
Validated: 1
EndChar

StartChar: braceright
Encoding: 125 125 103
Width: 509
GlyphClass: 2
Flags: MW
HStem: -87 60<53.5 67> 353 77 778 60<232.5 267.5>
VStem: 219 69<268.5 281.5> 235 69<130.5 184.5> 264 65<468.5 487> 369 68<704 737.5>
LayerCount: 2
Fore
SplineSet
296 109 m 0xea
 282 49 252 1 205 -34 c 0
 158 -69 101 -87 33 -87 c 0
 24 -87 18 -85 13 -80 c 0
 11 -77 9 -73 9 -70 c 2
 9 -66 l 2
 11 -57 18 -49 29 -40 c 0
 40 -31 50 -27 57 -27 c 0
 102 -27 140 -16 171 5 c 0
 202 26 221 56 230 92 c 0
 233 107 235 122 235 139 c 0
 235 142 234 146 234 151 c 0
 234 172 231 191 228 208 c 0
 222 243 219 264 219 273 c 0xf2
 219 277 220 280 220 281 c 0
 222 292 227 303 236 313 c 0
 245 323 257 332 270 340 c 0
 297 356 326 368 357 375 c 2
 399 385 l 1
 359 399 l 2
 328 410 303 423 285 440 c 0
 271 453 264 464 264 473 c 0xe6
 264 474 265 476 265 477 c 0
 268 492 273 506 280 520 c 0
 287 534 293 546 301 558 c 0
 309 570 317 583 325 596 c 0
 333 609 342 624 349 641 c 0
 356 658 362 675 367 694 c 0
 368 698 369 702 369 706 c 0
 369 716 366 725 360 734 c 0
 353 745 342 753 328 759 c 0
 314 765 300 770 284 773 c 0
 268 776 253 778 237 778 c 0
 228 778 220 781 215 786 c 0
 212 789 210 793 210 797 c 0
 210 799 211 801 211 803 c 0
 213 812 218 821 225 828 c 0
 232 835 242 838 253 838 c 0
 282 838 308 835 332 829 c 0
 356 823 377 815 395 804 c 0
 412 794 424 781 431 764 c 0
 435 754 437 743 437 732 c 0
 437 724 436 716 434 707 c 0
 430 689 424 672 417 656 c 0
 410 640 402 625 394 613 c 0
 386 601 378 589 369 576 c 0
 360 563 352 550 345 536 c 0
 338 522 332 506 329 491 c 2
 329 487 l 2
 329 481 331 476 336 471 c 0
 341 466 347 461 355 456 c 0
 363 451 373 447 384 443 c 0
 395 439 409 436 426 434 c 0
 443 432 460 430 478 430 c 0
 481 430 485 429 488 428 c 0
 491 427 494 423 497 418 c 0
 500 413 502 408 502 401 c 2
 500 391 l 2
 498 380 492 371 486 364 c 0
 480 357 472 354 462 354 c 0
 445 354 429 354 416 353 c 0
 403 352 389 350 374 348 c 0
 359 346 346 341 335 337 c 0
 324 333 315 327 306 319 c 0
 297 311 291 301 289 290 c 0
 289 288 288 284 288 279 c 0xf2
 288 274 289 267 291 257 c 0
 293 247 296 236 299 224 c 0
 302 212 304 195 304 174 c 0
 304 153 301 131 296 109 c 0xea
EndSplineSet
Validated: 1
EndChar

StartChar: asciitilde
Encoding: 126 126 104
Width: 509
GlyphClass: 2
Flags: MW
HStem: 276 81<302.5 333> 437 82<168 198.5>
LayerCount: 2
Fore
SplineSet
500 496 m 2
 500 493 l 2
 500 485 495 472 486 452 c 0
 482 444 478 434 471 423 c 0
 438 368 406 328 375 304 c 0
 351 285 329 276 308 276 c 0
 297 276 287 278 279 282 c 0
 271 286 263 291 257 299 c 0
 251 307 246 317 242 327 c 0
 238 337 233 350 228 367 c 0
 223 384 220 394 219 396 c 0
 218 398 216 403 214 409 c 0
 212 415 209 420 207 422 c 0
 205 422 203 425 201 427 c 0
 196 432 191 435 186 436 c 0
 182 436 177 437 171 437 c 0
 165 437 160 436 154 434 c 0
 148 432 143 427 137 422 c 0
 131 417 127 412 123 407 c 0
 115 397 97 369 72 324 c 0
 65 312 56 301 42 292 c 0
 31 285 23 282 17 282 c 2
 15 282 l 2
 14 282 12 286 11 292 c 0
 11 294 9 297 9 300 c 0
 9 303 12 310 15 320 c 0
 46 383 77 433 111 468 c 0
 144 502 172 519 194 519 c 0
 203 519 211 519 217 518 c 0
 223 517 229 515 235 513 c 0
 241 511 246 506 250 501 c 0
 254 496 258 489 262 479 c 0
 266 469 270 458 274 444 c 2
 278 426 l 2
 279 419 282 413 283 409 c 0
 287 394 290 385 293 380 c 0
 295 377 298 373 300 370 c 0
 304 365 308 360 313 359 c 0
 318 358 324 357 329 357 c 2
 333 357 l 1
 347 357 l 2
 350 357 354 359 360 360 c 0
 366 361 371 365 375 369 c 0
 379 373 385 378 390 384 c 0
 400 395 413 413 430 440 c 0
 441 457 452 472 465 485 c 0
 472 492 478 498 485 500 c 0
 487 500 491 501 493 501 c 0
 498 501 500 500 500 496 c 2
15 282 m 1024
EndSplineSet
Validated: 1
EndChar

StartChar: lambda
Encoding: 955 955 113
Width: 509
GlyphClass: 2
Flags: MW
HStem: -28.1074 21G
LayerCount: 2
Fore
SplineSet
-5.5751953125 -28.107421875 m 0
 -10.908203125 -28.107421875 -16.2255859375 -26.4423828125 -21.529296875 -23.109375 c 0
 -27.6396484375 -20.4423828125 -32.005859375 -16.609375 -34.6279296875 -11.609375 c 0
 -37.25 -6.609375 -37.8505859375 0.890625 -36.4287109375 10.890625 c 0
 -36.0107421875 12.890625 -35.92578125 14.890625 -36.1748046875 16.890625 c 0
 -34.3642578125 25.5576171875 -30.01171875 35.224609375 -23.1162109375 45.8916015625 c 0
 44.58984375 162.55859375 134.473632812 299.225585938 246.536132812 455.892578125 c 1
 225.228515625 548.559570312 201.194335938 634.559570312 174.435546875 713.892578125 c 0
 171.966796875 721.225585938 171.360351562 727.892578125 172.61328125 733.892578125 c 2
 173.03125 735.892578125 l 2
 175.23046875 743.225585938 178.38671875 749.55859375 182.5 754.891601562 c 0
 186.614257812 760.224609375 191.756835938 764.891601562 197.924804688 768.891601562 c 0
 206.372070312 774.224609375 213.859375 776.557617188 220.387695312 775.890625 c 0
 223.720703125 775.890625 226.983398438 775.557617188 230.177734375 774.890625 c 0
 239.481445312 771.557617188 245.3515625 764.557617188 247.790039062 753.890625 c 0
 253.194335938 731.890625 261.579101562 700.223632812 272.944335938 658.890625 c 0
 298.170898438 572.223632812 321.7421875 479.223632812 343.658203125 379.890625 c 0
 358.208007812 321.890625 374.325195312 260.223632812 392.008789062 194.890625 c 0
 409.693359375 129.557617188 422.56640625 77.890625 430.627929688 39.890625 c 0
 433.06640625 29.2236328125 433.450195312 19.890625 431.778320312 11.890625 c 0
 430.107421875 3.890625 427.381835938 -2.7763671875 423.600585938 -8.109375 c 0
 416.84375 -18.109375 408.381835938 -25.109375 398.212890625 -29.109375 c 0
 388.044921875 -33.109375 378.044921875 -33.109375 368.212890625 -29.109375 c 0
 363.297851562 -27.109375 359.203125 -22.7763671875 355.928710938 -16.109375 c 0
 351.849609375 -10.109375 348.922851562 -1.7763671875 347.151367188 8.890625 c 0
 331.42578125 99.5576171875 306.256835938 215.224609375 271.64453125 355.891601562 c 0
 271.623046875 368.55859375 270.209960938 374.55859375 267.403320312 373.891601562 c 0
 230.092773438 316.55859375 202.58203125 274.225585938 184.872070312 246.892578125 c 0
 167.162109375 219.559570312 144.834960938 182.892578125 117.891601562 136.892578125 c 0
 90.4208984375 91.5595703125 67.2587890625 50.892578125 48.404296875 14.892578125 c 0
 42.564453125 2.892578125 36.31640625 -6.2744140625 29.66015625 -12.607421875 c 0
 23.0048828125 -18.9404296875 16.80078125 -23.107421875 11.0498046875 -25.107421875 c 0
 5.2998046875 -27.107421875 -0.2421875 -28.107421875 -5.5751953125 -28.107421875 c 0
EndSplineSet
Validated: 1
EndChar

StartChar: endash
Encoding: 8211 8211 114
Width: 509
GlyphClass: 2
Flags: MW
HStem: 261 63<102.5 148.5>
LayerCount: 2
Fore
SplineSet
87 276 m 0
 87 280 88 285 89 290 c 0
 91 301 94 309 99 314 c 0
 105 321 114 324 125 324 c 0
 172 324 227 323 292 322 c 0
 357 321 395 320 405 320 c 0
 415 320 420 318 421 316 c 0
 423 312 423 306 422 298 c 0
 420 287 415 278 410 273 c 0
 404 267 396 264 385 264 c 0
 218 262 125 261 106 261 c 0
 99 261 95 262 92 264 c 0
 89 266 87 270 87 276 c 0
EndSplineSet
Validated: 1
EndChar

StartChar: emdash
Encoding: 8212 8212 115
Width: 509
GlyphClass: 2
Flags: MW
HStem: 261 61<48.5 70>
LayerCount: 2
Fore
SplineSet
32 276 m 0
 32 280 33 284 34 289 c 0
 36 300 39 308 44 313 c 0
 49 319 57 322 68 322 c 2
 70 322 l 2
 127 322 174 321 213 321 c 0
 252 321 303 322 367 322 c 0
 417 322 448 323 458 323 c 0
 468 323 474 321 476 318 c 0
 478 313 478 307 477 298 c 0
 475 287 470 278 465 273 c 0
 459 267 450 264 439 264 c 0
 208 262 79 261 52 261 c 0
 45 261 40 262 37 264 c 0
 34 266 32 270 32 276 c 0
EndSplineSet
Validated: 1
EndChar

StartChar: quoteleft
Encoding: 8216 8216 116
Width: 509
GlyphClass: 2
Flags: MW
HStem: 495 235<251 253 248 254.5>
VStem: 200 69<684.5 718.5> 200 111
LayerCount: 2
Fore
SplineSet
232 512 m 0xc0
 226 533 220 560 214 594 c 0
 208 628 203 657 201 680 c 0
 201 682 200 684 200 685 c 0
 200 693 203 700 208 707 c 0
 214 716 220 722 229 725 c 0
 238 728 245 730 251 730 c 0
 255 730 260 729 263 727 c 0
 266 725 269 721 269 716 c 0
 273 681 287 624 310 547 c 0
 310 545 311 541 311 539 c 0xa0
 311 526 298 514 272 501 c 0
 264 497 257 495 252 495 c 0
 250 495 249 496 247 496 c 0
 245 496 242 498 239 500 c 0
 236 502 233 507 232 512 c 0xc0
EndSplineSet
Validated: 1
EndChar

StartChar: quoteright
Encoding: 8217 8217 117
Width: 509
GlyphClass: 2
Flags: MW
HStem: 467 252<186.5 321.5>
VStem: 163 184
LayerCount: 2
Fore
SplineSet
163 502 m 0
 163 510 166 518 172 526 c 0
 187 546 207 574 232 611 c 0
 257 648 275 679 288 701 c 0
 293 708 298 713 303 715 c 0
 308 717 314 719 319 719 c 0
 324 719 330 717 336 714 c 0
 341 712 345 707 347 700 c 2
 347 694 l 2
 347 690 345 683 341 674 c 0
 292 588 256 530 233 499 c 0
 223 485 212 476 201 471 c 0
 196 469 191 467 188 467 c 0
 185 467 182 468 180 469 c 0
 173 473 167 481 164 493 c 0
 164 496 163 500 163 502 c 0
EndSplineSet
Validated: 1
EndChar

StartChar: quotesinglbase
Encoding: 8218 8218 118
Width: 509
GlyphClass: 2
Flags: MW
VStem: 213 83 229 68<502 528.001 523.001 528.001 523.001 528.5>
LayerCount: 2
Fore
SplineSet
229 512 m 2x40
 229 545 224 601.001953125 213 683.001953125 c 0x80
 213 686.001953125 212 689.001953125 212 689.001953125 c 2
 212 691.001953125 213 693.001953125 214 696.001953125 c 0
 215 699.001953125 218 703.001953125 220 706.001953125 c 0
 222 709.001953125 226 712.001953125 230 714.001953125 c 0
 234 716.001953125 239 720.001953125 243 721.001953125 c 0
 247 722.001953125 250 724.001953125 255 724.001953125 c 0
 263 726.001953125 270 728.001953125 275 728.001953125 c 0
 277 728.001953125 281 727.001953125 284 724.001953125 c 0
 287 721.001953125 290 715.001953125 291 708.001953125 c 0
 293 684.001953125 295 654.001953125 296 618.001953125 c 0
 296.70703125 592.545898438 297.4140625 569.58984375 297.4140625 550.194335938 c 0
 297.4140625 542.16015625 297.29296875 534.737304688 297 528.000976562 c 0
 297 518.000976562 294 509.000976562 287 502.000976562 c 0
 280 495.000976562 272 490.000976562 264 488.000976562 c 0
 257.452148438 486.69140625 251.666992188 485.953125 246.810546875 485.953125 c 0
 240.540039062 485.953125 235.817382812 487.182617188 233 490 c 0
 231 492 229 497 229 502 c 2
 229 512 l 2x40
EndSplineSet
Validated: 1
EndChar

StartChar: quotedblleft
Encoding: 8220 8220 119
Width: 509
GlyphClass: 2
Flags: MW
VStem: 123 69<673.5 707.5> 123 112 275 69<723 761.5 728 761.5>
LayerCount: 2
Fore
SplineSet
308 554 m 0x20
 302 575 296 603 289 637 c 0
 282 671 277 700 275 723 c 2
 275 728 l 2
 275 736 278 743 283 750 c 0
 289 759 297 765 305 768 c 0
 313 771 320 773 326 773 c 0
 330 773 333 772 337 770 c 0
 341 768 344 764 344 759 c 0
 348 724 362 667 385 590 c 0
 386 588 387 584 387 582 c 0
 387 569 373 557 347 544 c 0
 340 540 333 538 327 538 c 0
 325 538 323 539 321 539 c 0
 319 539 316 540 314 542 c 0
 312 544 310 549 308 554 c 0x20
156 501 m 0
 150 522 144 549 138 583 c 0
 132 617 126 647 124 670 c 0
 124 671 123 673 123 674 c 0xa0
 123 682 126 689 131 696 c 0
 137 705 144 711 153 714 c 0
 162 717 169 719 175 719 c 0
 179 719 183 718 186 716 c 0
 189 714 192 710 192 705 c 0
 197 670 211 613 234 536 c 0
 234 534 235 530 235 528 c 0x60
 235 515 222 503 196 490 c 0
 188 487 181 485 176 485 c 2
 170 485 l 2
 168 485 166 487 163 489 c 0
 160 491 157 496 156 501 c 0
EndSplineSet
Validated: 1
EndChar

StartChar: quotedblright
Encoding: 8221 8221 120
Width: 509
GlyphClass: 2
Flags: MW
HStem: 467 306<252.5 261.5> 699 20G<382.5 387.5>
VStem: 97 316<548 695>
LayerCount: 2
Fore
SplineSet
287 748 m 0xa0
 287 742 285 735 280 728 c 0
 231 642 195 583 173 552 c 0
 166 543 159 537 151 532 c 0
 143 527 136 524 131 524 c 0
 126 524 121 525 117 527 c 0
 104 536 97 544 97 552 c 0
 97 557 100 563 105 570 c 0
 120 589 141 618 168 660 c 0
 195 700 214 732 227 755 c 0
 231 762 236 767 242 769 c 0
 248 771 254 773 259 773 c 0
 264 773 270 771 276 768 c 0
 281 766 284 761 286 754 c 0
 286 752 287 750 287 748 c 0xa0
369 715 m 0
 375 717 380 719 385 719 c 0x60
 390 719 396 717 402 714 c 0
 407 712 411 707 413 700 c 2
 413 695 l 2
 413 691 411 684 407 674 c 0
 358 588 322 529 300 498 c 0
 289 485 278 476 267 471 c 0
 262 469 257 467 254 467 c 0
 251 467 248 468 246 469 c 0
 239 473 233 481 230 493 c 0
 230 496 229 500 229 502 c 0
 229 507 233 515 238 526 c 0
 254 546 274 574 298 611 c 0
 322 648 341 679 354 701 c 0
 358 708 363 713 369 715 c 0
EndSplineSet
Validated: 1
EndChar

StartChar: bullet
Encoding: 8226 8226 121
Width: 509
GlyphClass: 2
Flags: MW
HStem: 348 159<216 282 225 282>
VStem: 173 164<397 460.5>
LayerCount: 2
Fore
SplineSet
173 404 m 0
 173 435 187 460 215 481 c 0
 236 497 258 506 279 507 c 2
 282 507 l 2
 302 507 317 500 326 487 c 0
 333 478 337 467 337 454 c 0
 337 447 336 440 334 433 c 0
 329 411 317 391 299 375 c 0
 281 359 259 350 234 348 c 2
 225 348 l 2
 207 348 194 354 185 367 c 0
 177 378 173 390 173 404 c 0
EndSplineSet
Validated: 1
EndChar
